<svg width="1920" height="2002" viewBox="0 0 1920 2002" fill="none" xmlns="http://www.w3.org/2000/svg">
<g clip-path="url(#clip0_142_3706)">
<rect width="1920" height="2002" fill="#3B8E89"/>
<g opacity="0.5">
<g opacity="0.5">
<rect x="1.41078" width="23.1056" height="64.9483" rx="11.5528" transform="matrix(0.705392 -0.708817 0.705392 0.708817 47.826 511.5)" stroke="#E0F4F3" stroke-width="2"/>
<rect y="1.41763" width="23.1056" height="64.9483" rx="11.5528" transform="matrix(0.705392 0.708817 -0.705392 0.708817 95.6351 493.118)" stroke="#E0F4F3" stroke-width="2"/>
</g>
<path d="M68.6456 536.375C63.5938 531.305 56.8805 528.008 47.5518 525.33C56.9047 522.636 63.6303 519.325 68.7027 514.231C73.7909 509.122 77.1259 502.308 79.8717 492.794C82.5984 502.232 85.9004 509.014 90.951 514.104C95.9906 519.183 102.682 522.487 112.011 525.155C102.632 527.877 95.8973 531.206 90.8252 536.304C85.7477 541.408 82.4255 548.195 79.6943 557.652C77.0083 548.219 73.7054 541.452 68.6456 536.375Z" stroke="#E0F4F3" stroke-width="2"/>
<rect x="73.0825" y="518.375" width="13.3921" height="13.4668" rx="6.69604" fill="#46958F" stroke="#E0F4F3" stroke-width="2"/>
</g>
<g opacity="0.5">
<g opacity="0.5">
<rect x="1.41078" width="23.1056" height="64.9483" rx="11.5528" transform="matrix(0.705392 -0.708817 0.705392 0.708817 1868.98 37.5004)" stroke="#E0F4F3" stroke-width="2"/>
<rect y="1.41763" width="23.1056" height="64.9483" rx="11.5528" transform="matrix(0.705392 0.708817 -0.705392 0.708817 1916.79 19.1177)" stroke="#E0F4F3" stroke-width="2"/>
</g>
<path d="M1889.8 62.3745C1884.75 57.3048 1878.04 54.0084 1868.71 51.3302C1878.06 48.6358 1884.79 45.3252 1889.86 40.2315C1894.95 35.1219 1898.28 28.3083 1901.03 18.7945C1903.76 28.2319 1907.06 35.0142 1912.11 40.1043C1917.15 45.1832 1923.84 48.4875 1933.17 51.1551C1923.79 53.877 1917.05 57.2058 1911.98 62.3042C1906.91 67.4079 1903.58 74.1953 1900.85 83.6524C1898.17 74.2188 1894.86 67.4524 1889.8 62.3745Z" stroke="#E0F4F3" stroke-width="2"/>
<rect x="1894.24" y="44.3748" width="13.3921" height="13.4668" rx="6.69604" fill="#46958F" stroke="#E0F4F3" stroke-width="2"/>
</g>
<g opacity="0.5">
<g opacity="0.5">
<rect x="1.41078" width="15.3193" height="44.1848" rx="7.65965" transform="matrix(0.705392 -0.708817 0.705392 0.708817 -12.0347 328.832)" stroke="#E0F4F3" stroke-width="2"/>
<rect y="1.41763" width="15.3193" height="44.1848" rx="7.65965" transform="matrix(0.705392 0.708817 -0.705392 0.708817 21.1279 315.969)" stroke="#E0F4F3" stroke-width="2"/>
</g>
<path d="M2.41752 345.462C-0.932178 342.1 -5.31399 339.865 -11.2563 338.062C-5.29753 336.249 -0.906632 334.004 2.45702 330.626C5.83563 327.233 8.09706 322.779 9.94345 316.707C11.7759 322.727 14.015 327.159 17.3674 330.538C20.7094 333.906 25.0777 336.147 31.0201 337.944C25.0429 339.775 20.6451 342.032 17.2809 345.413C13.9117 348.8 11.6593 353.234 9.82291 359.265C8.01461 353.251 5.77494 348.831 2.41752 345.462Z" stroke="#E0F4F3" stroke-width="2"/>
<rect x="5.56982" y="333.574" width="8.61834" height="8.6699" rx="4.30917" fill="#46958F" stroke="#E0F4F3" stroke-width="2"/>
</g>
<g opacity="0.5">
<g opacity="0.5">
<rect x="1.41078" width="15.3193" height="44.1848" rx="7.65965" transform="matrix(0.705392 -0.708817 0.705392 0.708817 1883.76 214.832)" stroke="#E0F4F3" stroke-width="2"/>
<rect y="1.41763" width="15.3193" height="44.1848" rx="7.65965" transform="matrix(0.705392 0.708817 -0.705392 0.708817 1916.92 201.969)" stroke="#E0F4F3" stroke-width="2"/>
</g>
<path d="M1898.21 231.462C1894.86 228.1 1890.48 225.865 1884.54 224.062C1890.5 222.249 1894.89 220.004 1898.25 216.626C1901.63 213.233 1903.89 208.779 1905.74 202.707C1907.57 208.727 1909.81 213.159 1913.16 216.538C1916.5 219.906 1920.87 222.147 1926.81 223.944C1920.84 225.775 1916.44 228.032 1913.07 231.413C1909.71 234.8 1907.45 239.234 1905.62 245.265C1903.81 239.251 1901.57 234.831 1898.21 231.462Z" stroke="#E0F4F3" stroke-width="2"/>
<rect x="1901.36" y="219.574" width="8.61834" height="8.6699" rx="4.30917" fill="#46958F" stroke="#E0F4F3" stroke-width="2"/>
</g>
<g opacity="0.5">
<g opacity="0.5">
<rect x="1.41078" width="15.3193" height="44.1848" rx="7.65965" transform="matrix(0.705392 -0.708817 0.705392 0.708817 1177.19 654.832)" stroke="#E0F4F3" stroke-width="2"/>
<rect y="1.41763" width="15.3193" height="44.1848" rx="7.65965" transform="matrix(0.705392 0.708817 -0.705392 0.708817 1210.35 641.969)" stroke="#E0F4F3" stroke-width="2"/>
</g>
<path d="M1191.64 671.462C1188.29 668.1 1183.91 665.865 1177.97 664.062C1183.93 662.249 1188.32 660.004 1191.68 656.626C1195.06 653.233 1197.32 648.779 1199.17 642.707C1201 648.727 1203.24 653.159 1206.59 656.538C1209.93 659.906 1214.3 662.147 1220.25 663.944C1214.27 665.775 1209.87 668.032 1206.51 671.413C1203.14 674.8 1200.88 679.234 1199.05 685.265C1197.24 679.251 1195 674.831 1191.64 671.462Z" stroke="#E0F4F3" stroke-width="2"/>
<rect x="1194.79" y="659.574" width="8.61834" height="8.6699" rx="4.30917" fill="#46958F" stroke="#E0F4F3" stroke-width="2"/>
</g>
<g opacity="0.5">
<g opacity="0.5">
<rect x="1.41078" width="15.3193" height="44.1848" rx="7.65965" transform="matrix(0.705392 -0.708817 0.705392 0.708817 803.008 402.832)" stroke="#E0F4F3" stroke-width="2"/>
<rect y="1.41763" width="15.3193" height="44.1848" rx="7.65965" transform="matrix(0.705392 0.708817 -0.705392 0.708817 836.17 389.969)" stroke="#E0F4F3" stroke-width="2"/>
</g>
<path d="M817.46 419.462C814.11 416.1 809.729 413.865 803.786 412.062C809.745 410.249 814.136 408.004 817.5 404.626C820.878 401.233 823.14 396.779 824.986 390.707C826.818 396.727 829.058 401.159 832.41 404.538C835.752 407.906 840.12 410.147 846.063 411.944C840.085 413.775 835.688 416.032 832.323 419.413C828.954 422.8 826.702 427.234 824.865 433.265C823.057 427.251 820.817 422.831 817.46 419.462Z" stroke="#E0F4F3" stroke-width="2"/>
<rect x="820.612" y="407.574" width="8.61834" height="8.6699" rx="4.30917" fill="#46958F" stroke="#E0F4F3" stroke-width="2"/>
</g>
<g opacity="0.5">
<g opacity="0.5">
<rect x="1.41078" width="15.3193" height="44.1848" rx="7.65965" transform="matrix(0.705392 -0.708817 0.705392 0.708817 46.6798 161.832)" stroke="#E0F4F3" stroke-width="2"/>
<rect y="1.41763" width="15.3193" height="44.1848" rx="7.65965" transform="matrix(0.705392 0.708817 -0.705392 0.708817 79.8424 148.969)" stroke="#E0F4F3" stroke-width="2"/>
</g>
<path d="M61.132 178.462C57.7823 175.1 53.4005 172.865 47.4582 171.062C53.4169 169.249 57.8078 167.004 61.1715 163.626C64.5501 160.233 66.8115 155.779 68.6579 149.707C70.4904 155.727 72.7295 160.159 76.0819 163.538C79.4239 166.906 83.7922 169.147 89.7346 170.944C83.7574 172.775 79.3596 175.032 75.9953 178.413C72.6261 181.8 70.3737 186.234 68.5374 192.265C66.7291 186.251 64.4894 181.831 61.132 178.462Z" stroke="#E0F4F3" stroke-width="2"/>
<rect x="64.2843" y="166.574" width="8.61834" height="8.6699" rx="4.30917" fill="#46958F" stroke="#E0F4F3" stroke-width="2"/>
</g>
<g opacity="0.5">
<g opacity="0.5">
<rect x="1.41078" width="10.4699" height="31.253" rx="5.23494" transform="matrix(0.705392 -0.708817 0.705392 0.708817 811.25 88.6792)" stroke="#E0F4F3" stroke-width="2"/>
<rect y="1.41763" width="10.4699" height="31.253" rx="5.23494" transform="matrix(0.705392 0.708817 -0.705392 0.708817 835.291 79.253)" stroke="#E0F4F3" stroke-width="2"/>
</g>
<path d="M821.736 100.174C819.446 97.8749 816.505 96.3043 812.629 95.0444C816.517 93.7771 819.464 92.1995 821.765 89.8893C824.08 87.565 825.669 84.57 826.958 80.601C828.236 84.5342 829.81 87.5122 832.105 89.8255C834.391 92.1292 837.323 93.7037 841.199 94.9611C837.298 96.24 834.345 97.8256 832.043 100.139C829.737 102.457 828.154 105.436 826.873 109.375C825.608 105.448 824.034 102.48 821.736 100.174Z" stroke="#E0F4F3" stroke-width="2"/>
<rect x="824.089" y="92.0936" width="5.6452" height="5.68233" rx="2.8226" fill="#46958F" stroke="#E0F4F3" stroke-width="2"/>
</g>
<g opacity="0.5">
<g opacity="0.5">
<rect x="1.41078" width="10.4699" height="31.253" rx="5.23494" transform="matrix(0.705392 -0.708817 0.705392 0.708817 1553.65 349.679)" stroke="#E0F4F3" stroke-width="2"/>
<rect y="1.41763" width="10.4699" height="31.253" rx="5.23494" transform="matrix(0.705392 0.708817 -0.705392 0.708817 1577.69 340.253)" stroke="#E0F4F3" stroke-width="2"/>
</g>
<path d="M1564.13 361.174C1561.84 358.875 1558.9 357.304 1555.02 356.044C1558.91 354.777 1561.86 353.199 1564.16 350.889C1566.47 348.565 1568.06 345.57 1569.35 341.601C1570.63 345.534 1572.21 348.512 1574.5 350.825C1576.79 353.129 1579.72 354.704 1583.59 355.961C1579.69 357.24 1576.74 358.826 1574.44 361.139C1572.13 363.457 1570.55 366.436 1569.27 370.375C1568 366.448 1566.43 363.48 1564.13 361.174Z" stroke="#E0F4F3" stroke-width="2"/>
<rect x="1566.48" y="353.094" width="5.6452" height="5.68233" rx="2.8226" fill="#46958F" stroke="#E0F4F3" stroke-width="2"/>
</g>
<g opacity="0.5">
<g opacity="0.5">
<rect x="1.41078" width="10.4699" height="31.253" rx="5.23494" transform="matrix(0.705392 -0.708817 0.705392 0.708817 83.7826 260.679)" stroke="#E0F4F3" stroke-width="2"/>
<rect y="1.41763" width="10.4699" height="31.253" rx="5.23494" transform="matrix(0.705392 0.708817 -0.705392 0.708817 107.823 251.253)" stroke="#E0F4F3" stroke-width="2"/>
</g>
<path d="M94.2691 272.174C91.9784 269.875 89.0381 268.304 85.162 267.044C89.0498 265.777 91.9971 264.199 94.2976 261.889C96.6122 259.565 98.2015 256.57 99.4905 252.601C100.769 256.534 102.342 259.512 104.638 261.825C106.924 264.129 109.856 265.704 113.732 266.961C109.83 268.24 106.878 269.826 104.576 272.139C102.27 274.457 100.687 277.436 99.4052 281.375C98.141 277.448 96.5671 274.48 94.2691 272.174Z" stroke="#E0F4F3" stroke-width="2"/>
<rect x="96.6215" y="264.094" width="5.6452" height="5.68233" rx="2.8226" fill="#46958F" stroke="#E0F4F3" stroke-width="2"/>
</g>
<g opacity="0.5">
<g opacity="0.5">
<rect x="1.41078" width="10.4699" height="31.253" rx="5.23494" transform="matrix(0.705392 -0.708817 0.705392 0.708817 792.342 558.679)" stroke="#E0F4F3" stroke-width="2"/>
<rect y="1.41763" width="10.4699" height="31.253" rx="5.23494" transform="matrix(0.705392 0.708817 -0.705392 0.708817 816.383 549.253)" stroke="#E0F4F3" stroke-width="2"/>
</g>
<path d="M802.829 570.174C800.538 567.875 797.598 566.304 793.722 565.044C797.609 563.777 800.557 562.199 802.857 559.889C805.172 557.565 806.761 554.57 808.05 550.601C809.328 554.534 810.902 557.512 813.197 559.825C815.483 562.129 818.415 563.704 822.291 564.961C818.39 566.24 815.437 567.825 813.135 570.139C810.829 572.457 809.247 575.436 807.965 579.375C806.701 575.448 805.127 572.48 802.829 570.174Z" stroke="#E0F4F3" stroke-width="2"/>
<rect x="805.181" y="562.094" width="5.6452" height="5.68233" rx="2.8226" fill="#46958F" stroke="#E0F4F3" stroke-width="2"/>
</g>
<g opacity="0.5">
<g opacity="0.5">
<rect x="1.41078" width="15.3193" height="44.1848" rx="7.65965" transform="matrix(0.705392 -0.708817 0.705392 0.708817 1272.73 189.832)" stroke="#E0F4F3" stroke-width="2"/>
<rect y="1.41763" width="15.3193" height="44.1848" rx="7.65965" transform="matrix(0.705392 0.708817 -0.705392 0.708817 1305.89 176.969)" stroke="#E0F4F3" stroke-width="2"/>
</g>
<path d="M1287.18 206.462C1283.83 203.1 1279.45 200.865 1273.5 199.062C1279.46 197.249 1283.85 195.004 1287.22 191.626C1290.6 188.233 1292.86 183.779 1294.7 177.707C1296.54 183.727 1298.78 188.159 1302.13 191.538C1305.47 194.906 1309.84 197.147 1315.78 198.944C1309.8 200.775 1305.41 203.032 1302.04 206.413C1298.67 209.8 1296.42 214.234 1294.58 220.265C1292.78 214.251 1290.54 209.831 1287.18 206.462Z" stroke="#E0F4F3" stroke-width="2"/>
<rect x="1290.33" y="194.574" width="8.61834" height="8.6699" rx="4.30917" fill="#46958F" stroke="#E0F4F3" stroke-width="2"/>
</g>
<g opacity="0.5">
<g opacity="0.5">
<rect x="1.41078" width="23.1056" height="64.9483" rx="11.5528" transform="matrix(0.705392 -0.708817 0.705392 0.708817 533.826 481.5)" stroke="#E0F4F3" stroke-width="2"/>
<rect y="1.41763" width="23.1056" height="64.9483" rx="11.5528" transform="matrix(0.705392 0.708817 -0.705392 0.708817 581.635 463.118)" stroke="#E0F4F3" stroke-width="2"/>
</g>
<path d="M554.646 506.375C549.594 501.305 542.881 498.008 533.552 495.33C542.905 492.636 549.63 489.325 554.703 484.231C559.791 479.122 563.126 472.308 565.872 462.794C568.598 472.232 571.9 479.014 576.951 484.104C581.991 489.183 588.682 492.487 598.011 495.155C588.632 497.877 581.897 501.206 576.825 506.304C571.748 511.408 568.425 518.195 565.694 527.652C563.008 518.219 559.705 511.452 554.646 506.375Z" stroke="#E0F4F3" stroke-width="2"/>
<rect x="559.083" y="488.375" width="13.3921" height="13.4668" rx="6.69604" fill="#46958F" stroke="#E0F4F3" stroke-width="2"/>
</g>
<g opacity="0.5">
<g opacity="0.5">
<rect x="1.41078" width="15.3193" height="44.1848" rx="7.65965" transform="matrix(0.705392 -0.708817 0.705392 0.708817 473.965 298.832)" stroke="#E0F4F3" stroke-width="2"/>
<rect y="1.41763" width="15.3193" height="44.1848" rx="7.65965" transform="matrix(0.705392 0.708817 -0.705392 0.708817 507.128 285.969)" stroke="#E0F4F3" stroke-width="2"/>
</g>
<path d="M488.418 315.462C485.068 312.1 480.686 309.865 474.744 308.062C480.702 306.249 485.093 304.004 488.457 300.626C491.836 297.233 494.097 292.779 495.943 286.707C497.776 292.727 500.015 297.159 503.367 300.538C506.709 303.906 511.078 306.147 517.02 307.944C511.043 309.775 506.645 312.032 503.281 315.413C499.912 318.8 497.659 323.234 495.823 329.265C494.015 323.251 491.775 318.831 488.418 315.462Z" stroke="#E0F4F3" stroke-width="2"/>
<rect x="491.57" y="303.574" width="8.61834" height="8.6699" rx="4.30917" fill="#46958F" stroke="#E0F4F3" stroke-width="2"/>
</g>
<g opacity="0.5">
<g opacity="0.5">
<rect x="1.41078" width="15.3193" height="44.1848" rx="7.65965" transform="matrix(0.705392 -0.708817 0.705392 0.708817 1663.19 624.832)" stroke="#E0F4F3" stroke-width="2"/>
<rect y="1.41763" width="15.3193" height="44.1848" rx="7.65965" transform="matrix(0.705392 0.708817 -0.705392 0.708817 1696.35 611.969)" stroke="#E0F4F3" stroke-width="2"/>
</g>
<path d="M1677.64 641.462C1674.29 638.1 1669.91 635.865 1663.97 634.062C1669.93 632.249 1674.32 630.004 1677.68 626.626C1681.06 623.233 1683.32 618.779 1685.17 612.707C1687 618.727 1689.24 623.159 1692.59 626.538C1695.93 629.906 1700.3 632.147 1706.25 633.944C1700.27 635.775 1695.87 638.032 1692.51 641.413C1689.14 644.8 1686.88 649.234 1685.05 655.265C1683.24 649.251 1681 644.831 1677.64 641.462Z" stroke="#E0F4F3" stroke-width="2"/>
<rect x="1680.79" y="629.574" width="8.61834" height="8.6699" rx="4.30917" fill="#46958F" stroke="#E0F4F3" stroke-width="2"/>
</g>
<g opacity="0.5">
<g opacity="0.5">
<rect x="1.41078" width="15.3193" height="44.1848" rx="7.65965" transform="matrix(0.705392 -0.708817 0.705392 0.708817 1289.01 372.832)" stroke="#E0F4F3" stroke-width="2"/>
<rect y="1.41763" width="15.3193" height="44.1848" rx="7.65965" transform="matrix(0.705392 0.708817 -0.705392 0.708817 1322.17 359.969)" stroke="#E0F4F3" stroke-width="2"/>
</g>
<path d="M1303.46 389.462C1300.11 386.1 1295.73 383.865 1289.79 382.062C1295.75 380.249 1300.14 378.004 1303.5 374.626C1306.88 371.233 1309.14 366.779 1310.99 360.707C1312.82 366.727 1315.06 371.159 1318.41 374.538C1321.75 377.906 1326.12 380.147 1332.06 381.944C1326.09 383.775 1321.69 386.032 1318.32 389.413C1314.95 392.8 1312.7 397.234 1310.87 403.265C1309.06 397.251 1306.82 392.831 1303.46 389.462Z" stroke="#E0F4F3" stroke-width="2"/>
<rect x="1306.61" y="377.574" width="8.61834" height="8.6699" rx="4.30917" fill="#46958F" stroke="#E0F4F3" stroke-width="2"/>
</g>
<g opacity="0.5">
<g opacity="0.5">
<rect x="1.41078" width="15.3193" height="44.1848" rx="7.65965" transform="matrix(0.705392 -0.708817 0.705392 0.708817 532.68 131.832)" stroke="#E0F4F3" stroke-width="2"/>
<rect y="1.41763" width="15.3193" height="44.1848" rx="7.65965" transform="matrix(0.705392 0.708817 -0.705392 0.708817 565.842 118.969)" stroke="#E0F4F3" stroke-width="2"/>
</g>
<path d="M547.132 148.462C543.782 145.1 539.4 142.865 533.458 141.062C539.417 139.249 543.808 137.004 547.171 133.626C550.55 130.233 552.812 125.779 554.658 119.707C556.49 125.727 558.729 130.159 562.082 133.538C565.424 136.906 569.792 139.147 575.735 140.944C569.757 142.775 565.36 145.032 561.995 148.413C558.626 151.8 556.374 156.234 554.537 162.265C552.729 156.251 550.489 151.831 547.132 148.462Z" stroke="#E0F4F3" stroke-width="2"/>
<rect x="550.284" y="136.574" width="8.61834" height="8.6699" rx="4.30917" fill="#46958F" stroke="#E0F4F3" stroke-width="2"/>
</g>
<g opacity="0.5">
<g opacity="0.5">
<rect x="1.41078" width="10.4699" height="31.253" rx="5.23494" transform="matrix(0.705392 -0.708817 0.705392 0.708817 1297.25 58.6792)" stroke="#E0F4F3" stroke-width="2"/>
<rect y="1.41763" width="10.4699" height="31.253" rx="5.23494" transform="matrix(0.705392 0.708817 -0.705392 0.708817 1321.29 49.253)" stroke="#E0F4F3" stroke-width="2"/>
</g>
<path d="M1307.74 70.1738C1305.45 67.8749 1302.51 66.3043 1298.63 65.0444C1302.52 63.7771 1305.46 62.1995 1307.76 59.8893C1310.08 57.565 1311.67 54.57 1312.96 50.601C1314.24 54.5342 1315.81 57.5122 1318.11 59.8255C1320.39 62.1292 1323.32 63.7037 1327.2 64.9611C1323.3 66.24 1320.34 67.8256 1318.04 70.1392C1315.74 72.4573 1314.15 75.4363 1312.87 79.3748C1311.61 75.4485 1310.03 72.48 1307.74 70.1738Z" stroke="#E0F4F3" stroke-width="2"/>
<rect x="1310.09" y="62.0936" width="5.6452" height="5.68233" rx="2.8226" fill="#46958F" stroke="#E0F4F3" stroke-width="2"/>
</g>
<g opacity="0.5">
<g opacity="0.5">
<rect x="1.41078" width="10.4699" height="31.253" rx="5.23494" transform="matrix(0.705392 -0.708817 0.705392 0.708817 569.783 230.679)" stroke="#E0F4F3" stroke-width="2"/>
<rect y="1.41763" width="10.4699" height="31.253" rx="5.23494" transform="matrix(0.705392 0.708817 -0.705392 0.708817 593.823 221.253)" stroke="#E0F4F3" stroke-width="2"/>
</g>
<path d="M580.269 242.174C577.978 239.875 575.038 238.304 571.162 237.044C575.05 235.777 577.997 234.199 580.298 231.889C582.612 229.565 584.202 226.57 585.491 222.601C586.769 226.534 588.342 229.512 590.638 231.825C592.924 234.129 595.856 235.704 599.732 236.961C595.83 238.24 592.878 239.826 590.576 242.139C588.27 244.457 586.687 247.436 585.405 251.375C584.141 247.448 582.567 244.48 580.269 242.174Z" stroke="#E0F4F3" stroke-width="2"/>
<rect x="582.621" y="234.094" width="5.6452" height="5.68233" rx="2.8226" fill="#46958F" stroke="#E0F4F3" stroke-width="2"/>
</g>
<g opacity="0.5">
<g opacity="0.5">
<rect x="1.41078" width="10.4699" height="31.253" rx="5.23494" transform="matrix(0.705392 -0.708817 0.705392 0.708817 1278.34 528.679)" stroke="#E0F4F3" stroke-width="2"/>
<rect y="1.41763" width="10.4699" height="31.253" rx="5.23494" transform="matrix(0.705392 0.708817 -0.705392 0.708817 1302.38 519.253)" stroke="#E0F4F3" stroke-width="2"/>
</g>
<path d="M1288.83 540.174C1286.54 537.875 1283.6 536.304 1279.72 535.044C1283.61 533.777 1286.56 532.199 1288.86 529.889C1291.17 527.565 1292.76 524.57 1294.05 520.601C1295.33 524.534 1296.9 527.512 1299.2 529.825C1301.48 532.129 1304.42 533.704 1308.29 534.961C1304.39 536.24 1301.44 537.825 1299.14 540.139C1296.83 542.457 1295.25 545.436 1293.96 549.375C1292.7 545.448 1291.13 542.48 1288.83 540.174Z" stroke="#E0F4F3" stroke-width="2"/>
<rect x="1291.18" y="532.094" width="5.6452" height="5.68233" rx="2.8226" fill="#46958F" stroke="#E0F4F3" stroke-width="2"/>
</g>
<g opacity="0.5">
<g opacity="0.5">
<rect x="1.41078" width="15.3193" height="44.1848" rx="7.65965" transform="matrix(0.705392 -0.708817 0.705392 0.708817 1758.73 159.832)" stroke="#E0F4F3" stroke-width="2"/>
<rect y="1.41763" width="15.3193" height="44.1848" rx="7.65965" transform="matrix(0.705392 0.708817 -0.705392 0.708817 1791.89 146.969)" stroke="#E0F4F3" stroke-width="2"/>
</g>
<path d="M1773.18 176.462C1769.83 173.1 1765.45 170.865 1759.5 169.062C1765.46 167.249 1769.85 165.004 1773.22 161.626C1776.6 158.233 1778.86 153.779 1780.7 147.707C1782.54 153.727 1784.78 158.159 1788.13 161.538C1791.47 164.906 1795.84 167.147 1801.78 168.944C1795.8 170.775 1791.41 173.032 1788.04 176.413C1784.67 179.8 1782.42 184.234 1780.58 190.265C1778.78 184.251 1776.54 179.831 1773.18 176.462Z" stroke="#E0F4F3" stroke-width="2"/>
<rect x="1776.33" y="164.574" width="8.61834" height="8.6699" rx="4.30917" fill="#46958F" stroke="#E0F4F3" stroke-width="2"/>
</g>
<g opacity="0.5">
<g opacity="0.5">
<rect x="1.41078" width="23.1056" height="64.9483" rx="11.5528" transform="matrix(0.705392 -0.708817 0.705392 0.708817 1183.83 495.5)" stroke="#E0F4F3" stroke-width="2"/>
<rect y="1.41763" width="23.1056" height="64.9483" rx="11.5528" transform="matrix(0.705392 0.708817 -0.705392 0.708817 1231.64 477.118)" stroke="#E0F4F3" stroke-width="2"/>
</g>
<path d="M1204.65 520.375C1199.59 515.305 1192.88 512.008 1183.55 509.33C1192.9 506.636 1199.63 503.325 1204.7 498.231C1209.79 493.122 1213.13 486.308 1215.87 476.794C1218.6 486.232 1221.9 493.014 1226.95 498.104C1231.99 503.183 1238.68 506.487 1248.01 509.155C1238.63 511.877 1231.9 515.206 1226.83 520.304C1221.75 525.408 1218.43 532.195 1215.69 541.652C1213.01 532.219 1209.71 525.452 1204.65 520.375Z" stroke="#E0F4F3" stroke-width="2"/>
<rect x="1209.08" y="502.375" width="13.3921" height="13.4668" rx="6.69604" fill="#46958F" stroke="#E0F4F3" stroke-width="2"/>
</g>
<g opacity="0.5">
<g opacity="0.5">
<rect x="1.41078" width="15.3193" height="44.1848" rx="7.65965" transform="matrix(0.705392 -0.708817 0.705392 0.708817 1123.97 312.832)" stroke="#E0F4F3" stroke-width="2"/>
<rect y="1.41763" width="15.3193" height="44.1848" rx="7.65965" transform="matrix(0.705392 0.708817 -0.705392 0.708817 1157.13 299.969)" stroke="#E0F4F3" stroke-width="2"/>
</g>
<path d="M1138.42 329.462C1135.07 326.1 1130.69 323.865 1124.74 322.062C1130.7 320.249 1135.09 318.004 1138.46 314.626C1141.84 311.233 1144.1 306.779 1145.94 300.707C1147.78 306.727 1150.01 311.159 1153.37 314.538C1156.71 317.906 1161.08 320.147 1167.02 321.944C1161.04 323.775 1156.65 326.032 1153.28 329.413C1149.91 332.8 1147.66 337.234 1145.82 343.265C1144.01 337.251 1141.77 332.831 1138.42 329.462Z" stroke="#E0F4F3" stroke-width="2"/>
<rect x="1141.57" y="317.574" width="8.61834" height="8.6699" rx="4.30917" fill="#46958F" stroke="#E0F4F3" stroke-width="2"/>
</g>
<g opacity="0.5">
<g opacity="0.5">
<rect x="1.41078" width="15.3193" height="44.1848" rx="7.65965" transform="matrix(0.705392 -0.708817 0.705392 0.708817 1182.68 145.832)" stroke="#E0F4F3" stroke-width="2"/>
<rect y="1.41763" width="15.3193" height="44.1848" rx="7.65965" transform="matrix(0.705392 0.708817 -0.705392 0.708817 1215.84 132.969)" stroke="#E0F4F3" stroke-width="2"/>
</g>
<path d="M1197.13 162.462C1193.78 159.1 1189.4 156.865 1183.46 155.062C1189.42 153.249 1193.81 151.004 1197.17 147.626C1200.55 144.233 1202.81 139.779 1204.66 133.707C1206.49 139.727 1208.73 144.159 1212.08 147.538C1215.42 150.906 1219.79 153.147 1225.73 154.944C1219.76 156.775 1215.36 159.032 1212 162.413C1208.63 165.8 1206.37 170.234 1204.54 176.265C1202.73 170.251 1200.49 165.831 1197.13 162.462Z" stroke="#E0F4F3" stroke-width="2"/>
<rect x="1200.28" y="150.574" width="8.61834" height="8.6699" rx="4.30917" fill="#46958F" stroke="#E0F4F3" stroke-width="2"/>
</g>
<g opacity="0.5">
<g opacity="0.5">
<rect x="1.41078" width="10.4699" height="31.253" rx="5.23494" transform="matrix(0.705392 -0.708817 0.705392 0.708817 1219.78 244.679)" stroke="#E0F4F3" stroke-width="2"/>
<rect y="1.41763" width="10.4699" height="31.253" rx="5.23494" transform="matrix(0.705392 0.708817 -0.705392 0.708817 1243.82 235.253)" stroke="#E0F4F3" stroke-width="2"/>
</g>
<path d="M1230.27 256.174C1227.98 253.875 1225.04 252.304 1221.16 251.044C1225.05 249.777 1228 248.199 1230.3 245.889C1232.61 243.565 1234.2 240.57 1235.49 236.601C1236.77 240.534 1238.34 243.512 1240.64 245.825C1242.92 248.129 1245.86 249.704 1249.73 250.961C1245.83 252.24 1242.88 253.826 1240.58 256.139C1238.27 258.457 1236.69 261.436 1235.41 265.375C1234.14 261.448 1232.57 258.48 1230.27 256.174Z" stroke="#E0F4F3" stroke-width="2"/>
<rect x="1232.62" y="248.094" width="5.6452" height="5.68233" rx="2.8226" fill="#46958F" stroke="#E0F4F3" stroke-width="2"/>
</g>
<g opacity="0.5">
<g opacity="0.5">
<rect x="1.41078" width="23.1056" height="64.9483" rx="11.5528" transform="matrix(0.705392 -0.708817 0.705392 0.708817 1231.98 839.5)" stroke="#E0F4F3" stroke-width="2"/>
<rect y="1.41763" width="23.1056" height="64.9483" rx="11.5528" transform="matrix(0.705392 0.708817 -0.705392 0.708817 1279.79 821.118)" stroke="#E0F4F3" stroke-width="2"/>
</g>
<path d="M1252.8 864.375C1247.75 859.305 1241.04 856.008 1231.71 853.33C1241.06 850.636 1247.79 847.325 1252.86 842.231C1257.95 837.122 1261.28 830.308 1264.03 820.794C1266.76 830.232 1270.06 837.014 1275.11 842.104C1280.15 847.183 1286.84 850.487 1296.17 853.155C1286.79 855.877 1280.05 859.206 1274.98 864.304C1269.91 869.408 1266.58 876.195 1263.85 885.652C1261.17 876.219 1257.86 869.452 1252.8 864.375Z" stroke="#E0F4F3" stroke-width="2"/>
<rect x="1257.24" y="846.375" width="13.3921" height="13.4668" rx="6.69604" fill="#46958F" stroke="#E0F4F3" stroke-width="2"/>
</g>
<g opacity="0.5">
<g opacity="0.5">
<rect x="1.41078" width="15.3193" height="44.1848" rx="7.65965" transform="matrix(0.705392 -0.708817 0.705392 0.708817 1246.76 1016.83)" stroke="#E0F4F3" stroke-width="2"/>
<rect y="1.41763" width="15.3193" height="44.1848" rx="7.65965" transform="matrix(0.705392 0.708817 -0.705392 0.708817 1279.92 1003.97)" stroke="#E0F4F3" stroke-width="2"/>
</g>
<path d="M1261.21 1033.46C1257.86 1030.1 1253.48 1027.86 1247.54 1026.06C1253.5 1024.25 1257.89 1022 1261.25 1018.63C1264.63 1015.23 1266.89 1010.78 1268.74 1004.71C1270.57 1010.73 1272.81 1015.16 1276.16 1018.54C1279.5 1021.91 1283.87 1024.15 1289.81 1025.94C1283.84 1027.77 1279.44 1030.03 1276.07 1033.41C1272.71 1036.8 1270.45 1041.23 1268.62 1047.26C1266.81 1041.25 1264.57 1036.83 1261.21 1033.46Z" stroke="#E0F4F3" stroke-width="2"/>
<rect x="1264.36" y="1021.57" width="8.61834" height="8.6699" rx="4.30917" fill="#46958F" stroke="#E0F4F3" stroke-width="2"/>
</g>
<g opacity="0.5">
<g opacity="0.5">
<rect x="1.41078" width="15.3193" height="44.1848" rx="7.65965" transform="matrix(0.705392 -0.708817 0.705392 0.708817 540.19 1456.83)" stroke="#E0F4F3" stroke-width="2"/>
<rect y="1.41763" width="15.3193" height="44.1848" rx="7.65965" transform="matrix(0.705392 0.708817 -0.705392 0.708817 573.353 1443.97)" stroke="#E0F4F3" stroke-width="2"/>
</g>
<path d="M554.643 1473.46C551.293 1470.1 546.911 1467.86 540.969 1466.06C546.928 1464.25 551.318 1462 554.682 1458.63C558.061 1455.23 560.322 1450.78 562.169 1444.71C564.001 1450.73 566.24 1455.16 569.592 1458.54C572.935 1461.91 577.303 1464.15 583.245 1465.94C577.268 1467.77 572.87 1470.03 569.506 1473.41C566.137 1476.8 563.884 1481.23 562.048 1487.26C560.24 1481.25 558 1476.83 554.643 1473.46Z" stroke="#E0F4F3" stroke-width="2"/>
<rect x="557.795" y="1461.57" width="8.61834" height="8.6699" rx="4.30917" fill="#46958F" stroke="#E0F4F3" stroke-width="2"/>
</g>
<g opacity="0.5">
<g opacity="0.5">
<rect x="1.41078" width="15.3193" height="44.1848" rx="7.65965" transform="matrix(0.705392 -0.708817 0.705392 0.708817 166.008 1204.83)" stroke="#E0F4F3" stroke-width="2"/>
<rect y="1.41763" width="15.3193" height="44.1848" rx="7.65965" transform="matrix(0.705392 0.708817 -0.705392 0.708817 199.17 1191.97)" stroke="#E0F4F3" stroke-width="2"/>
</g>
<path d="M180.46 1221.46C177.11 1218.1 172.728 1215.86 166.786 1214.06C172.745 1212.25 177.136 1210 180.5 1206.63C183.878 1203.23 186.14 1198.78 187.986 1192.71C189.818 1198.73 192.057 1203.16 195.41 1206.54C198.752 1209.91 203.12 1212.15 209.063 1213.94C203.085 1215.77 198.688 1218.03 195.323 1221.41C191.954 1224.8 189.702 1229.23 187.865 1235.26C186.057 1229.25 183.817 1224.83 180.46 1221.46Z" stroke="#E0F4F3" stroke-width="2"/>
<rect x="183.612" y="1209.57" width="8.61834" height="8.6699" rx="4.30917" fill="#46958F" stroke="#E0F4F3" stroke-width="2"/>
</g>
<g opacity="0.5">
<g opacity="0.5">
<rect x="1.41078" width="10.4699" height="31.253" rx="5.23494" transform="matrix(0.705392 -0.708817 0.705392 0.708817 174.25 890.679)" stroke="#E0F4F3" stroke-width="2"/>
<rect y="1.41763" width="10.4699" height="31.253" rx="5.23494" transform="matrix(0.705392 0.708817 -0.705392 0.708817 198.291 881.253)" stroke="#E0F4F3" stroke-width="2"/>
</g>
<path d="M184.737 902.174C182.446 899.875 179.505 898.304 175.629 897.044C179.517 895.777 182.464 894.199 184.765 891.889C187.08 889.565 188.669 886.57 189.958 882.601C191.236 886.534 192.81 889.512 195.105 891.825C197.391 894.129 200.323 895.704 204.199 896.961C200.298 898.24 197.345 899.825 195.043 902.139C192.737 904.457 191.154 907.436 189.873 911.375C188.608 907.448 187.035 904.48 184.737 902.174Z" stroke="#E0F4F3" stroke-width="2"/>
<rect x="187.089" y="894.094" width="5.6452" height="5.68233" rx="2.8226" fill="#46958F" stroke="#E0F4F3" stroke-width="2"/>
</g>
<g opacity="0.5">
<g opacity="0.5">
<rect x="1.41078" width="10.4699" height="31.253" rx="5.23494" transform="matrix(0.705392 -0.708817 0.705392 0.708817 916.645 1151.68)" stroke="#E0F4F3" stroke-width="2"/>
<rect y="1.41763" width="10.4699" height="31.253" rx="5.23494" transform="matrix(0.705392 0.708817 -0.705392 0.708817 940.686 1142.25)" stroke="#E0F4F3" stroke-width="2"/>
</g>
<path d="M927.132 1163.17C924.841 1160.87 921.901 1159.3 918.025 1158.04C921.912 1156.78 924.86 1155.2 927.16 1152.89C929.475 1150.56 931.064 1147.57 932.353 1143.6C933.632 1147.53 935.205 1150.51 937.5 1152.83C939.786 1155.13 942.718 1156.7 946.594 1157.96C942.693 1159.24 939.74 1160.83 937.438 1163.14C935.132 1165.46 933.55 1168.44 932.268 1172.37C931.004 1168.45 929.43 1165.48 927.132 1163.17Z" stroke="#E0F4F3" stroke-width="2"/>
<rect x="929.484" y="1155.09" width="5.6452" height="5.68233" rx="2.8226" fill="#46958F" stroke="#E0F4F3" stroke-width="2"/>
</g>
<g opacity="0.5">
<g opacity="0.5">
<rect x="1.41078" width="10.4699" height="31.253" rx="5.23494" transform="matrix(0.705392 -0.708817 0.705392 0.708817 155.342 1360.68)" stroke="#E0F4F3" stroke-width="2"/>
<rect y="1.41763" width="10.4699" height="31.253" rx="5.23494" transform="matrix(0.705392 0.708817 -0.705392 0.708817 179.383 1351.25)" stroke="#E0F4F3" stroke-width="2"/>
</g>
<path d="M165.829 1372.17C163.538 1369.87 160.598 1368.3 156.721 1367.04C160.609 1365.78 163.557 1364.2 165.857 1361.89C168.172 1359.56 169.761 1356.57 171.05 1352.6C172.328 1356.53 173.902 1359.51 176.197 1361.83C178.483 1364.13 181.415 1365.7 185.291 1366.96C181.39 1368.24 178.437 1369.83 176.135 1372.14C173.829 1374.46 172.246 1377.44 170.965 1381.37C169.7 1377.45 168.127 1374.48 165.829 1372.17Z" stroke="#E0F4F3" stroke-width="2"/>
<rect x="168.181" y="1364.09" width="5.6452" height="5.68233" rx="2.8226" fill="#46958F" stroke="#E0F4F3" stroke-width="2"/>
</g>
<g opacity="0.5">
<g opacity="0.5">
<rect x="1.41078" width="15.3193" height="44.1848" rx="7.65965" transform="matrix(0.705392 -0.708817 0.705392 0.708817 635.727 991.832)" stroke="#E0F4F3" stroke-width="2"/>
<rect y="1.41763" width="15.3193" height="44.1848" rx="7.65965" transform="matrix(0.705392 0.708817 -0.705392 0.708817 668.889 978.969)" stroke="#E0F4F3" stroke-width="2"/>
</g>
<path d="M650.179 1008.46C646.829 1005.1 642.447 1002.86 636.505 1001.06C642.464 999.249 646.855 997.004 650.218 993.626C653.597 990.233 655.858 985.779 657.705 979.707C659.537 985.727 661.776 990.159 665.129 993.538C668.471 996.906 672.839 999.147 678.781 1000.94C672.804 1002.77 668.406 1005.03 665.042 1008.41C661.673 1011.8 659.42 1016.23 657.584 1022.26C655.776 1016.25 653.536 1011.83 650.179 1008.46Z" stroke="#E0F4F3" stroke-width="2"/>
<rect x="653.331" y="996.574" width="8.61834" height="8.6699" rx="4.30917" fill="#46958F" stroke="#E0F4F3" stroke-width="2"/>
</g>
<g opacity="0.5">
<g opacity="0.5">
<rect x="1.41078" width="23.1056" height="64.9483" rx="11.5528" transform="matrix(0.705392 -0.708817 0.705392 0.708817 1529.98 1343.5)" stroke="#E0F4F3" stroke-width="2"/>
<rect y="1.41763" width="23.1056" height="64.9483" rx="11.5528" transform="matrix(0.705392 0.708817 -0.705392 0.708817 1577.79 1325.12)" stroke="#E0F4F3" stroke-width="2"/>
</g>
<path d="M1550.8 1368.37C1545.75 1363.3 1539.04 1360.01 1529.71 1357.33C1539.06 1354.64 1545.79 1351.33 1550.86 1346.23C1555.95 1341.12 1559.28 1334.31 1562.03 1324.79C1564.76 1334.23 1568.06 1341.01 1573.11 1346.1C1578.15 1351.18 1584.84 1354.49 1594.17 1357.16C1584.79 1359.88 1578.05 1363.21 1572.98 1368.3C1567.91 1373.41 1564.58 1380.2 1561.85 1389.65C1559.17 1380.22 1555.86 1373.45 1550.8 1368.37Z" stroke="#E0F4F3" stroke-width="2"/>
<rect x="1555.24" y="1350.37" width="13.3921" height="13.4668" rx="6.69604" fill="#46958F" stroke="#E0F4F3" stroke-width="2"/>
</g>
<g opacity="0.5">
<g opacity="0.5">
<rect x="1.41078" width="15.3193" height="44.1848" rx="7.65965" transform="matrix(0.705392 -0.708817 0.705392 0.708817 1544.76 1520.83)" stroke="#E0F4F3" stroke-width="2"/>
<rect y="1.41763" width="15.3193" height="44.1848" rx="7.65965" transform="matrix(0.705392 0.708817 -0.705392 0.708817 1577.92 1507.97)" stroke="#E0F4F3" stroke-width="2"/>
</g>
<path d="M1559.21 1537.46C1555.86 1534.1 1551.48 1531.86 1545.54 1530.06C1551.5 1528.25 1555.89 1526 1559.25 1522.63C1562.63 1519.23 1564.89 1514.78 1566.74 1508.71C1568.57 1514.73 1570.81 1519.16 1574.16 1522.54C1577.5 1525.91 1581.87 1528.15 1587.81 1529.94C1581.84 1531.77 1577.44 1534.03 1574.07 1537.41C1570.71 1540.8 1568.45 1545.23 1566.62 1551.26C1564.81 1545.25 1562.57 1540.83 1559.21 1537.46Z" stroke="#E0F4F3" stroke-width="2"/>
<rect x="1562.36" y="1525.57" width="8.61834" height="8.6699" rx="4.30917" fill="#46958F" stroke="#E0F4F3" stroke-width="2"/>
</g>
<g opacity="0.5">
<g opacity="0.5">
<rect x="1.41078" width="15.3193" height="44.1848" rx="7.65965" transform="matrix(0.705392 -0.708817 0.705392 0.708817 838.19 1960.83)" stroke="#E0F4F3" stroke-width="2"/>
<rect y="1.41763" width="15.3193" height="44.1848" rx="7.65965" transform="matrix(0.705392 0.708817 -0.705392 0.708817 871.353 1947.97)" stroke="#E0F4F3" stroke-width="2"/>
</g>
<path d="M852.643 1977.46C849.293 1974.1 844.911 1971.86 838.969 1970.06C844.928 1968.25 849.318 1966 852.682 1962.63C856.061 1959.23 858.322 1954.78 860.169 1948.71C862.001 1954.73 864.24 1959.16 867.592 1962.54C870.935 1965.91 875.303 1968.15 881.245 1969.94C875.268 1971.77 870.87 1974.03 867.506 1977.41C864.137 1980.8 861.884 1985.23 860.048 1991.26C858.24 1985.25 856 1980.83 852.643 1977.46Z" stroke="#E0F4F3" stroke-width="2"/>
<rect x="855.795" y="1965.57" width="8.61834" height="8.6699" rx="4.30917" fill="#46958F" stroke="#E0F4F3" stroke-width="2"/>
</g>
<g opacity="0.5">
<g opacity="0.5">
<rect x="1.41078" width="15.3193" height="44.1848" rx="7.65965" transform="matrix(0.705392 -0.708817 0.705392 0.708817 464.008 1708.83)" stroke="#E0F4F3" stroke-width="2"/>
<rect y="1.41763" width="15.3193" height="44.1848" rx="7.65965" transform="matrix(0.705392 0.708817 -0.705392 0.708817 497.17 1695.97)" stroke="#E0F4F3" stroke-width="2"/>
</g>
<path d="M478.46 1725.46C475.11 1722.1 470.728 1719.86 464.786 1718.06C470.745 1716.25 475.136 1714 478.5 1710.63C481.878 1707.23 484.14 1702.78 485.986 1696.71C487.818 1702.73 490.057 1707.16 493.41 1710.54C496.752 1713.91 501.12 1716.15 507.063 1717.94C501.085 1719.77 496.688 1722.03 493.323 1725.41C489.954 1728.8 487.702 1733.23 485.865 1739.26C484.057 1733.25 481.817 1728.83 478.46 1725.46Z" stroke="#E0F4F3" stroke-width="2"/>
<rect x="481.612" y="1713.57" width="8.61834" height="8.6699" rx="4.30917" fill="#46958F" stroke="#E0F4F3" stroke-width="2"/>
</g>
<g opacity="0.5">
<g opacity="0.5">
<rect x="1.41078" width="10.4699" height="31.253" rx="5.23494" transform="matrix(0.705392 -0.708817 0.705392 0.708817 472.25 1394.68)" stroke="#E0F4F3" stroke-width="2"/>
<rect y="1.41763" width="10.4699" height="31.253" rx="5.23494" transform="matrix(0.705392 0.708817 -0.705392 0.708817 496.291 1385.25)" stroke="#E0F4F3" stroke-width="2"/>
</g>
<path d="M482.737 1406.17C480.446 1403.87 477.505 1402.3 473.629 1401.04C477.517 1399.78 480.464 1398.2 482.765 1395.89C485.08 1393.56 486.669 1390.57 487.958 1386.6C489.236 1390.53 490.81 1393.51 493.105 1395.83C495.391 1398.13 498.323 1399.7 502.199 1400.96C498.298 1402.24 495.345 1403.83 493.043 1406.14C490.737 1408.46 489.154 1411.44 487.873 1415.37C486.608 1411.45 485.035 1408.48 482.737 1406.17Z" stroke="#E0F4F3" stroke-width="2"/>
<rect x="485.089" y="1398.09" width="5.6452" height="5.68233" rx="2.8226" fill="#46958F" stroke="#E0F4F3" stroke-width="2"/>
</g>
<g opacity="0.5">
<g opacity="0.5">
<rect x="1.41078" width="10.4699" height="31.253" rx="5.23494" transform="matrix(0.705392 -0.708817 0.705392 0.708817 1214.65 1655.68)" stroke="#E0F4F3" stroke-width="2"/>
<rect y="1.41763" width="10.4699" height="31.253" rx="5.23494" transform="matrix(0.705392 0.708817 -0.705392 0.708817 1238.69 1646.25)" stroke="#E0F4F3" stroke-width="2"/>
</g>
<path d="M1225.13 1667.17C1222.84 1664.87 1219.9 1663.3 1216.02 1662.04C1219.91 1660.78 1222.86 1659.2 1225.16 1656.89C1227.47 1654.56 1229.06 1651.57 1230.35 1647.6C1231.63 1651.53 1233.21 1654.51 1235.5 1656.83C1237.79 1659.13 1240.72 1660.7 1244.59 1661.96C1240.69 1663.24 1237.74 1664.83 1235.44 1667.14C1233.13 1669.46 1231.55 1672.44 1230.27 1676.37C1229 1672.45 1227.43 1669.48 1225.13 1667.17Z" stroke="#E0F4F3" stroke-width="2"/>
<rect x="1227.48" y="1659.09" width="5.6452" height="5.68233" rx="2.8226" fill="#46958F" stroke="#E0F4F3" stroke-width="2"/>
</g>
<g opacity="0.5">
<g opacity="0.5">
<rect x="1.41078" width="10.4699" height="31.253" rx="5.23494" transform="matrix(0.705392 -0.708817 0.705392 0.708817 453.342 1864.68)" stroke="#E0F4F3" stroke-width="2"/>
<rect y="1.41763" width="10.4699" height="31.253" rx="5.23494" transform="matrix(0.705392 0.708817 -0.705392 0.708817 477.383 1855.25)" stroke="#E0F4F3" stroke-width="2"/>
</g>
<path d="M463.829 1876.17C461.538 1873.87 458.598 1872.3 454.721 1871.04C458.609 1869.78 461.557 1868.2 463.857 1865.89C466.172 1863.56 467.761 1860.57 469.05 1856.6C470.328 1860.53 471.902 1863.51 474.197 1865.83C476.483 1868.13 479.415 1869.7 483.291 1870.96C479.39 1872.24 476.437 1873.83 474.135 1876.14C471.829 1878.46 470.246 1881.44 468.965 1885.37C467.7 1881.45 466.127 1878.48 463.829 1876.17Z" stroke="#E0F4F3" stroke-width="2"/>
<rect x="466.181" y="1868.09" width="5.6452" height="5.68233" rx="2.8226" fill="#46958F" stroke="#E0F4F3" stroke-width="2"/>
</g>
<g opacity="0.5">
<g opacity="0.5">
<rect x="1.41078" width="15.3193" height="44.1848" rx="7.65965" transform="matrix(0.705392 -0.708817 0.705392 0.708817 933.727 1495.83)" stroke="#E0F4F3" stroke-width="2"/>
<rect y="1.41763" width="15.3193" height="44.1848" rx="7.65965" transform="matrix(0.705392 0.708817 -0.705392 0.708817 966.889 1482.97)" stroke="#E0F4F3" stroke-width="2"/>
</g>
<path d="M948.179 1512.46C944.829 1509.1 940.447 1506.86 934.505 1505.06C940.464 1503.25 944.855 1501 948.218 1497.63C951.597 1494.23 953.858 1489.78 955.705 1483.71C957.537 1489.73 959.776 1494.16 963.129 1497.54C966.471 1500.91 970.839 1503.15 976.781 1504.94C970.804 1506.77 966.406 1509.03 963.042 1512.41C959.673 1515.8 957.42 1520.23 955.584 1526.26C953.776 1520.25 951.536 1515.83 948.179 1512.46Z" stroke="#E0F4F3" stroke-width="2"/>
<rect x="951.331" y="1500.57" width="8.61834" height="8.6699" rx="4.30917" fill="#46958F" stroke="#E0F4F3" stroke-width="2"/>
</g>
<g opacity="0.5">
<g opacity="0.5">
<rect x="1.41078" width="23.1056" height="64.9483" rx="11.5528" transform="matrix(0.705392 -0.708817 0.705392 0.708817 84.826 1032.5)" stroke="#E0F4F3" stroke-width="2"/>
<rect y="1.41763" width="23.1056" height="64.9483" rx="11.5528" transform="matrix(0.705392 0.708817 -0.705392 0.708817 132.635 1014.12)" stroke="#E0F4F3" stroke-width="2"/>
</g>
<path d="M105.646 1057.37C100.594 1052.3 93.8805 1049.01 84.5518 1046.33C93.9047 1043.64 100.63 1040.33 105.703 1035.23C110.791 1030.12 114.126 1023.31 116.872 1013.79C119.598 1023.23 122.9 1030.01 127.951 1035.1C132.991 1040.18 139.682 1043.49 149.011 1046.16C139.632 1048.88 132.897 1052.21 127.825 1057.3C122.748 1062.41 119.425 1069.2 116.694 1078.65C114.008 1069.22 110.705 1062.45 105.646 1057.37Z" stroke="#E0F4F3" stroke-width="2"/>
<rect x="110.083" y="1039.37" width="13.3921" height="13.4668" rx="6.69604" fill="#46958F" stroke="#E0F4F3" stroke-width="2"/>
</g>
<g opacity="0.5">
<g opacity="0.5">
<rect x="1.41078" width="23.1056" height="64.9483" rx="11.5528" transform="matrix(0.705392 -0.708817 0.705392 0.708817 1905.98 558.5)" stroke="#E0F4F3" stroke-width="2"/>
<rect y="1.41763" width="23.1056" height="64.9483" rx="11.5528" transform="matrix(0.705392 0.708817 -0.705392 0.708817 1953.79 540.118)" stroke="#E0F4F3" stroke-width="2"/>
</g>
<path d="M1926.8 583.375C1921.75 578.305 1915.04 575.008 1905.71 572.33C1915.06 569.636 1921.79 566.325 1926.86 561.231C1931.95 556.122 1935.28 549.308 1938.03 539.794C1940.76 549.232 1944.06 556.014 1949.11 561.104C1954.15 566.183 1960.84 569.487 1970.17 572.155C1960.79 574.877 1954.05 578.206 1948.98 583.304C1943.91 588.408 1940.58 595.195 1937.85 604.652C1935.17 595.219 1931.86 588.452 1926.8 583.375Z" stroke="#E0F4F3" stroke-width="2"/>
</g>
<g opacity="0.5">
<g opacity="0.5">
<rect x="1.41078" width="15.3193" height="44.1848" rx="7.65965" transform="matrix(0.705392 -0.708817 0.705392 0.708817 24.9653 849.832)" stroke="#E0F4F3" stroke-width="2"/>
<rect y="1.41763" width="15.3193" height="44.1848" rx="7.65965" transform="matrix(0.705392 0.708817 -0.705392 0.708817 58.1279 836.969)" stroke="#E0F4F3" stroke-width="2"/>
</g>
<path d="M39.4175 866.462C36.0678 863.1 31.686 860.865 25.7437 859.062C31.7025 857.249 36.0934 855.004 39.457 851.626C42.8356 848.233 45.0971 843.779 46.9434 837.707C48.7759 843.727 51.015 848.159 54.3674 851.538C57.7094 854.906 62.0777 857.147 68.0201 858.944C62.0429 860.775 57.6451 863.032 54.2809 866.413C50.9117 869.8 48.6593 874.234 46.8229 880.265C45.0146 874.251 42.7749 869.831 39.4175 866.462Z" stroke="#E0F4F3" stroke-width="2"/>
<rect x="42.5698" y="854.574" width="8.61834" height="8.6699" rx="4.30917" fill="#46958F" stroke="#E0F4F3" stroke-width="2"/>
</g>
<g opacity="0.5">
<path d="M1935.21 752.462C1931.86 749.1 1927.48 746.865 1921.54 745.062C1927.5 743.249 1931.89 741.004 1935.25 737.626C1938.63 734.233 1940.89 729.779 1942.74 723.707C1944.57 729.727 1946.81 734.159 1950.16 737.538C1953.5 740.906 1957.87 743.147 1963.81 744.944C1957.84 746.775 1953.44 749.032 1950.07 752.413C1946.71 755.8 1944.45 760.234 1942.62 766.265C1940.81 760.251 1938.57 755.831 1935.21 752.462Z" stroke="#E0F4F3" stroke-width="2"/>
</g>
<g opacity="0.5">
<g opacity="0.5">
<rect x="1.41078" width="15.3193" height="44.1848" rx="7.65965" transform="matrix(0.705392 -0.708817 0.705392 0.708817 1214.19 1175.83)" stroke="#E0F4F3" stroke-width="2"/>
<rect y="1.41763" width="15.3193" height="44.1848" rx="7.65965" transform="matrix(0.705392 0.708817 -0.705392 0.708817 1247.35 1162.97)" stroke="#E0F4F3" stroke-width="2"/>
</g>
<path d="M1228.64 1192.46C1225.29 1189.1 1220.91 1186.86 1214.97 1185.06C1220.93 1183.25 1225.32 1181 1228.68 1177.63C1232.06 1174.23 1234.32 1169.78 1236.17 1163.71C1238 1169.73 1240.24 1174.16 1243.59 1177.54C1246.93 1180.91 1251.3 1183.15 1257.25 1184.94C1251.27 1186.77 1246.87 1189.03 1243.51 1192.41C1240.14 1195.8 1237.88 1200.23 1236.05 1206.26C1234.24 1200.25 1232 1195.83 1228.64 1192.46Z" stroke="#E0F4F3" stroke-width="2"/>
<rect x="1231.79" y="1180.57" width="8.61834" height="8.6699" rx="4.30917" fill="#46958F" stroke="#E0F4F3" stroke-width="2"/>
</g>
<g opacity="0.5">
<g opacity="0.5">
<rect x="1.41078" width="15.3193" height="44.1848" rx="7.65965" transform="matrix(0.705392 -0.708817 0.705392 0.708817 840.008 923.832)" stroke="#E0F4F3" stroke-width="2"/>
<rect y="1.41763" width="15.3193" height="44.1848" rx="7.65965" transform="matrix(0.705392 0.708817 -0.705392 0.708817 873.17 910.969)" stroke="#E0F4F3" stroke-width="2"/>
</g>
<path d="M854.46 940.462C851.11 937.1 846.729 934.865 840.786 933.062C846.745 931.249 851.136 929.004 854.5 925.626C857.878 922.233 860.14 917.779 861.986 911.707C863.818 917.727 866.058 922.159 869.41 925.538C872.752 928.906 877.12 931.147 883.063 932.944C877.085 934.775 872.688 937.032 869.323 940.413C865.954 943.8 863.702 948.234 861.865 954.265C860.057 948.251 857.817 943.831 854.46 940.462Z" stroke="#E0F4F3" stroke-width="2"/>
<rect x="857.612" y="928.574" width="8.61834" height="8.6699" rx="4.30917" fill="#46958F" stroke="#E0F4F3" stroke-width="2"/>
</g>
<g opacity="0.5">
<g opacity="0.5">
<rect x="1.41078" width="15.3193" height="44.1848" rx="7.65965" transform="matrix(0.705392 -0.708817 0.705392 0.708817 83.6798 682.832)" stroke="#E0F4F3" stroke-width="2"/>
<rect y="1.41763" width="15.3193" height="44.1848" rx="7.65965" transform="matrix(0.705392 0.708817 -0.705392 0.708817 116.842 669.969)" stroke="#E0F4F3" stroke-width="2"/>
</g>
<path d="M98.132 699.462C94.7823 696.1 90.4005 693.865 84.4582 692.062C90.4169 690.249 94.8078 688.004 98.1715 684.626C101.55 681.233 103.812 676.779 105.658 670.707C107.49 676.727 109.729 681.159 113.082 684.538C116.424 687.906 120.792 690.147 126.735 691.944C120.757 693.775 116.36 696.032 112.995 699.413C109.626 702.8 107.374 707.234 105.537 713.265C103.729 707.251 101.489 702.831 98.132 699.462Z" stroke="#E0F4F3" stroke-width="2"/>
<rect x="101.284" y="687.574" width="8.61834" height="8.6699" rx="4.30917" fill="#46958F" stroke="#E0F4F3" stroke-width="2"/>
</g>
<g opacity="0.5">
<g opacity="0.5">
<rect x="1.41078" width="10.4699" height="31.253" rx="5.23494" transform="matrix(0.705392 -0.708817 0.705392 0.708817 848.25 609.679)" stroke="#E0F4F3" stroke-width="2"/>
<rect y="1.41763" width="10.4699" height="31.253" rx="5.23494" transform="matrix(0.705392 0.708817 -0.705392 0.708817 872.291 600.253)" stroke="#E0F4F3" stroke-width="2"/>
</g>
<path d="M858.736 621.174C856.446 618.875 853.505 617.304 849.629 616.044C853.517 614.777 856.464 613.199 858.765 610.889C861.08 608.565 862.669 605.57 863.958 601.601C865.236 605.534 866.81 608.512 869.105 610.825C871.391 613.129 874.323 614.704 878.199 615.961C874.298 617.24 871.345 618.825 869.043 621.139C866.737 623.457 865.154 626.436 863.873 630.375C862.608 626.448 861.034 623.48 858.736 621.174Z" stroke="#E0F4F3" stroke-width="2"/>
<rect x="861.089" y="613.094" width="5.6452" height="5.68233" rx="2.8226" fill="#46958F" stroke="#E0F4F3" stroke-width="2"/>
</g>
<g opacity="0.5">
<g opacity="0.5">
<rect x="1.41078" width="10.4699" height="31.253" rx="5.23494" transform="matrix(0.705392 -0.708817 0.705392 0.708817 1590.65 870.679)" stroke="#E0F4F3" stroke-width="2"/>
<rect y="1.41763" width="10.4699" height="31.253" rx="5.23494" transform="matrix(0.705392 0.708817 -0.705392 0.708817 1614.69 861.253)" stroke="#E0F4F3" stroke-width="2"/>
</g>
<path d="M1601.13 882.174C1598.84 879.875 1595.9 878.304 1592.02 877.044C1595.91 875.777 1598.86 874.199 1601.16 871.889C1603.47 869.565 1605.06 866.57 1606.35 862.601C1607.63 866.534 1609.21 869.512 1611.5 871.825C1613.79 874.129 1616.72 875.704 1620.59 876.961C1616.69 878.24 1613.74 879.825 1611.44 882.139C1609.13 884.457 1607.55 887.436 1606.27 891.375C1605 887.448 1603.43 884.48 1601.13 882.174Z" stroke="#E0F4F3" stroke-width="2"/>
<rect x="1603.48" y="874.094" width="5.6452" height="5.68233" rx="2.8226" fill="#46958F" stroke="#E0F4F3" stroke-width="2"/>
</g>
<g opacity="0.5">
<g opacity="0.5">
<rect x="1.41078" width="10.4699" height="31.253" rx="5.23494" transform="matrix(0.705392 -0.708817 0.705392 0.708817 120.783 781.679)" stroke="#E0F4F3" stroke-width="2"/>
<rect y="1.41763" width="10.4699" height="31.253" rx="5.23494" transform="matrix(0.705392 0.708817 -0.705392 0.708817 144.823 772.253)" stroke="#E0F4F3" stroke-width="2"/>
</g>
<path d="M131.269 793.174C128.978 790.875 126.038 789.304 122.162 788.044C126.05 786.777 128.997 785.199 131.298 782.889C133.612 780.565 135.202 777.57 136.491 773.601C137.769 777.534 139.342 780.512 141.638 782.825C143.924 785.129 146.856 786.704 150.732 787.961C146.83 789.24 143.878 790.825 141.576 793.139C139.27 795.457 137.687 798.436 136.405 802.375C135.141 798.448 133.567 795.48 131.269 793.174Z" stroke="#E0F4F3" stroke-width="2"/>
<rect x="133.621" y="785.094" width="5.6452" height="5.68233" rx="2.8226" fill="#46958F" stroke="#E0F4F3" stroke-width="2"/>
</g>
<g opacity="0.5">
<g opacity="0.5">
<rect x="1.41078" width="10.4699" height="31.253" rx="5.23494" transform="matrix(0.705392 -0.708817 0.705392 0.708817 829.342 1079.68)" stroke="#E0F4F3" stroke-width="2"/>
<rect y="1.41763" width="10.4699" height="31.253" rx="5.23494" transform="matrix(0.705392 0.708817 -0.705392 0.708817 853.383 1070.25)" stroke="#E0F4F3" stroke-width="2"/>
</g>
<path d="M839.829 1091.17C837.538 1088.87 834.598 1087.3 830.722 1086.04C834.609 1084.78 837.557 1083.2 839.857 1080.89C842.172 1078.56 843.761 1075.57 845.05 1071.6C846.328 1075.53 847.902 1078.51 850.197 1080.83C852.483 1083.13 855.415 1084.7 859.291 1085.96C855.39 1087.24 852.437 1088.83 850.135 1091.14C847.829 1093.46 846.247 1096.44 844.965 1100.37C843.701 1096.45 842.127 1093.48 839.829 1091.17Z" stroke="#E0F4F3" stroke-width="2"/>
<rect x="842.181" y="1083.09" width="5.6452" height="5.68233" rx="2.8226" fill="#46958F" stroke="#E0F4F3" stroke-width="2"/>
</g>
<g opacity="0.5">
<g opacity="0.5">
<rect x="1.41078" width="15.3193" height="44.1848" rx="7.65965" transform="matrix(0.705392 -0.708817 0.705392 0.708817 1309.73 710.832)" stroke="#E0F4F3" stroke-width="2"/>
<rect y="1.41763" width="15.3193" height="44.1848" rx="7.65965" transform="matrix(0.705392 0.708817 -0.705392 0.708817 1342.89 697.969)" stroke="#E0F4F3" stroke-width="2"/>
</g>
<path d="M1324.18 727.462C1320.83 724.1 1316.45 721.865 1310.5 720.062C1316.46 718.249 1320.85 716.004 1324.22 712.626C1327.6 709.233 1329.86 704.779 1331.7 698.707C1333.54 704.727 1335.78 709.159 1339.13 712.538C1342.47 715.906 1346.84 718.147 1352.78 719.944C1346.8 721.775 1342.41 724.032 1339.04 727.413C1335.67 730.8 1333.42 735.234 1331.58 741.265C1329.78 735.251 1327.54 730.831 1324.18 727.462Z" stroke="#E0F4F3" stroke-width="2"/>
<rect x="1327.33" y="715.574" width="8.61834" height="8.6699" rx="4.30917" fill="#46958F" stroke="#E0F4F3" stroke-width="2"/>
</g>
<g opacity="0.5">
<g opacity="0.5">
<rect x="-1.41078" width="23.1056" height="64.9483" rx="11.5528" transform="matrix(-0.705392 -0.708817 -0.705392 0.708817 1855.18 1674.5)" stroke="#E0F4F3" stroke-width="2"/>
<rect y="1.41763" width="23.1056" height="64.9483" rx="11.5528" transform="matrix(-0.705392 0.708817 0.705392 0.708817 1809.36 1658.12)" stroke="#E0F4F3" stroke-width="2"/>
</g>
<path d="M1836.35 1701.37C1841.41 1696.3 1848.12 1693.01 1857.45 1690.33C1848.1 1687.64 1841.37 1684.33 1836.3 1679.23C1831.21 1674.12 1827.87 1667.31 1825.13 1657.79C1822.4 1667.23 1819.1 1674.01 1814.05 1679.1C1809.01 1684.18 1802.32 1687.49 1792.99 1690.16C1802.37 1692.88 1809.1 1696.21 1814.17 1701.3C1819.25 1706.41 1822.57 1713.2 1825.31 1722.65C1827.99 1713.22 1831.29 1706.45 1836.35 1701.37Z" stroke="#E0F4F3" stroke-width="2"/>
<rect x="-1" y="1" width="13.3921" height="13.4668" rx="6.69604" transform="matrix(-1 0 0 1 1830.92 1682.37)" fill="#46958F" stroke="#E0F4F3" stroke-width="2"/>
</g>
<g opacity="0.5">
<g opacity="0.5">
<rect x="-1.41078" width="23.1056" height="64.9483" rx="11.5528" transform="matrix(-0.705392 -0.708817 -0.705392 0.708817 34.0263 1200.5)" stroke="#E0F4F3" stroke-width="2"/>
<rect y="1.41763" width="23.1056" height="64.9483" rx="11.5528" transform="matrix(-0.705392 0.708817 0.705392 0.708817 -11.7925 1184.12)" stroke="#E0F4F3" stroke-width="2"/>
</g>
<path d="M15.1971 1227.37C20.2488 1222.3 26.9621 1219.01 36.2908 1216.33C26.938 1213.64 20.2124 1210.33 15.1399 1205.23C10.0518 1200.12 6.71679 1193.31 3.97099 1183.79C1.24421 1193.23 -2.05773 1200.01 -7.10839 1205.1C-12.1479 1210.18 -18.8391 1213.49 -28.1684 1216.16C-18.7893 1218.88 -12.0546 1222.21 -6.98252 1227.3C-1.90507 1232.41 1.41715 1239.2 4.14838 1248.65C6.83433 1239.22 10.1373 1232.45 15.1971 1227.37Z" stroke="#E0F4F3" stroke-width="2"/>
<rect x="-1" y="1" width="13.3921" height="13.4668" rx="6.69604" transform="matrix(-1 0 0 1 9.76013 1208.37)" fill="#46958F" stroke="#E0F4F3" stroke-width="2"/>
</g>
<g opacity="0.5">
<g opacity="0.5">
<rect x="-1.41078" width="15.3193" height="44.1848" rx="7.65965" transform="matrix(-0.705392 -0.708817 -0.705392 0.708817 1915.04 1491.83)" stroke="#E0F4F3" stroke-width="2"/>
<rect y="1.41763" width="15.3193" height="44.1848" rx="7.65965" transform="matrix(-0.705392 0.708817 0.705392 0.708817 1883.87 1480.97)" stroke="#E0F4F3" stroke-width="2"/>
</g>
<path d="M1902.58 1510.46C1905.93 1507.1 1910.31 1504.86 1916.26 1503.06C1910.3 1501.25 1905.91 1499 1902.54 1495.63C1899.16 1492.23 1896.9 1487.78 1895.06 1481.71C1893.22 1487.73 1890.99 1492.16 1887.63 1495.54C1884.29 1498.91 1879.92 1501.15 1873.98 1502.94C1879.96 1504.77 1884.35 1507.03 1887.72 1510.41C1891.09 1513.8 1893.34 1518.23 1895.18 1524.26C1896.99 1518.25 1899.23 1513.83 1902.58 1510.46Z" stroke="#E0F4F3" stroke-width="2"/>
<rect x="-1" y="1" width="8.61834" height="8.6699" rx="4.30917" transform="matrix(-1 0 0 1 1898.43 1497.57)" fill="#46958F" stroke="#E0F4F3" stroke-width="2"/>
</g>
<g opacity="0.5">
<g opacity="0.5">
<rect x="-1.41078" width="15.3193" height="44.1848" rx="7.65965" transform="matrix(-0.705392 -0.708817 -0.705392 0.708817 19.2507 1377.83)" stroke="#E0F4F3" stroke-width="2"/>
<rect y="1.41763" width="15.3193" height="44.1848" rx="7.65965" transform="matrix(-0.705392 0.708817 0.705392 0.708817 -11.9216 1366.97)" stroke="#E0F4F3" stroke-width="2"/>
</g>
<path d="M6.78878 1396.46C10.1385 1393.1 14.5203 1390.86 20.4626 1389.06C14.5038 1387.25 10.1129 1385 6.74928 1381.63C3.37067 1378.23 1.10924 1373.78 -0.737151 1367.71C-2.56962 1373.73 -4.80869 1378.16 -8.1611 1381.54C-11.5031 1384.91 -15.8714 1387.15 -21.8138 1388.94C-15.8366 1390.77 -11.4388 1393.03 -8.07455 1396.41C-4.70535 1399.8 -2.45296 1404.23 -0.616614 1410.26C1.19169 1404.25 3.43136 1399.83 6.78878 1396.46Z" stroke="#E0F4F3" stroke-width="2"/>
<rect x="-1" y="1" width="8.61834" height="8.6699" rx="4.30917" transform="matrix(-1 0 0 1 2.63647 1383.57)" fill="#46958F" stroke="#E0F4F3" stroke-width="2"/>
</g>
<g opacity="0.5">
<g opacity="0.5">
<rect x="-1.41078" width="15.3193" height="44.1848" rx="7.65965" transform="matrix(-0.705392 -0.708817 -0.705392 0.708817 725.819 1817.83)" stroke="#E0F4F3" stroke-width="2"/>
<rect y="1.41763" width="15.3193" height="44.1848" rx="7.65965" transform="matrix(-0.705392 0.708817 0.705392 0.708817 694.647 1806.97)" stroke="#E0F4F3" stroke-width="2"/>
</g>
<path d="M713.357 1836.46C716.707 1833.1 721.089 1830.86 727.031 1829.06C721.072 1827.25 716.682 1825 713.318 1821.63C709.939 1818.23 707.678 1813.78 705.831 1807.71C703.999 1813.73 701.76 1818.16 698.408 1821.54C695.065 1824.91 690.697 1827.15 684.755 1828.94C690.732 1830.77 695.13 1833.03 698.494 1836.41C701.863 1839.8 704.116 1844.23 705.952 1850.26C707.76 1844.25 710 1839.83 713.357 1836.46Z" stroke="#E0F4F3" stroke-width="2"/>
<rect x="-1" y="1" width="8.61834" height="8.6699" rx="4.30917" transform="matrix(-1 0 0 1 709.205 1823.57)" fill="#46958F" stroke="#E0F4F3" stroke-width="2"/>
</g>
<g opacity="0.5">
<g opacity="0.5">
<rect x="-1.41078" width="15.3193" height="44.1848" rx="7.65965" transform="matrix(-0.705392 -0.708817 -0.705392 0.708817 1100 1565.83)" stroke="#E0F4F3" stroke-width="2"/>
<rect y="1.41763" width="15.3193" height="44.1848" rx="7.65965" transform="matrix(-0.705392 0.708817 0.705392 0.708817 1068.83 1554.97)" stroke="#E0F4F3" stroke-width="2"/>
</g>
<path d="M1087.54 1584.46C1090.89 1581.1 1095.27 1578.86 1101.21 1577.06C1095.25 1575.25 1090.86 1573 1087.5 1569.63C1084.12 1566.23 1081.86 1561.78 1080.01 1555.71C1078.18 1561.73 1075.94 1566.16 1072.59 1569.54C1069.25 1572.91 1064.88 1575.15 1058.94 1576.94C1064.91 1578.77 1069.31 1581.03 1072.68 1584.41C1076.05 1587.8 1078.3 1592.23 1080.13 1598.26C1081.94 1592.25 1084.18 1587.83 1087.54 1584.46Z" stroke="#E0F4F3" stroke-width="2"/>
<rect x="-1" y="1" width="8.61834" height="8.6699" rx="4.30917" transform="matrix(-1 0 0 1 1083.39 1571.57)" fill="#46958F" stroke="#E0F4F3" stroke-width="2"/>
</g>
<g opacity="0.5">
<g opacity="0.5">
<rect x="-1.41078" width="15.3193" height="44.1848" rx="7.65965" transform="matrix(-0.705392 -0.708817 -0.705392 0.708817 1856.33 1324.83)" stroke="#E0F4F3" stroke-width="2"/>
<rect y="1.41763" width="15.3193" height="44.1848" rx="7.65965" transform="matrix(-0.705392 0.708817 0.705392 0.708817 1825.16 1313.97)" stroke="#E0F4F3" stroke-width="2"/>
</g>
<path d="M1843.87 1343.46C1847.22 1340.1 1851.6 1337.86 1857.54 1336.06C1851.58 1334.25 1847.19 1332 1843.83 1328.63C1840.45 1325.23 1838.19 1320.78 1836.34 1314.71C1834.51 1320.73 1832.27 1325.16 1828.92 1328.54C1825.58 1331.91 1821.21 1334.15 1815.27 1335.94C1821.24 1337.77 1825.64 1340.03 1829 1343.41C1832.37 1346.8 1834.63 1351.23 1836.46 1357.26C1838.27 1351.25 1840.51 1346.83 1843.87 1343.46Z" stroke="#E0F4F3" stroke-width="2"/>
<rect x="-1" y="1" width="8.61834" height="8.6699" rx="4.30917" transform="matrix(-1 0 0 1 1839.72 1330.57)" fill="#46958F" stroke="#E0F4F3" stroke-width="2"/>
</g>
<g opacity="0.5">
<g opacity="0.5">
<rect x="-1.41078" width="10.4699" height="31.253" rx="5.23494" transform="matrix(-0.705392 -0.708817 -0.705392 0.708817 1091.76 1251.68)" stroke="#E0F4F3" stroke-width="2"/>
<rect y="1.41763" width="10.4699" height="31.253" rx="5.23494" transform="matrix(-0.705392 0.708817 0.705392 0.708817 1069.71 1244.25)" stroke="#E0F4F3" stroke-width="2"/>
</g>
<path d="M1083.26 1265.17C1085.55 1262.87 1088.49 1261.3 1092.37 1260.04C1088.48 1258.78 1085.54 1257.2 1083.24 1254.89C1080.92 1252.56 1079.33 1249.57 1078.04 1245.6C1076.76 1249.53 1075.19 1252.51 1072.89 1254.83C1070.61 1257.13 1067.68 1258.7 1063.8 1259.96C1067.7 1261.24 1070.66 1262.83 1072.96 1265.14C1075.26 1267.46 1076.85 1270.44 1078.13 1274.37C1079.39 1270.45 1080.97 1267.48 1083.26 1265.17Z" stroke="#E0F4F3" stroke-width="2"/>
<rect x="-1" y="1" width="5.6452" height="5.68233" rx="2.8226" transform="matrix(-1 0 0 1 1079.91 1256.09)" fill="#46958F" stroke="#E0F4F3" stroke-width="2"/>
</g>
<g opacity="0.5">
<g opacity="0.5">
<rect x="-1.41078" width="10.4699" height="31.253" rx="5.23494" transform="matrix(-0.705392 -0.708817 -0.705392 0.708817 349.365 1512.68)" stroke="#E0F4F3" stroke-width="2"/>
<rect y="1.41763" width="10.4699" height="31.253" rx="5.23494" transform="matrix(-0.705392 0.708817 0.705392 0.708817 327.314 1505.25)" stroke="#E0F4F3" stroke-width="2"/>
</g>
<path d="M340.868 1526.17C343.159 1523.87 346.099 1522.3 349.975 1521.04C346.088 1519.78 343.14 1518.2 340.84 1515.89C338.525 1513.56 336.936 1510.57 335.647 1506.6C334.368 1510.53 332.795 1513.51 330.5 1515.83C328.214 1518.13 325.282 1519.7 321.406 1520.96C325.307 1522.24 328.26 1523.83 330.562 1526.14C332.868 1528.46 334.45 1531.44 335.732 1535.37C336.996 1531.45 338.57 1528.48 340.868 1526.17Z" stroke="#E0F4F3" stroke-width="2"/>
<rect x="-1" y="1" width="5.6452" height="5.68233" rx="2.8226" transform="matrix(-1 0 0 1 337.516 1517.09)" fill="#46958F" stroke="#E0F4F3" stroke-width="2"/>
</g>
<g opacity="0.5">
<g opacity="0.5">
<rect x="-1.41078" width="10.4699" height="31.253" rx="5.23494" transform="matrix(-0.705392 -0.708817 -0.705392 0.708817 1819.23 1423.68)" stroke="#E0F4F3" stroke-width="2"/>
<rect y="1.41763" width="10.4699" height="31.253" rx="5.23494" transform="matrix(-0.705392 0.708817 0.705392 0.708817 1797.18 1416.25)" stroke="#E0F4F3" stroke-width="2"/>
</g>
<path d="M1810.73 1437.17C1813.02 1434.87 1815.96 1433.3 1819.84 1432.04C1815.95 1430.78 1813 1429.2 1810.7 1426.89C1808.39 1424.56 1806.8 1421.57 1805.51 1417.6C1804.23 1421.53 1802.66 1424.51 1800.36 1426.83C1798.08 1429.13 1795.14 1430.7 1791.27 1431.96C1795.17 1433.24 1798.12 1434.83 1800.42 1437.14C1802.73 1439.46 1804.31 1442.44 1805.59 1446.37C1806.86 1442.45 1808.43 1439.48 1810.73 1437.17Z" stroke="#E0F4F3" stroke-width="2"/>
<rect x="-1" y="1" width="5.6452" height="5.68233" rx="2.8226" transform="matrix(-1 0 0 1 1807.38 1428.09)" fill="#46958F" stroke="#E0F4F3" stroke-width="2"/>
</g>
<g opacity="0.5">
<g opacity="0.5">
<rect x="-1.41078" width="10.4699" height="31.253" rx="5.23494" transform="matrix(-0.705392 -0.708817 -0.705392 0.708817 1110.67 1721.68)" stroke="#E0F4F3" stroke-width="2"/>
<rect y="1.41763" width="10.4699" height="31.253" rx="5.23494" transform="matrix(-0.705392 0.708817 0.705392 0.708817 1088.62 1714.25)" stroke="#E0F4F3" stroke-width="2"/>
</g>
<path d="M1102.17 1735.17C1104.46 1732.87 1107.4 1731.3 1111.28 1730.04C1107.39 1728.78 1104.44 1727.2 1102.14 1724.89C1099.83 1722.56 1098.24 1719.57 1096.95 1715.6C1095.67 1719.53 1094.1 1722.51 1091.8 1724.83C1089.52 1727.13 1086.58 1728.7 1082.71 1729.96C1086.61 1731.24 1089.56 1732.83 1091.86 1735.14C1094.17 1737.46 1095.75 1740.44 1097.04 1744.37C1098.3 1740.45 1099.87 1737.48 1102.17 1735.17Z" stroke="#E0F4F3" stroke-width="2"/>
<rect x="-1" y="1" width="5.6452" height="5.68233" rx="2.8226" transform="matrix(-1 0 0 1 1098.82 1726.09)" fill="#46958F" stroke="#E0F4F3" stroke-width="2"/>
</g>
<g opacity="0.5">
<g opacity="0.5">
<rect x="-1.41078" width="15.3193" height="44.1848" rx="7.65965" transform="matrix(-0.705392 -0.708817 -0.705392 0.708817 630.283 1352.83)" stroke="#E0F4F3" stroke-width="2"/>
<rect y="1.41763" width="15.3193" height="44.1848" rx="7.65965" transform="matrix(-0.705392 0.708817 0.705392 0.708817 599.111 1341.97)" stroke="#E0F4F3" stroke-width="2"/>
</g>
<path d="M617.821 1371.46C621.171 1368.1 625.553 1365.86 631.495 1364.06C625.536 1362.25 621.145 1360 617.782 1356.63C614.403 1353.23 612.142 1348.78 610.295 1342.71C608.463 1348.73 606.224 1353.16 602.871 1356.54C599.529 1359.91 595.161 1362.15 589.219 1363.94C595.196 1365.77 599.594 1368.03 602.958 1371.41C606.327 1374.8 608.58 1379.23 610.416 1385.26C612.224 1379.25 614.464 1374.83 617.821 1371.46Z" stroke="#E0F4F3" stroke-width="2"/>
<rect x="-1" y="1" width="8.61834" height="8.6699" rx="4.30917" transform="matrix(-1 0 0 1 613.669 1358.57)" fill="#46958F" stroke="#E0F4F3" stroke-width="2"/>
</g>
<g opacity="0.5">
<g opacity="0.5">
<rect x="1.41078" width="23.1056" height="64.9483" rx="11.5528" transform="matrix(0.705392 -0.708817 0.705392 0.708817 194.826 1787.5)" stroke="#E0F4F3" stroke-width="2"/>
<rect y="1.41763" width="23.1056" height="64.9483" rx="11.5528" transform="matrix(0.705392 0.708817 -0.705392 0.708817 242.635 1769.12)" stroke="#E0F4F3" stroke-width="2"/>
</g>
<path d="M215.646 1812.37C210.594 1807.3 203.881 1804.01 194.552 1801.33C203.905 1798.64 210.63 1795.33 215.703 1790.23C220.791 1785.12 224.126 1778.31 226.872 1768.79C229.598 1778.23 232.9 1785.01 237.951 1790.1C242.991 1795.18 249.682 1798.49 259.011 1801.16C249.632 1803.88 242.897 1807.21 237.825 1812.3C232.748 1817.41 229.425 1824.2 226.694 1833.65C224.008 1824.22 220.705 1817.45 215.646 1812.37Z" stroke="#E0F4F3" stroke-width="2"/>
<rect x="220.083" y="1794.37" width="13.3921" height="13.4668" rx="6.69604" fill="#46958F" stroke="#E0F4F3" stroke-width="2"/>
</g>
<g opacity="0.5">
<g opacity="0.5">
<rect x="1.41078" width="15.3193" height="44.1848" rx="7.65965" transform="matrix(0.705392 -0.708817 0.705392 0.708817 134.965 1604.83)" stroke="#E0F4F3" stroke-width="2"/>
<rect y="1.41763" width="15.3193" height="44.1848" rx="7.65965" transform="matrix(0.705392 0.708817 -0.705392 0.708817 168.128 1591.97)" stroke="#E0F4F3" stroke-width="2"/>
</g>
<path d="M149.418 1621.46C146.068 1618.1 141.686 1615.86 135.744 1614.06C141.702 1612.25 146.093 1610 149.457 1606.63C152.836 1603.23 155.097 1598.78 156.943 1592.71C158.776 1598.73 161.015 1603.16 164.367 1606.54C167.709 1609.91 172.078 1612.15 178.02 1613.94C172.043 1615.77 167.645 1618.03 164.281 1621.41C160.912 1624.8 158.659 1629.23 156.823 1635.26C155.015 1629.25 152.775 1624.83 149.418 1621.46Z" stroke="#E0F4F3" stroke-width="2"/>
<rect x="152.57" y="1609.57" width="8.61834" height="8.6699" rx="4.30917" fill="#46958F" stroke="#E0F4F3" stroke-width="2"/>
</g>
<g opacity="0.5">
<g opacity="0.5">
<rect x="1.41078" width="15.3193" height="44.1848" rx="7.65965" transform="matrix(0.705392 -0.708817 0.705392 0.708817 1324.19 1930.83)" stroke="#E0F4F3" stroke-width="2"/>
<rect y="1.41763" width="15.3193" height="44.1848" rx="7.65965" transform="matrix(0.705392 0.708817 -0.705392 0.708817 1357.35 1917.97)" stroke="#E0F4F3" stroke-width="2"/>
</g>
<path d="M1338.64 1947.46C1335.29 1944.1 1330.91 1941.86 1324.97 1940.06C1330.93 1938.25 1335.32 1936 1338.68 1932.63C1342.06 1929.23 1344.32 1924.78 1346.17 1918.71C1348 1924.73 1350.24 1929.16 1353.59 1932.54C1356.93 1935.91 1361.3 1938.15 1367.25 1939.94C1361.27 1941.77 1356.87 1944.03 1353.51 1947.41C1350.14 1950.8 1347.88 1955.23 1346.05 1961.26C1344.24 1955.25 1342 1950.83 1338.64 1947.46Z" stroke="#E0F4F3" stroke-width="2"/>
<rect x="1341.79" y="1935.57" width="8.61834" height="8.6699" rx="4.30917" fill="#46958F" stroke="#E0F4F3" stroke-width="2"/>
</g>
<g opacity="0.5">
<g opacity="0.5">
<rect x="1.41078" width="15.3193" height="44.1848" rx="7.65965" transform="matrix(0.705392 -0.708817 0.705392 0.708817 950.008 1678.83)" stroke="#E0F4F3" stroke-width="2"/>
<rect y="1.41763" width="15.3193" height="44.1848" rx="7.65965" transform="matrix(0.705392 0.708817 -0.705392 0.708817 983.17 1665.97)" stroke="#E0F4F3" stroke-width="2"/>
</g>
<path d="M964.46 1695.46C961.11 1692.1 956.729 1689.86 950.786 1688.06C956.745 1686.25 961.136 1684 964.5 1680.63C967.878 1677.23 970.14 1672.78 971.986 1666.71C973.818 1672.73 976.058 1677.16 979.41 1680.54C982.752 1683.91 987.12 1686.15 993.063 1687.94C987.085 1689.77 982.688 1692.03 979.323 1695.41C975.954 1698.8 973.702 1703.23 971.865 1709.26C970.057 1703.25 967.817 1698.83 964.46 1695.46Z" stroke="#E0F4F3" stroke-width="2"/>
<rect x="967.612" y="1683.57" width="8.61834" height="8.6699" rx="4.30917" fill="#46958F" stroke="#E0F4F3" stroke-width="2"/>
</g>
<g opacity="0.5">
<g opacity="0.5">
<rect x="1.41078" width="15.3193" height="44.1848" rx="7.65965" transform="matrix(0.705392 -0.708817 0.705392 0.708817 193.68 1437.83)" stroke="#E0F4F3" stroke-width="2"/>
<rect y="1.41763" width="15.3193" height="44.1848" rx="7.65965" transform="matrix(0.705392 0.708817 -0.705392 0.708817 226.842 1424.97)" stroke="#E0F4F3" stroke-width="2"/>
</g>
<path d="M208.132 1454.46C204.782 1451.1 200.4 1448.86 194.458 1447.06C200.417 1445.25 204.808 1443 208.171 1439.63C211.55 1436.23 213.812 1431.78 215.658 1425.71C217.49 1431.73 219.729 1436.16 223.082 1439.54C226.424 1442.91 230.792 1445.15 236.735 1446.94C230.757 1448.77 226.36 1451.03 222.995 1454.41C219.626 1457.8 217.374 1462.23 215.537 1468.26C213.729 1462.25 211.489 1457.83 208.132 1454.46Z" stroke="#E0F4F3" stroke-width="2"/>
<rect x="211.284" y="1442.57" width="8.61834" height="8.6699" rx="4.30917" fill="#46958F" stroke="#E0F4F3" stroke-width="2"/>
</g>
<g opacity="0.5">
<g opacity="0.5">
<rect x="1.41078" width="10.4699" height="31.253" rx="5.23494" transform="matrix(0.705392 -0.708817 0.705392 0.708817 958.25 1364.68)" stroke="#E0F4F3" stroke-width="2"/>
<rect y="1.41763" width="10.4699" height="31.253" rx="5.23494" transform="matrix(0.705392 0.708817 -0.705392 0.708817 982.291 1355.25)" stroke="#E0F4F3" stroke-width="2"/>
</g>
<path d="M968.736 1376.17C966.446 1373.87 963.505 1372.3 959.629 1371.04C963.517 1369.78 966.464 1368.2 968.765 1365.89C971.08 1363.56 972.669 1360.57 973.958 1356.6C975.236 1360.53 976.81 1363.51 979.105 1365.83C981.391 1368.13 984.323 1369.7 988.199 1370.96C984.298 1372.24 981.345 1373.83 979.043 1376.14C976.737 1378.46 975.154 1381.44 973.873 1385.37C972.608 1381.45 971.034 1378.48 968.736 1376.17Z" stroke="#E0F4F3" stroke-width="2"/>
<rect x="971.089" y="1368.09" width="5.6452" height="5.68233" rx="2.8226" fill="#46958F" stroke="#E0F4F3" stroke-width="2"/>
</g>
<g opacity="0.5">
<g opacity="0.5">
<rect x="1.41078" width="10.4699" height="31.253" rx="5.23494" transform="matrix(0.705392 -0.708817 0.705392 0.708817 1700.65 1625.68)" stroke="#E0F4F3" stroke-width="2"/>
<rect y="1.41763" width="10.4699" height="31.253" rx="5.23494" transform="matrix(0.705392 0.708817 -0.705392 0.708817 1724.69 1616.25)" stroke="#E0F4F3" stroke-width="2"/>
</g>
<path d="M1711.13 1637.17C1708.84 1634.87 1705.9 1633.3 1702.02 1632.04C1705.91 1630.78 1708.86 1629.2 1711.16 1626.89C1713.47 1624.56 1715.06 1621.57 1716.35 1617.6C1717.63 1621.53 1719.21 1624.51 1721.5 1626.83C1723.79 1629.13 1726.72 1630.7 1730.59 1631.96C1726.69 1633.24 1723.74 1634.83 1721.44 1637.14C1719.13 1639.46 1717.55 1642.44 1716.27 1646.37C1715 1642.45 1713.43 1639.48 1711.13 1637.17Z" stroke="#E0F4F3" stroke-width="2"/>
<rect x="1713.48" y="1629.09" width="5.6452" height="5.68233" rx="2.8226" fill="#46958F" stroke="#E0F4F3" stroke-width="2"/>
</g>
<g opacity="0.5">
<g opacity="0.5">
<rect x="1.41078" width="10.4699" height="31.253" rx="5.23494" transform="matrix(0.705392 -0.708817 0.705392 0.708817 230.783 1536.68)" stroke="#E0F4F3" stroke-width="2"/>
<rect y="1.41763" width="10.4699" height="31.253" rx="5.23494" transform="matrix(0.705392 0.708817 -0.705392 0.708817 254.823 1527.25)" stroke="#E0F4F3" stroke-width="2"/>
</g>
<path d="M241.269 1548.17C238.978 1545.87 236.038 1544.3 232.162 1543.04C236.05 1541.78 238.997 1540.2 241.298 1537.89C243.612 1535.56 245.202 1532.57 246.491 1528.6C247.769 1532.53 249.342 1535.51 251.638 1537.83C253.924 1540.13 256.856 1541.7 260.732 1542.96C256.83 1544.24 253.878 1545.83 251.576 1548.14C249.27 1550.46 247.687 1553.44 246.405 1557.37C245.141 1553.45 243.567 1550.48 241.269 1548.17Z" stroke="#E0F4F3" stroke-width="2"/>
<rect x="243.621" y="1540.09" width="5.6452" height="5.68233" rx="2.8226" fill="#46958F" stroke="#E0F4F3" stroke-width="2"/>
</g>
<g opacity="0.5">
<g opacity="0.5">
<rect x="1.41078" width="10.4699" height="31.253" rx="5.23494" transform="matrix(0.705392 -0.708817 0.705392 0.708817 939.342 1834.68)" stroke="#E0F4F3" stroke-width="2"/>
<rect y="1.41763" width="10.4699" height="31.253" rx="5.23494" transform="matrix(0.705392 0.708817 -0.705392 0.708817 963.383 1825.25)" stroke="#E0F4F3" stroke-width="2"/>
</g>
<path d="M949.829 1846.17C947.538 1843.87 944.598 1842.3 940.722 1841.04C944.609 1839.78 947.557 1838.2 949.857 1835.89C952.172 1833.56 953.761 1830.57 955.05 1826.6C956.328 1830.53 957.902 1833.51 960.197 1835.83C962.483 1838.13 965.415 1839.7 969.291 1840.96C965.39 1842.24 962.437 1843.83 960.135 1846.14C957.829 1848.46 956.247 1851.44 954.965 1855.37C953.701 1851.45 952.127 1848.48 949.829 1846.17Z" stroke="#E0F4F3" stroke-width="2"/>
<rect x="952.181" y="1838.09" width="5.6452" height="5.68233" rx="2.8226" fill="#46958F" stroke="#E0F4F3" stroke-width="2"/>
</g>
<g opacity="0.5">
<g opacity="0.5">
<rect x="1.41078" width="15.3193" height="44.1848" rx="7.65965" transform="matrix(0.705392 -0.708817 0.705392 0.708817 1419.73 1465.83)" stroke="#E0F4F3" stroke-width="2"/>
<rect y="1.41763" width="15.3193" height="44.1848" rx="7.65965" transform="matrix(0.705392 0.708817 -0.705392 0.708817 1452.89 1452.97)" stroke="#E0F4F3" stroke-width="2"/>
</g>
<path d="M1434.18 1482.46C1430.83 1479.1 1426.45 1476.86 1420.5 1475.06C1426.46 1473.25 1430.85 1471 1434.22 1467.63C1437.6 1464.23 1439.86 1459.78 1441.7 1453.71C1443.54 1459.73 1445.78 1464.16 1449.13 1467.54C1452.47 1470.91 1456.84 1473.15 1462.78 1474.94C1456.8 1476.77 1452.41 1479.03 1449.04 1482.41C1445.67 1485.8 1443.42 1490.23 1441.58 1496.26C1439.78 1490.25 1437.54 1485.83 1434.18 1482.46Z" stroke="#E0F4F3" stroke-width="2"/>
<rect x="1437.33" y="1470.57" width="8.61834" height="8.6699" rx="4.30917" fill="#46958F" stroke="#E0F4F3" stroke-width="2"/>
</g>
<g opacity="0.5">
<g opacity="0.5">
<rect x="1.41078" width="23.1056" height="64.9483" rx="11.5528" transform="matrix(0.705392 -0.708817 0.705392 0.708817 546.826 1297.5)" stroke="#E0F4F3" stroke-width="2"/>
<rect y="1.41763" width="23.1056" height="64.9483" rx="11.5528" transform="matrix(0.705392 0.708817 -0.705392 0.708817 594.635 1279.12)" stroke="#E0F4F3" stroke-width="2"/>
</g>
<path d="M567.646 1322.37C562.594 1317.3 555.881 1314.01 546.552 1311.33C555.905 1308.64 562.63 1305.33 567.703 1300.23C572.791 1295.12 576.126 1288.31 578.872 1278.79C581.598 1288.23 584.9 1295.01 589.951 1300.1C594.991 1305.18 601.682 1308.49 611.011 1311.16C601.632 1313.88 594.897 1317.21 589.825 1322.3C584.748 1327.41 581.425 1334.2 578.694 1343.65C576.008 1334.22 572.705 1327.45 567.646 1322.37Z" stroke="#E0F4F3" stroke-width="2"/>
<rect x="572.083" y="1304.37" width="13.3921" height="13.4668" rx="6.69604" fill="#46958F" stroke="#E0F4F3" stroke-width="2"/>
</g>
<g opacity="0.5">
<g opacity="0.5">
<rect x="1.41078" width="15.3193" height="44.1848" rx="7.65965" transform="matrix(0.705392 -0.708817 0.705392 0.708817 486.965 1114.83)" stroke="#E0F4F3" stroke-width="2"/>
<rect y="1.41763" width="15.3193" height="44.1848" rx="7.65965" transform="matrix(0.705392 0.708817 -0.705392 0.708817 520.128 1101.97)" stroke="#E0F4F3" stroke-width="2"/>
</g>
<path d="M501.418 1131.46C498.068 1128.1 493.686 1125.86 487.744 1124.06C493.702 1122.25 498.093 1120 501.457 1116.63C504.836 1113.23 507.097 1108.78 508.943 1102.71C510.776 1108.73 513.015 1113.16 516.367 1116.54C519.709 1119.91 524.078 1122.15 530.02 1123.94C524.043 1125.77 519.645 1128.03 516.281 1131.41C512.912 1134.8 510.659 1139.23 508.823 1145.26C507.015 1139.25 504.775 1134.83 501.418 1131.46Z" stroke="#E0F4F3" stroke-width="2"/>
<rect x="504.57" y="1119.57" width="8.61834" height="8.6699" rx="4.30917" fill="#46958F" stroke="#E0F4F3" stroke-width="2"/>
</g>
<g opacity="0.5">
<g opacity="0.5">
<rect x="1.41078" width="15.3193" height="44.1848" rx="7.65965" transform="matrix(0.705392 -0.708817 0.705392 0.708817 1676.19 1440.83)" stroke="#E0F4F3" stroke-width="2"/>
<rect y="1.41763" width="15.3193" height="44.1848" rx="7.65965" transform="matrix(0.705392 0.708817 -0.705392 0.708817 1709.35 1427.97)" stroke="#E0F4F3" stroke-width="2"/>
</g>
<path d="M1690.64 1457.46C1687.29 1454.1 1682.91 1451.86 1676.97 1450.06C1682.93 1448.25 1687.32 1446 1690.68 1442.63C1694.06 1439.23 1696.32 1434.78 1698.17 1428.71C1700 1434.73 1702.24 1439.16 1705.59 1442.54C1708.93 1445.91 1713.3 1448.15 1719.25 1449.94C1713.27 1451.77 1708.87 1454.03 1705.51 1457.41C1702.14 1460.8 1699.88 1465.23 1698.05 1471.26C1696.24 1465.25 1694 1460.83 1690.64 1457.46Z" stroke="#E0F4F3" stroke-width="2"/>
<rect x="1693.79" y="1445.57" width="8.61834" height="8.6699" rx="4.30917" fill="#46958F" stroke="#E0F4F3" stroke-width="2"/>
</g>
<g opacity="0.5">
<g opacity="0.5">
<rect x="1.41078" width="15.3193" height="44.1848" rx="7.65965" transform="matrix(0.705392 -0.708817 0.705392 0.708817 1302.01 1188.83)" stroke="#E0F4F3" stroke-width="2"/>
<rect y="1.41763" width="15.3193" height="44.1848" rx="7.65965" transform="matrix(0.705392 0.708817 -0.705392 0.708817 1335.17 1175.97)" stroke="#E0F4F3" stroke-width="2"/>
</g>
<path d="M1316.46 1205.46C1313.11 1202.1 1308.73 1199.86 1302.79 1198.06C1308.75 1196.25 1313.14 1194 1316.5 1190.63C1319.88 1187.23 1322.14 1182.78 1323.99 1176.71C1325.82 1182.73 1328.06 1187.16 1331.41 1190.54C1334.75 1193.91 1339.12 1196.15 1345.06 1197.94C1339.09 1199.77 1334.69 1202.03 1331.32 1205.41C1327.95 1208.8 1325.7 1213.23 1323.87 1219.26C1322.06 1213.25 1319.82 1208.83 1316.46 1205.46Z" stroke="#E0F4F3" stroke-width="2"/>
<rect x="1319.61" y="1193.57" width="8.61834" height="8.6699" rx="4.30917" fill="#46958F" stroke="#E0F4F3" stroke-width="2"/>
</g>
<g opacity="0.5">
<g opacity="0.5">
<rect x="1.41078" width="15.3193" height="44.1848" rx="7.65965" transform="matrix(0.705392 -0.708817 0.705392 0.708817 545.68 947.832)" stroke="#E0F4F3" stroke-width="2"/>
<rect y="1.41763" width="15.3193" height="44.1848" rx="7.65965" transform="matrix(0.705392 0.708817 -0.705392 0.708817 578.842 934.969)" stroke="#E0F4F3" stroke-width="2"/>
</g>
<path d="M560.132 964.462C556.782 961.1 552.4 958.865 546.458 957.062C552.417 955.249 556.808 953.004 560.171 949.626C563.55 946.233 565.812 941.779 567.658 935.707C569.49 941.727 571.729 946.159 575.082 949.538C578.424 952.906 582.792 955.147 588.735 956.944C582.757 958.775 578.36 961.032 574.995 964.413C571.626 967.8 569.374 972.234 567.537 978.265C565.729 972.251 563.489 967.831 560.132 964.462Z" stroke="#E0F4F3" stroke-width="2"/>
<rect x="563.284" y="952.574" width="8.61834" height="8.6699" rx="4.30917" fill="#46958F" stroke="#E0F4F3" stroke-width="2"/>
</g>
<g opacity="0.5">
<g opacity="0.5">
<rect x="1.41078" width="10.4699" height="31.253" rx="5.23494" transform="matrix(0.705392 -0.708817 0.705392 0.708817 1310.25 874.679)" stroke="#E0F4F3" stroke-width="2"/>
<rect y="1.41763" width="10.4699" height="31.253" rx="5.23494" transform="matrix(0.705392 0.708817 -0.705392 0.708817 1334.29 865.253)" stroke="#E0F4F3" stroke-width="2"/>
</g>
<path d="M1320.74 886.174C1318.45 883.875 1315.51 882.304 1311.63 881.044C1315.52 879.777 1318.46 878.199 1320.76 875.889C1323.08 873.565 1324.67 870.57 1325.96 866.601C1327.24 870.534 1328.81 873.512 1331.11 875.825C1333.39 878.129 1336.32 879.704 1340.2 880.961C1336.3 882.24 1333.34 883.825 1331.04 886.139C1328.74 888.457 1327.15 891.436 1325.87 895.375C1324.61 891.448 1323.03 888.48 1320.74 886.174Z" stroke="#E0F4F3" stroke-width="2"/>
<rect x="1323.09" y="878.094" width="5.6452" height="5.68233" rx="2.8226" fill="#46958F" stroke="#E0F4F3" stroke-width="2"/>
</g>
<g opacity="0.5">
<g opacity="0.5">
<rect x="1.41078" width="10.4699" height="31.253" rx="5.23494" transform="matrix(0.705392 -0.708817 0.705392 0.708817 582.783 1046.68)" stroke="#E0F4F3" stroke-width="2"/>
<rect y="1.41763" width="10.4699" height="31.253" rx="5.23494" transform="matrix(0.705392 0.708817 -0.705392 0.708817 606.823 1037.25)" stroke="#E0F4F3" stroke-width="2"/>
</g>
<path d="M593.269 1058.17C590.978 1055.87 588.038 1054.3 584.162 1053.04C588.05 1051.78 590.997 1050.2 593.298 1047.89C595.612 1045.56 597.202 1042.57 598.491 1038.6C599.769 1042.53 601.342 1045.51 603.638 1047.83C605.924 1050.13 608.856 1051.7 612.732 1052.96C608.83 1054.24 605.878 1055.83 603.576 1058.14C601.27 1060.46 599.687 1063.44 598.405 1067.37C597.141 1063.45 595.567 1060.48 593.269 1058.17Z" stroke="#E0F4F3" stroke-width="2"/>
<rect x="595.621" y="1050.09" width="5.6452" height="5.68233" rx="2.8226" fill="#46958F" stroke="#E0F4F3" stroke-width="2"/>
</g>
<g opacity="0.5">
<g opacity="0.5">
<rect x="1.41078" width="10.4699" height="31.253" rx="5.23494" transform="matrix(0.705392 -0.708817 0.705392 0.708817 1291.34 1344.68)" stroke="#E0F4F3" stroke-width="2"/>
<rect y="1.41763" width="10.4699" height="31.253" rx="5.23494" transform="matrix(0.705392 0.708817 -0.705392 0.708817 1315.38 1335.25)" stroke="#E0F4F3" stroke-width="2"/>
</g>
<path d="M1301.83 1356.17C1299.54 1353.87 1296.6 1352.3 1292.72 1351.04C1296.61 1349.78 1299.56 1348.2 1301.86 1345.89C1304.17 1343.56 1305.76 1340.57 1307.05 1336.6C1308.33 1340.53 1309.9 1343.51 1312.2 1345.83C1314.48 1348.13 1317.42 1349.7 1321.29 1350.96C1317.39 1352.24 1314.44 1353.83 1312.14 1356.14C1309.83 1358.46 1308.25 1361.44 1306.96 1365.37C1305.7 1361.45 1304.13 1358.48 1301.83 1356.17Z" stroke="#E0F4F3" stroke-width="2"/>
<rect x="1304.18" y="1348.09" width="5.6452" height="5.68233" rx="2.8226" fill="#46958F" stroke="#E0F4F3" stroke-width="2"/>
</g>
<g opacity="0.5">
<g opacity="0.5">
<rect x="1.41078" width="15.3193" height="44.1848" rx="7.65965" transform="matrix(0.705392 -0.708817 0.705392 0.708817 1771.73 975.832)" stroke="#E0F4F3" stroke-width="2"/>
<rect y="1.41763" width="15.3193" height="44.1848" rx="7.65965" transform="matrix(0.705392 0.708817 -0.705392 0.708817 1804.89 962.969)" stroke="#E0F4F3" stroke-width="2"/>
</g>
<path d="M1786.18 992.462C1782.83 989.1 1778.45 986.865 1772.5 985.062C1778.46 983.249 1782.85 981.004 1786.22 977.626C1789.6 974.233 1791.86 969.779 1793.7 963.707C1795.54 969.727 1797.78 974.159 1801.13 977.538C1804.47 980.906 1808.84 983.147 1814.78 984.944C1808.8 986.775 1804.41 989.032 1801.04 992.413C1797.67 995.8 1795.42 1000.23 1793.58 1006.26C1791.78 1000.25 1789.54 995.831 1786.18 992.462Z" stroke="#E0F4F3" stroke-width="2"/>
<rect x="1789.33" y="980.574" width="8.61834" height="8.6699" rx="4.30917" fill="#46958F" stroke="#E0F4F3" stroke-width="2"/>
</g>
<g opacity="0.5">
<g opacity="0.5">
<rect x="1.41078" width="23.1056" height="64.9483" rx="11.5528" transform="matrix(0.705392 -0.708817 0.705392 0.708817 844.826 1801.5)" stroke="#E0F4F3" stroke-width="2"/>
<rect y="1.41763" width="23.1056" height="64.9483" rx="11.5528" transform="matrix(0.705392 0.708817 -0.705392 0.708817 892.635 1783.12)" stroke="#E0F4F3" stroke-width="2"/>
</g>
<path d="M865.646 1826.37C860.594 1821.3 853.881 1818.01 844.552 1815.33C853.905 1812.64 860.63 1809.33 865.703 1804.23C870.791 1799.12 874.126 1792.31 876.872 1782.79C879.598 1792.23 882.9 1799.01 887.951 1804.1C892.991 1809.18 899.682 1812.49 909.011 1815.16C899.632 1817.88 892.897 1821.21 887.825 1826.3C882.748 1831.41 879.425 1838.2 876.694 1847.65C874.008 1838.22 870.705 1831.45 865.646 1826.37Z" stroke="#E0F4F3" stroke-width="2"/>
<rect x="870.082" y="1808.37" width="13.3921" height="13.4668" rx="6.69604" fill="#46958F" stroke="#E0F4F3" stroke-width="2"/>
</g>
<g opacity="0.5">
<g opacity="0.5">
<rect x="1.41078" width="15.3193" height="44.1848" rx="7.65965" transform="matrix(0.705392 -0.708817 0.705392 0.708817 784.965 1618.83)" stroke="#E0F4F3" stroke-width="2"/>
<rect y="1.41763" width="15.3193" height="44.1848" rx="7.65965" transform="matrix(0.705392 0.708817 -0.705392 0.708817 818.128 1605.97)" stroke="#E0F4F3" stroke-width="2"/>
</g>
<path d="M799.418 1635.46C796.068 1632.1 791.686 1629.86 785.744 1628.06C791.702 1626.25 796.093 1624 799.457 1620.63C802.836 1617.23 805.097 1612.78 806.943 1606.71C808.776 1612.73 811.015 1617.16 814.367 1620.54C817.709 1623.91 822.078 1626.15 828.02 1627.94C822.043 1629.77 817.645 1632.03 814.281 1635.41C810.912 1638.8 808.659 1643.23 806.823 1649.26C805.015 1643.25 802.775 1638.83 799.418 1635.46Z" stroke="#E0F4F3" stroke-width="2"/>
<rect x="802.57" y="1623.57" width="8.61834" height="8.6699" rx="4.30917" fill="#46958F" stroke="#E0F4F3" stroke-width="2"/>
</g>
<g opacity="0.5">
<g opacity="0.5">
<rect x="1.41078" width="15.3193" height="44.1848" rx="7.65965" transform="matrix(0.705392 -0.708817 0.705392 0.708817 1600.01 1692.83)" stroke="#E0F4F3" stroke-width="2"/>
<rect y="1.41763" width="15.3193" height="44.1848" rx="7.65965" transform="matrix(0.705392 0.708817 -0.705392 0.708817 1633.17 1679.97)" stroke="#E0F4F3" stroke-width="2"/>
</g>
<path d="M1614.46 1709.46C1611.11 1706.1 1606.73 1703.86 1600.79 1702.06C1606.75 1700.25 1611.14 1698 1614.5 1694.63C1617.88 1691.23 1620.14 1686.78 1621.99 1680.71C1623.82 1686.73 1626.06 1691.16 1629.41 1694.54C1632.75 1697.91 1637.12 1700.15 1643.06 1701.94C1637.09 1703.77 1632.69 1706.03 1629.32 1709.41C1625.95 1712.8 1623.7 1717.23 1621.87 1723.26C1620.06 1717.25 1617.82 1712.83 1614.46 1709.46Z" stroke="#E0F4F3" stroke-width="2"/>
<rect x="1617.61" y="1697.57" width="8.61834" height="8.6699" rx="4.30917" fill="#46958F" stroke="#E0F4F3" stroke-width="2"/>
</g>
<g opacity="0.5">
<g opacity="0.5">
<rect x="1.41078" width="15.3193" height="44.1848" rx="7.65965" transform="matrix(0.705392 -0.708817 0.705392 0.708817 843.68 1451.83)" stroke="#E0F4F3" stroke-width="2"/>
<rect y="1.41763" width="15.3193" height="44.1848" rx="7.65965" transform="matrix(0.705392 0.708817 -0.705392 0.708817 876.842 1438.97)" stroke="#E0F4F3" stroke-width="2"/>
</g>
<path d="M858.132 1468.46C854.782 1465.1 850.4 1462.86 844.458 1461.06C850.417 1459.25 854.808 1457 858.171 1453.63C861.55 1450.23 863.812 1445.78 865.658 1439.71C867.49 1445.73 869.729 1450.16 873.082 1453.54C876.424 1456.91 880.792 1459.15 886.735 1460.94C880.757 1462.77 876.36 1465.03 872.995 1468.41C869.626 1471.8 867.374 1476.23 865.537 1482.26C863.729 1476.25 861.489 1471.83 858.132 1468.46Z" stroke="#E0F4F3" stroke-width="2"/>
<rect x="861.284" y="1456.57" width="8.61834" height="8.6699" rx="4.30917" fill="#46958F" stroke="#E0F4F3" stroke-width="2"/>
</g>
<g opacity="0.5">
<g opacity="0.5">
<rect x="1.41078" width="10.4699" height="31.253" rx="5.23494" transform="matrix(0.705392 -0.708817 0.705392 0.708817 1608.25 1378.68)" stroke="#E0F4F3" stroke-width="2"/>
<rect y="1.41763" width="10.4699" height="31.253" rx="5.23494" transform="matrix(0.705392 0.708817 -0.705392 0.708817 1632.29 1369.25)" stroke="#E0F4F3" stroke-width="2"/>
</g>
<path d="M1618.74 1390.17C1616.45 1387.87 1613.51 1386.3 1609.63 1385.04C1613.52 1383.78 1616.46 1382.2 1618.76 1379.89C1621.08 1377.56 1622.67 1374.57 1623.96 1370.6C1625.24 1374.53 1626.81 1377.51 1629.11 1379.83C1631.39 1382.13 1634.32 1383.7 1638.2 1384.96C1634.3 1386.24 1631.34 1387.83 1629.04 1390.14C1626.74 1392.46 1625.15 1395.44 1623.87 1399.37C1622.61 1395.45 1621.03 1392.48 1618.74 1390.17Z" stroke="#E0F4F3" stroke-width="2"/>
<rect x="1621.09" y="1382.09" width="5.6452" height="5.68233" rx="2.8226" fill="#46958F" stroke="#E0F4F3" stroke-width="2"/>
</g>
<g opacity="0.5">
<g opacity="0.5">
<rect x="1.41078" width="10.4699" height="31.253" rx="5.23494" transform="matrix(0.705392 -0.708817 0.705392 0.708817 880.783 1550.68)" stroke="#E0F4F3" stroke-width="2"/>
<rect y="1.41763" width="10.4699" height="31.253" rx="5.23494" transform="matrix(0.705392 0.708817 -0.705392 0.708817 904.823 1541.25)" stroke="#E0F4F3" stroke-width="2"/>
</g>
<path d="M891.269 1562.17C888.978 1559.87 886.038 1558.3 882.162 1557.04C886.05 1555.78 888.997 1554.2 891.298 1551.89C893.612 1549.56 895.202 1546.57 896.491 1542.6C897.769 1546.53 899.342 1549.51 901.638 1551.83C903.924 1554.13 906.856 1555.7 910.732 1556.96C906.83 1558.24 903.878 1559.83 901.576 1562.14C899.27 1564.46 897.687 1567.44 896.405 1571.37C895.141 1567.45 893.567 1564.48 891.269 1562.17Z" stroke="#E0F4F3" stroke-width="2"/>
<rect x="893.621" y="1554.09" width="5.6452" height="5.68233" rx="2.8226" fill="#46958F" stroke="#E0F4F3" stroke-width="2"/>
</g>
<g opacity="0.5">
<g opacity="0.5">
<rect x="1.41078" width="10.4699" height="31.253" rx="5.23494" transform="matrix(0.705392 -0.708817 0.705392 0.708817 1589.34 1848.68)" stroke="#E0F4F3" stroke-width="2"/>
<rect y="1.41763" width="10.4699" height="31.253" rx="5.23494" transform="matrix(0.705392 0.708817 -0.705392 0.708817 1613.38 1839.25)" stroke="#E0F4F3" stroke-width="2"/>
</g>
<path d="M1599.83 1860.17C1597.54 1857.87 1594.6 1856.3 1590.72 1855.04C1594.61 1853.78 1597.56 1852.2 1599.86 1849.89C1602.17 1847.56 1603.76 1844.57 1605.05 1840.6C1606.33 1844.53 1607.9 1847.51 1610.2 1849.83C1612.48 1852.13 1615.42 1853.7 1619.29 1854.96C1615.39 1856.24 1612.44 1857.83 1610.14 1860.14C1607.83 1862.46 1606.25 1865.44 1604.96 1869.37C1603.7 1865.45 1602.13 1862.48 1599.83 1860.17Z" stroke="#E0F4F3" stroke-width="2"/>
<rect x="1602.18" y="1852.09" width="5.6452" height="5.68233" rx="2.8226" fill="#46958F" stroke="#E0F4F3" stroke-width="2"/>
</g>
</g>
<defs>
<clipPath id="clip0_142_3706">
<rect width="1920" height="2002" fill="white"/>
</clipPath>
</defs>
</svg>
