<svg width="209" height="46" viewBox="0 0 209 46" fill="none" xmlns="http://www.w3.org/2000/svg">
<path d="M0 15C0 6.71573 6.71573 0 15 0H194C202.284 0 209 6.71573 209 15V31C209 39.2843 202.284 46 194 46H15C6.71572 46 0 39.2843 0 31V15Z" fill="#FCFFFF"/>
<path d="M17.9 13.28H27.94V16.08H20.8V19.22H27.12V22.02H20.8V25.2H28.22V28H17.9V13.28ZM33.5003 19.26L33.7203 20.82L33.6803 20.68C33.987 20.1333 34.4203 19.6933 34.9803 19.36C35.5403 19.0133 36.227 18.84 37.0403 18.84C37.867 18.84 38.5536 19.0867 39.1003 19.58C39.6603 20.06 39.947 20.6867 39.9603 21.46V28H37.1603V22.5C37.147 22.1133 37.0403 21.8067 36.8403 21.58C36.6536 21.34 36.3336 21.22 35.8803 21.22C35.4536 21.22 35.0803 21.36 34.7603 21.64C34.4403 21.92 34.1936 22.3 34.0203 22.78C33.847 23.26 33.7603 23.8133 33.7603 24.44V28H30.9603V19.26H33.5003ZM47.5553 32.4C46.7686 32.4 46.102 32.3067 45.5553 32.12C45.022 31.9333 44.5686 31.7067 44.1953 31.44C43.822 31.1733 43.4886 30.92 43.1953 30.68L44.8353 28.76C45.142 29.04 45.4953 29.3067 45.8953 29.56C46.3086 29.8267 46.8486 29.96 47.5153 29.96C47.9553 29.96 48.362 29.88 48.7353 29.72C49.122 29.5733 49.4286 29.3533 49.6553 29.06C49.8953 28.7667 50.0153 28.4 50.0153 27.96V26.04L50.1153 26.54C49.902 26.9933 49.5153 27.3933 48.9553 27.74C48.3953 28.0733 47.662 28.24 46.7553 28.24C45.9686 28.24 45.2353 28.04 44.5553 27.64C43.8886 27.2267 43.3553 26.6733 42.9553 25.98C42.5553 25.2733 42.3553 24.4733 42.3553 23.58C42.3553 22.66 42.5686 21.8467 42.9953 21.14C43.422 20.42 43.9753 19.8533 44.6553 19.44C45.3353 19.0267 46.0553 18.82 46.8153 18.82C47.5753 18.82 48.2286 18.9333 48.7753 19.16C49.3353 19.3733 49.7553 19.64 50.0353 19.96L49.9353 20.22L50.2353 19.26H52.8153V28C52.8153 28.8533 52.5753 29.6067 52.0953 30.26C51.6153 30.9267 50.9753 31.4467 50.1753 31.82C49.3886 32.2067 48.5153 32.4 47.5553 32.4ZM45.1753 23.5C45.1753 23.9667 45.282 24.3867 45.4953 24.76C45.7086 25.1333 45.9953 25.4267 46.3553 25.64C46.7286 25.8533 47.142 25.96 47.5953 25.96C47.982 25.96 48.322 25.9133 48.6153 25.82C48.922 25.7133 49.1886 25.5667 49.4153 25.38C49.6553 25.18 49.8553 24.9333 50.0153 24.64V22.5C49.8953 22.2067 49.7153 21.96 49.4753 21.76C49.2353 21.5467 48.9553 21.3867 48.6353 21.28C48.3286 21.16 47.982 21.1 47.5953 21.1C47.142 21.1 46.7286 21.2067 46.3553 21.42C45.9953 21.62 45.7086 21.9 45.4953 22.26C45.282 22.62 45.1753 23.0333 45.1753 23.5ZM55.8916 12.22H58.6916V28H55.8916V12.22ZM61.7752 19.26H64.5752V28H61.7752V19.26ZM61.7152 16.16C61.7152 15.7467 61.8752 15.4067 62.1952 15.14C62.5285 14.8733 62.8818 14.74 63.2552 14.74C63.6285 14.74 63.9685 14.8733 64.2752 15.14C64.5952 15.4067 64.7552 15.7467 64.7552 16.16C64.7552 16.5733 64.5952 16.9133 64.2752 17.18C63.9685 17.4333 63.6285 17.56 63.2552 17.56C62.8818 17.56 62.5285 17.4333 62.1952 17.18C61.8752 16.9133 61.7152 16.5733 61.7152 16.16ZM70.4988 28.18C69.7788 28.18 69.1054 28.0533 68.4788 27.8C67.8654 27.5467 67.3454 27.1933 66.9188 26.74L68.0788 25.2C68.5054 25.5867 68.8988 25.8667 69.2588 26.04C69.6321 26.2 69.9654 26.28 70.2588 26.28C70.4854 26.28 70.6854 26.26 70.8588 26.22C71.0454 26.1667 71.1921 26.0933 71.2988 26C71.4054 25.8933 71.4588 25.76 71.4588 25.6C71.4588 25.3733 71.3654 25.1933 71.1788 25.06C71.0054 24.9267 70.7788 24.82 70.4988 24.74C70.2188 24.6467 69.9188 24.5533 69.5988 24.46C68.7988 24.2067 68.2188 23.84 67.8588 23.36C67.5121 22.8667 67.3388 22.3333 67.3388 21.76C67.3388 21.32 67.4521 20.88 67.6788 20.44C67.9188 19.9867 68.2921 19.6133 68.7988 19.32C69.3188 19.0133 69.9854 18.86 70.7988 18.86C71.5321 18.86 72.1521 18.9333 72.6588 19.08C73.1654 19.2267 73.6454 19.4667 74.0988 19.8L73.0388 21.44C72.7854 21.24 72.4988 21.0733 72.1788 20.94C71.8721 20.7933 71.5854 20.7133 71.3188 20.7C71.0788 20.6867 70.8721 20.7133 70.6988 20.78C70.5388 20.8467 70.4121 20.9333 70.3188 21.04C70.2254 21.1467 70.1788 21.26 70.1788 21.38C70.1654 21.6333 70.2588 21.8333 70.4588 21.98C70.6721 22.1267 70.9388 22.24 71.2588 22.32C71.5788 22.4 71.8921 22.4933 72.1988 22.6C72.6254 22.7333 72.9921 22.9133 73.2988 23.14C73.6054 23.3667 73.8388 23.64 73.9988 23.96C74.1721 24.2667 74.2588 24.64 74.2588 25.08C74.2588 25.6133 74.1188 26.12 73.8388 26.6C73.5721 27.0667 73.1588 27.4467 72.5988 27.74C72.0521 28.0333 71.3521 28.18 70.4988 28.18ZM76.8041 28V12.22H79.5441V21.02L79.5241 20.68C79.8307 20.1333 80.2641 19.6933 80.8241 19.36C81.3841 19.0133 82.0707 18.84 82.8841 18.84C83.7107 18.84 84.3974 19.0867 84.9441 19.58C85.5041 20.06 85.7907 20.6867 85.8041 21.46V28H83.0041V22.5C82.9907 22.1133 82.8841 21.8067 82.6841 21.58C82.4974 21.34 82.1774 21.22 81.7241 21.22C81.2974 21.22 80.9241 21.36 80.6041 21.64C80.2841 21.92 80.0374 22.3 79.8641 22.78C79.6907 23.26 79.6041 23.8133 79.6041 24.44V28H76.8041ZM96.043 13.28H98.943V25.2H105.863V28H96.043V13.28ZM112.275 28.24C111.462 28.24 110.722 28.08 110.055 27.76C109.402 27.4267 108.882 26.92 108.495 26.24C108.109 25.56 107.915 24.6933 107.915 23.64C107.915 22.6533 108.115 21.8 108.515 21.08C108.915 20.36 109.442 19.8067 110.095 19.42C110.749 19.02 111.442 18.82 112.175 18.82C113.042 18.82 113.695 18.9667 114.135 19.26C114.589 19.54 114.962 19.8533 115.255 20.2L115.135 20.54L115.395 19.26H117.995V28H115.195V26.1L115.415 26.7C115.389 26.7 115.309 26.78 115.175 26.94C115.042 27.0867 114.842 27.2667 114.575 27.48C114.322 27.68 114.002 27.8533 113.615 28C113.242 28.16 112.795 28.24 112.275 28.24ZM113.075 25.96C113.409 25.96 113.709 25.9133 113.975 25.82C114.242 25.7133 114.475 25.5667 114.675 25.38C114.875 25.18 115.049 24.9333 115.195 24.64V22.5C115.089 22.2067 114.929 21.96 114.715 21.76C114.502 21.5467 114.249 21.3867 113.955 21.28C113.662 21.16 113.335 21.1 112.975 21.1C112.575 21.1 112.202 21.2067 111.855 21.42C111.522 21.62 111.255 21.9 111.055 22.26C110.855 22.62 110.755 23.0333 110.755 23.5C110.755 23.9667 110.862 24.3867 111.075 24.76C111.289 25.1333 111.569 25.4267 111.915 25.64C112.275 25.8533 112.662 25.96 113.075 25.96ZM123.621 19.26L123.841 20.82L123.801 20.68C124.107 20.1333 124.541 19.6933 125.101 19.36C125.661 19.0133 126.347 18.84 127.161 18.84C127.987 18.84 128.674 19.0867 129.221 19.58C129.781 20.06 130.067 20.6867 130.081 21.46V28H127.281V22.5C127.267 22.1133 127.161 21.8067 126.961 21.58C126.774 21.34 126.454 21.22 126.001 21.22C125.574 21.22 125.201 21.36 124.881 21.64C124.561 21.92 124.314 22.3 124.141 22.78C123.967 23.26 123.881 23.8133 123.881 24.44V28H121.081V19.26H123.621ZM137.676 32.4C136.889 32.4 136.222 32.3067 135.676 32.12C135.142 31.9333 134.689 31.7067 134.316 31.44C133.942 31.1733 133.609 30.92 133.316 30.68L134.956 28.76C135.262 29.04 135.616 29.3067 136.016 29.56C136.429 29.8267 136.969 29.96 137.636 29.96C138.076 29.96 138.482 29.88 138.856 29.72C139.242 29.5733 139.549 29.3533 139.776 29.06C140.016 28.7667 140.136 28.4 140.136 27.96V26.04L140.236 26.54C140.022 26.9933 139.636 27.3933 139.076 27.74C138.516 28.0733 137.782 28.24 136.876 28.24C136.089 28.24 135.356 28.04 134.676 27.64C134.009 27.2267 133.476 26.6733 133.076 25.98C132.676 25.2733 132.476 24.4733 132.476 23.58C132.476 22.66 132.689 21.8467 133.116 21.14C133.542 20.42 134.096 19.8533 134.776 19.44C135.456 19.0267 136.176 18.82 136.936 18.82C137.696 18.82 138.349 18.9333 138.896 19.16C139.456 19.3733 139.876 19.64 140.156 19.96L140.056 20.22L140.356 19.26H142.936V28C142.936 28.8533 142.696 29.6067 142.216 30.26C141.736 30.9267 141.096 31.4467 140.296 31.82C139.509 32.2067 138.636 32.4 137.676 32.4ZM135.296 23.5C135.296 23.9667 135.402 24.3867 135.616 24.76C135.829 25.1333 136.116 25.4267 136.476 25.64C136.849 25.8533 137.262 25.96 137.716 25.96C138.102 25.96 138.442 25.9133 138.736 25.82C139.042 25.7133 139.309 25.5667 139.536 25.38C139.776 25.18 139.976 24.9333 140.136 24.64V22.5C140.016 22.2067 139.836 21.96 139.596 21.76C139.356 21.5467 139.076 21.3867 138.756 21.28C138.449 21.16 138.102 21.1 137.716 21.1C137.262 21.1 136.849 21.2067 136.476 21.42C136.116 21.62 135.829 21.9 135.616 22.26C135.402 22.62 135.296 23.0333 135.296 23.5ZM148.832 28.42C148.045 28.42 147.385 28.18 146.852 27.7C146.319 27.2067 146.039 26.5733 146.012 25.8V19.26H148.812V24.76C148.839 25.1467 148.939 25.46 149.112 25.7C149.285 25.9267 149.579 26.04 149.992 26.04C150.405 26.04 150.759 25.9 151.052 25.62C151.359 25.34 151.592 24.96 151.752 24.48C151.925 23.9867 152.012 23.4333 152.012 22.82V19.26H154.812V28H152.272L152.052 26.4L152.092 26.58C151.892 26.94 151.639 27.26 151.332 27.54C151.025 27.82 150.659 28.0333 150.232 28.18C149.819 28.34 149.352 28.42 148.832 28.42ZM161.572 28.24C160.758 28.24 160.018 28.08 159.352 27.76C158.698 27.4267 158.178 26.92 157.792 26.24C157.405 25.56 157.212 24.6933 157.212 23.64C157.212 22.6533 157.412 21.8 157.812 21.08C158.212 20.36 158.738 19.8067 159.392 19.42C160.045 19.02 160.738 18.82 161.472 18.82C162.338 18.82 162.992 18.9667 163.432 19.26C163.885 19.54 164.258 19.8533 164.552 20.2L164.432 20.54L164.692 19.26H167.292V28H164.492V26.1L164.712 26.7C164.685 26.7 164.605 26.78 164.472 26.94C164.338 27.0867 164.138 27.2667 163.872 27.48C163.618 27.68 163.298 27.8533 162.912 28C162.538 28.16 162.092 28.24 161.572 28.24ZM162.372 25.96C162.705 25.96 163.005 25.9133 163.272 25.82C163.538 25.7133 163.772 25.5667 163.972 25.38C164.172 25.18 164.345 24.9333 164.492 24.64V22.5C164.385 22.2067 164.225 21.96 164.012 21.76C163.798 21.5467 163.545 21.3867 163.252 21.28C162.958 21.16 162.632 21.1 162.272 21.1C161.872 21.1 161.498 21.2067 161.152 21.42C160.818 21.62 160.552 21.9 160.352 22.26C160.152 22.62 160.052 23.0333 160.052 23.5C160.052 23.9667 160.158 24.3867 160.372 24.76C160.585 25.1333 160.865 25.4267 161.212 25.64C161.572 25.8533 161.958 25.96 162.372 25.96ZM174.897 32.4C174.11 32.4 173.443 32.3067 172.897 32.12C172.363 31.9333 171.91 31.7067 171.537 31.44C171.163 31.1733 170.83 30.92 170.537 30.68L172.177 28.76C172.483 29.04 172.837 29.3067 173.237 29.56C173.65 29.8267 174.19 29.96 174.857 29.96C175.297 29.96 175.703 29.88 176.077 29.72C176.463 29.5733 176.77 29.3533 176.997 29.06C177.237 28.7667 177.357 28.4 177.357 27.96V26.04L177.457 26.54C177.243 26.9933 176.857 27.3933 176.297 27.74C175.737 28.0733 175.003 28.24 174.097 28.24C173.31 28.24 172.577 28.04 171.897 27.64C171.23 27.2267 170.697 26.6733 170.297 25.98C169.897 25.2733 169.697 24.4733 169.697 23.58C169.697 22.66 169.91 21.8467 170.337 21.14C170.763 20.42 171.317 19.8533 171.997 19.44C172.677 19.0267 173.397 18.82 174.157 18.82C174.917 18.82 175.57 18.9333 176.117 19.16C176.677 19.3733 177.097 19.64 177.377 19.96L177.277 20.22L177.577 19.26H180.157V28C180.157 28.8533 179.917 29.6067 179.437 30.26C178.957 30.9267 178.317 31.4467 177.517 31.82C176.73 32.2067 175.857 32.4 174.897 32.4ZM172.517 23.5C172.517 23.9667 172.623 24.3867 172.837 24.76C173.05 25.1333 173.337 25.4267 173.697 25.64C174.07 25.8533 174.483 25.96 174.937 25.96C175.323 25.96 175.663 25.9133 175.957 25.82C176.263 25.7133 176.53 25.5667 176.757 25.38C176.997 25.18 177.197 24.9333 177.357 24.64V22.5C177.237 22.2067 177.057 21.96 176.817 21.76C176.577 21.5467 176.297 21.3867 175.977 21.28C175.67 21.16 175.323 21.1 174.937 21.1C174.483 21.1 174.07 21.2067 173.697 21.42C173.337 21.62 173.05 21.9 172.837 22.26C172.623 22.62 172.517 23.0333 172.517 23.5ZM187.533 28.24C186.466 28.24 185.56 28.04 184.813 27.64C184.08 27.24 183.52 26.6867 183.133 25.98C182.746 25.2733 182.553 24.46 182.553 23.54C182.553 22.66 182.78 21.8667 183.233 21.16C183.686 20.4533 184.293 19.8933 185.053 19.48C185.813 19.0533 186.66 18.84 187.593 18.84C188.846 18.84 189.873 19.2067 190.673 19.94C191.486 20.66 192.013 21.7067 192.253 23.08L185.453 25.24L184.833 23.72L189.753 22.06L189.173 22.32C189.066 21.9733 188.873 21.6733 188.593 21.42C188.326 21.1533 187.92 21.02 187.373 21.02C186.96 21.02 186.593 21.12 186.273 21.32C185.966 21.5067 185.726 21.78 185.553 22.14C185.393 22.4867 185.313 22.9 185.313 23.38C185.313 23.9267 185.413 24.3867 185.613 24.76C185.813 25.12 186.086 25.3933 186.433 25.58C186.78 25.7667 187.166 25.86 187.593 25.86C187.9 25.86 188.193 25.8067 188.473 25.7C188.766 25.5933 189.053 25.4533 189.333 25.28L190.573 27.36C190.106 27.6267 189.6 27.84 189.053 28C188.52 28.16 188.013 28.24 187.533 28.24Z" fill="#3B8E89"/>
</svg>
