<svg width="298" height="163" viewBox="0 0 298 163" fill="none" xmlns="http://www.w3.org/2000/svg">
<g filter="url(#filter0_i_138_5930)">
<rect x="10" y="10" width="278" height="142.999" rx="20" fill="#46958F"/>
<path d="M175.877 67.5389C175.877 77.0546 168.187 70.7493 158.73 70.7493C149.272 70.7493 141.578 77.0533 141.578 67.5389C141.578 60.4881 145.794 46.7316 151.831 40.0824L149.552 34.293C149.453 34.0396 149.417 33.7658 149.446 33.4952C149.476 33.2246 149.57 32.9653 149.722 32.7396C149.873 32.514 150.077 32.3288 150.315 32.1999C150.553 32.071 150.819 32.0024 151.09 32H166.356C166.629 31.9971 166.898 32.0622 167.139 32.1896C167.38 32.317 167.586 32.5026 167.739 32.7299C167.891 32.9571 167.985 33.2189 168.012 33.4917C168.039 33.7645 167.999 34.0398 167.894 34.293L165.624 40.0824C171.657 46.7316 175.877 60.493 175.877 67.5389Z" fill="#E0F4F3" stroke="black" stroke-linecap="round" stroke-linejoin="round"/>
<path d="M165.619 40.5401H151.833C151.772 40.5409 151.713 40.5296 151.657 40.5068C151.601 40.484 151.551 40.4502 151.508 40.4073C151.466 40.3645 151.432 40.3135 151.41 40.2574C151.387 40.2013 151.376 40.1412 151.377 40.0808C151.372 40.0192 151.38 39.9571 151.4 39.899C151.421 39.8408 151.455 39.788 151.498 39.7443C151.542 39.7005 151.594 39.667 151.652 39.646C151.71 39.6249 151.771 39.617 151.833 39.6227H165.619C165.74 39.6227 165.856 39.671 165.942 39.757C166.027 39.843 166.075 39.9597 166.075 40.0814C166.075 40.203 166.027 40.3197 165.942 40.4057C165.856 40.4918 165.74 40.5401 165.619 40.5401Z" fill="black" stroke="black" stroke-linecap="round" stroke-linejoin="round"/>
<path d="M165.047 51.1002V52.4425C165.05 52.4984 165.04 52.5542 165.02 52.6064C165 52.6585 164.969 52.7058 164.93 52.7454C164.89 52.785 164.843 52.8159 164.792 52.8363C164.74 52.8567 164.684 52.866 164.629 52.8638H162.432C162.265 54.0647 161.664 55.1616 160.743 55.944C159.711 56.7785 158.453 57.2828 157.133 57.392C158.589 58.9542 160.591 61.3061 163.138 64.4477C163.196 64.5051 163.233 64.5806 163.243 64.6619C163.252 64.7432 163.234 64.8253 163.191 64.8947C163.161 64.9695 163.108 65.0328 163.039 65.0754C162.971 65.1179 162.891 65.1377 162.811 65.1317H160.256C160.193 65.1344 160.13 65.1213 160.073 65.0937C160.016 65.066 159.967 65.0247 159.929 64.9733C157.26 61.7531 155.088 59.2477 153.414 57.457C153.375 57.4198 153.344 57.3748 153.323 57.3249C153.302 57.2751 153.291 57.2214 153.292 57.1672V55.4957C153.293 55.3845 153.338 55.2782 153.416 55.1996C153.494 55.1209 153.6 55.076 153.71 55.0744H155.175C156.134 55.1159 157.088 54.9216 157.956 54.5083C158.283 54.3463 158.573 54.1157 158.804 53.8318C159.036 53.5479 159.204 53.2174 159.298 52.8625H153.711C153.656 52.8648 153.6 52.8554 153.549 52.8351C153.497 52.8147 153.45 52.7837 153.41 52.7442C153.371 52.7046 153.34 52.6573 153.32 52.6051C153.3 52.553 153.291 52.4972 153.293 52.4413V51.0989C153.291 51.043 153.3 50.9872 153.32 50.9351C153.34 50.883 153.371 50.8356 153.41 50.796C153.45 50.7565 153.497 50.7255 153.549 50.7052C153.6 50.6848 153.656 50.6754 153.711 50.6777H159.115C158.618 49.6862 157.449 49.1904 155.61 49.1904H153.713C153.602 49.1888 153.497 49.1439 153.418 49.0653C153.34 48.9866 153.296 48.8804 153.294 48.7691V47.019C153.292 46.9631 153.301 46.9073 153.321 46.8552C153.342 46.8031 153.372 46.7557 153.412 46.7162C153.451 46.6766 153.498 46.6456 153.55 46.6252C153.602 46.6049 153.657 46.5955 153.713 46.5978H164.597C164.653 46.5955 164.708 46.6049 164.76 46.6252C164.812 46.6456 164.859 46.6766 164.898 46.7162C164.937 46.7557 164.968 46.8031 164.988 46.8552C165.009 46.9073 165.018 46.9631 165.016 47.019V48.3614C165.018 48.4173 165.009 48.4731 164.988 48.5252C164.968 48.5773 164.937 48.6247 164.898 48.6643C164.859 48.7038 164.812 48.7348 164.76 48.7552C164.708 48.7755 164.653 48.7849 164.597 48.7827H161.545C161.966 49.3411 162.252 49.9896 162.383 50.6777H164.62C164.676 50.6754 164.731 50.6848 164.783 50.7052C164.835 50.7255 164.882 50.7565 164.921 50.796C164.96 50.8356 164.991 50.883 165.011 50.9351C165.032 50.9872 165.041 51.043 165.039 51.0989L165.047 51.1002Z" fill="#3B8E89"/>
<path d="M180.318 73.8998L175.76 76.4224C171.083 79.0015 165.907 80.5316 160.587 80.9077C155.267 81.2838 149.929 80.4969 144.94 78.6012L139.186 76.3659C138.624 76.1417 138.025 76.0251 137.42 76.0221H132.293V62.7802H139.585C140.129 62.7866 140.668 62.8833 141.181 63.0663L147.673 65.2451C150.042 66.0436 152.524 66.4501 155.023 66.4487H161.118C161.571 66.4441 162.02 66.5295 162.44 66.7C162.86 66.8705 163.243 67.1228 163.565 67.4422C163.888 67.7617 164.145 68.1421 164.322 68.5617C164.498 68.9814 164.59 69.4319 164.593 69.8875C164.575 70.7314 164.227 71.5342 163.626 72.1227C163.404 72.3449 163.155 72.5377 162.885 72.6962L177.754 68.1103C178.498 67.8342 179.318 67.8454 180.055 68.1419C180.791 68.4384 181.392 68.999 181.742 69.7155C182.056 70.4673 182.085 71.3092 181.822 72.0809C181.56 72.8525 181.024 73.4999 180.318 73.8998V73.8998Z" fill="#F7F7F7" stroke="black" stroke-linecap="round" stroke-linejoin="round"/>
<path d="M162.826 72.697H154.338C153.948 72.6942 153.562 72.7694 153.201 72.9182C152.84 73.0671 152.513 73.2865 152.237 73.5638C151.961 73.8412 151.743 74.1709 151.595 74.5338C151.447 74.8967 151.373 75.2855 151.376 75.6777V75.6777" fill="#F7F7F7"/>
<path d="M162.826 72.697H154.338C153.948 72.6942 153.562 72.7694 153.201 72.9182C152.84 73.0671 152.513 73.2865 152.237 73.5638C151.961 73.8412 151.743 74.1709 151.595 74.5338C151.447 74.8967 151.373 75.2855 151.376 75.6777V75.6777" stroke="black" stroke-linecap="round" stroke-linejoin="round"/>
<path d="M134.514 60.8894H131.039V77.914H134.514V60.8894Z" fill="#E0F4F3" stroke="black" stroke-linecap="round" stroke-linejoin="round"/>
<path d="M131.096 59.5134V79.3455H122.153C118.248 73.4682 116.111 66.5821 115.999 59.5134H131.096Z" fill="#E0F4F3" stroke="black" stroke-linecap="round" stroke-linejoin="round"/>
<path d="M127.244 65.3767C128.239 65.3767 129.047 64.5646 129.047 63.5628C129.047 62.5609 128.239 61.7488 127.244 61.7488C126.248 61.7488 125.441 62.5609 125.441 63.5628C125.441 64.5646 126.248 65.3767 127.244 65.3767Z" fill="#3B8E89" stroke="black"/>
<path d="M92.84 92.0792C94.3067 92.0792 95.6533 92.2792 96.88 92.6792C98.1333 93.0525 99.2133 93.6258 100.12 94.3992C101.053 95.1458 101.773 96.0792 102.28 97.1992C102.813 98.2925 103.08 99.5725 103.08 101.039C103.08 102.186 102.907 103.306 102.56 104.399C102.24 105.493 101.693 106.493 100.92 107.399C100.147 108.279 99.1333 108.999 97.88 109.559C96.6533 110.093 95.1333 110.359 93.32 110.359H89.04V120.999H85.16V92.0792H92.84ZM93.24 106.639C94.3867 106.639 95.3333 106.466 96.08 106.119C96.8533 105.773 97.4533 105.333 97.88 104.799C98.3067 104.239 98.6133 103.639 98.8 102.999C98.9867 102.359 99.08 101.759 99.08 101.199C99.08 100.613 98.9733 100.013 98.76 99.3992C98.5733 98.7592 98.2533 98.1725 97.8 97.6392C97.3733 97.1058 96.8 96.6658 96.08 96.3192C95.3867 95.9725 94.5333 95.7992 93.52 95.7992H89.04V106.639H93.24ZM98 108.839L105.56 120.999H101.08L93.4 108.959L98 108.839ZM117.779 121.399C115.886 121.399 114.259 121.026 112.899 120.279C111.539 119.506 110.486 118.466 109.739 117.159C109.019 115.826 108.659 114.306 108.659 112.599C108.659 110.973 109.073 109.493 109.899 108.159C110.726 106.826 111.833 105.759 113.219 104.959C114.606 104.159 116.153 103.759 117.859 103.759C120.046 103.759 121.859 104.399 123.299 105.679C124.739 106.959 125.713 108.719 126.219 110.959L112.579 115.759L111.699 113.559L122.899 109.479L122.099 109.999C121.779 109.119 121.246 108.359 120.499 107.719C119.753 107.053 118.779 106.719 117.579 106.719C116.566 106.719 115.659 106.973 114.859 107.479C114.059 107.959 113.433 108.626 112.979 109.479C112.526 110.333 112.299 111.306 112.299 112.399C112.299 113.546 112.539 114.559 113.019 115.439C113.499 116.293 114.153 116.973 114.979 117.479C115.833 117.959 116.793 118.199 117.859 118.199C118.579 118.199 119.273 118.066 119.939 117.799C120.633 117.533 121.273 117.186 121.859 116.759L123.579 119.519C122.753 120.079 121.819 120.533 120.779 120.879C119.766 121.226 118.766 121.399 117.779 121.399ZM144.321 119.479C143.574 120.066 142.681 120.533 141.641 120.879C140.601 121.226 139.561 121.399 138.521 121.399C136.707 121.399 135.121 121.039 133.761 120.319C132.401 119.599 131.334 118.599 130.561 117.319C129.814 116.013 129.441 114.479 129.441 112.719C129.441 110.959 129.841 109.426 130.641 108.119C131.467 106.813 132.534 105.813 133.841 105.119C135.174 104.399 136.601 104.039 138.121 104.039C139.454 104.039 140.641 104.226 141.681 104.599C142.747 104.973 143.654 105.479 144.401 106.119L142.561 108.519C142.081 108.146 141.494 107.813 140.801 107.519C140.107 107.226 139.321 107.079 138.441 107.079C137.481 107.079 136.587 107.333 135.761 107.839C134.961 108.319 134.321 108.986 133.841 109.839C133.387 110.693 133.161 111.653 133.161 112.719C133.161 113.733 133.401 114.679 133.881 115.559C134.361 116.413 135.027 117.093 135.881 117.599C136.734 118.079 137.707 118.319 138.801 118.319C139.521 118.319 140.174 118.213 140.761 117.999C141.374 117.786 141.921 117.493 142.401 117.119L144.321 119.479ZM156.803 121.399C154.909 121.399 153.283 121.026 151.923 120.279C150.563 119.506 149.509 118.466 148.763 117.159C148.043 115.826 147.683 114.306 147.683 112.599C147.683 110.973 148.096 109.493 148.923 108.159C149.749 106.826 150.856 105.759 152.243 104.959C153.629 104.159 155.176 103.759 156.883 103.759C159.069 103.759 160.883 104.399 162.323 105.679C163.763 106.959 164.736 108.719 165.243 110.959L151.603 115.759L150.723 113.559L161.923 109.479L161.123 109.999C160.803 109.119 160.269 108.359 159.523 107.719C158.776 107.053 157.803 106.719 156.603 106.719C155.589 106.719 154.683 106.973 153.883 107.479C153.083 107.959 152.456 108.626 152.003 109.479C151.549 110.333 151.323 111.306 151.323 112.399C151.323 113.546 151.563 114.559 152.043 115.439C152.523 116.293 153.176 116.973 154.003 117.479C154.856 117.959 155.816 118.199 156.883 118.199C157.603 118.199 158.296 118.066 158.963 117.799C159.656 117.533 160.296 117.186 160.883 116.759L162.603 119.519C161.776 120.079 160.843 120.533 159.803 120.879C158.789 121.226 157.789 121.399 156.803 121.399ZM169.904 104.439H173.624V120.999H169.904V104.439ZM169.624 98.4392C169.624 97.8525 169.851 97.3592 170.304 96.9592C170.784 96.5592 171.304 96.3592 171.864 96.3592C172.424 96.3592 172.917 96.5592 173.344 96.9592C173.797 97.3592 174.024 97.8525 174.024 98.4392C174.024 99.0525 173.797 99.5592 173.344 99.9592C172.917 100.333 172.424 100.519 171.864 100.519C171.304 100.519 170.784 100.319 170.304 99.9192C169.851 99.5192 169.624 99.0258 169.624 98.4392ZM186.78 121.479L177.58 104.439H181.98L188.22 117.599L185.94 117.519L191.66 104.439H195.82L186.98 121.479H186.78ZM207.115 121.399C205.222 121.399 203.595 121.026 202.235 120.279C200.875 119.506 199.822 118.466 199.075 117.159C198.355 115.826 197.995 114.306 197.995 112.599C197.995 110.973 198.409 109.493 199.235 108.159C200.062 106.826 201.169 105.759 202.555 104.959C203.942 104.159 205.489 103.759 207.195 103.759C209.382 103.759 211.195 104.399 212.635 105.679C214.075 106.959 215.049 108.719 215.555 110.959L201.915 115.759L201.035 113.559L212.235 109.479L211.435 109.999C211.115 109.119 210.582 108.359 209.835 107.719C209.089 107.053 208.115 106.719 206.915 106.719C205.902 106.719 204.995 106.973 204.195 107.479C203.395 107.959 202.769 108.626 202.315 109.479C201.862 110.333 201.635 111.306 201.635 112.399C201.635 113.546 201.875 114.559 202.355 115.439C202.835 116.293 203.489 116.973 204.315 117.479C205.169 117.959 206.129 118.199 207.195 118.199C207.915 118.199 208.609 118.066 209.275 117.799C209.969 117.533 210.609 117.186 211.195 116.759L212.915 119.519C212.089 120.079 211.155 120.533 210.115 120.879C209.102 121.226 208.102 121.399 207.115 121.399Z" fill="white"/>
</g>
<defs>
<filter id="filter0_i_138_5930" x="4" y="4" width="284" height="148.999" filterUnits="userSpaceOnUse" color-interpolation-filters="sRGB">
<feFlood flood-opacity="0" result="BackgroundImageFix"/>
<feBlend mode="normal" in="SourceGraphic" in2="BackgroundImageFix" result="shape"/>
<feColorMatrix in="SourceAlpha" type="matrix" values="0 0 0 0 0 0 0 0 0 0 0 0 0 0 0 0 0 0 127 0" result="hardAlpha"/>
<feOffset dx="-6" dy="-6"/>
<feGaussianBlur stdDeviation="10"/>
<feComposite in2="hardAlpha" operator="arithmetic" k2="-1" k3="1"/>
<feColorMatrix type="matrix" values="0 0 0 0 0 0 0 0 0 0 0 0 0 0 0 0 0 0 0.29 0"/>
<feBlend mode="normal" in2="shape" result="effect1_innerShadow_138_5930"/>
</filter>
</defs>
</svg>
