<svg width="164" height="149" viewBox="0 0 164 149" fill="none" xmlns="http://www.w3.org/2000/svg">
<g opacity="0.6">
<mask id="mask0_138_5912" style="mask-type:alpha" maskUnits="userSpaceOnUse" x="35" y="8" width="95" height="87">
<path fill-rule="evenodd" clip-rule="evenodd" d="M35.8782 8.33539H129.621V94.6729H35.8782V8.33539Z" fill="white"/>
</mask>
<g mask="url(#mask0_138_5912)">
<path fill-rule="evenodd" clip-rule="evenodd" d="M61.166 72.6687C62.2791 72.6687 63.3923 72.7896 64.4811 73.0396C67.7672 73.7979 70.6206 75.6812 72.3122 78.2104C73.4108 79.7979 74.0184 81.652 74.0378 83.5437C74.0378 86.252 76.5753 88.4229 79.696 88.4229H85.7868C88.893 88.4229 91.4304 86.2645 91.445 83.6021C91.4255 80.6604 92.7672 77.8646 95.2219 75.7604C97.6427 73.6854 101.026 72.4396 104.409 72.5229C106.626 72.5687 108.76 73.0812 110.641 73.9979C113.349 75.327 116.805 74.5354 118.37 72.2437L121.598 67.6312C122.317 66.5687 122.526 65.2354 122.142 64.0062C121.763 62.7771 120.81 61.7104 119.527 61.0812C116.523 59.5979 114.379 57.2062 113.489 54.3396C112.61 51.5271 113.091 48.4562 114.807 45.9271C115.925 44.2604 117.563 42.8562 119.527 41.8896C122.161 40.5687 123.085 37.6146 121.554 35.3146C121.491 35.2229 121.432 35.1271 121.384 35.0271L118.535 30.7937C116.985 28.4812 113.533 27.6854 110.826 29.0062C107.899 30.4896 104.419 30.9146 101.075 30.1604C97.7351 29.4187 94.9352 27.6062 93.1901 25.0479C92.072 23.4479 91.4644 21.5854 91.445 19.6896C91.4887 18.2646 90.9054 16.9854 89.8457 16.0479C88.7909 15.1146 87.3083 14.5854 85.7868 14.5854H79.696C78.1891 14.5854 76.7794 15.0896 75.7149 15.9979C74.6552 16.9104 74.0767 18.1229 74.0864 19.4146C73.9844 25.5062 68.1755 30.4104 61.1417 30.4104C58.8862 30.3896 56.7133 29.8687 54.8273 28.9021C52.178 27.6104 48.717 28.4062 47.1664 30.7187L43.8755 35.3562C42.3686 37.5979 43.2922 40.5604 45.9754 41.8979C49.9566 43.8729 52.4405 47.5562 52.4405 51.5062C52.4405 55.4562 49.9566 59.1354 45.9657 61.1146C43.297 62.4396 42.3734 65.3854 43.9192 67.6771L46.9865 72.2104C47.7448 73.3812 48.9844 74.2271 50.4184 74.5729C51.8475 74.9146 53.4224 74.7687 54.7349 74.1437C56.6647 73.1729 58.9105 72.6687 61.166 72.6687ZM85.7868 94.6729H79.696C72.5552 94.6729 66.7464 89.6979 66.7464 83.5771C66.7366 82.8229 66.4839 82.0396 66.0124 81.3604C65.2492 80.2187 64.0145 79.4021 62.5902 79.0771C61.1757 78.7521 59.625 78.9312 58.3515 79.5646C55.2988 81.0229 51.7065 81.3771 48.4205 80.5854C45.1393 79.7896 42.3054 77.8562 40.6429 75.2937L37.6048 70.8062C34.0515 65.5229 36.166 58.7521 42.32 55.7021C44.0651 54.8396 45.1491 53.2312 45.1491 51.5062C45.1491 49.7812 44.0651 48.1687 42.32 47.3062C36.1611 44.2396 34.0515 37.4521 37.6 32.1687L40.8957 27.5312C44.4005 22.3062 52.3239 20.4646 58.5022 23.5062C59.3431 23.9354 60.257 24.1521 61.1854 24.1604C64.2138 24.1604 66.7464 22.0187 66.795 19.3854C66.7755 16.4812 68.1123 13.6937 70.5476 11.5896C72.9927 9.48955 76.2398 8.33539 79.696 8.33539H85.7868C89.2673 8.33539 92.6505 9.56039 95.0761 11.6896C97.4969 13.8312 98.8337 16.7687 98.7316 19.7479C98.7413 20.4187 98.9989 21.1937 99.4656 21.8729C100.238 22.9979 101.459 23.7896 102.907 24.1146C104.356 24.4229 105.872 24.2562 107.16 23.6021C113.383 20.5562 121.301 22.3812 124.854 27.6729L127.883 32.1687C127.961 32.2896 128.029 32.4062 128.087 32.5271C131.305 37.7396 129.156 44.3021 123.177 47.2979C122.307 47.7271 121.602 48.3271 121.116 49.0521C120.363 50.1729 120.154 51.5062 120.533 52.7312C120.922 53.9812 121.85 55.0187 123.158 55.6604C126.109 57.1146 128.311 59.5646 129.19 62.3937C130.07 65.2187 129.589 68.2854 127.873 70.8146L124.645 75.4229C121.092 80.6562 113.174 82.4687 107.015 79.4187C106.193 79.0145 105.245 78.7937 104.302 78.7729H104.273C102.868 78.7729 101.425 79.2854 100.375 80.1812C99.31 81.0937 98.7267 82.3104 98.7364 83.6021C98.7024 89.7229 92.8935 94.6729 85.7868 94.6729Z" fill="#3B8E89"/>
</g>
<path fill-rule="evenodd" clip-rule="evenodd" d="M82.7628 43.6442C77.7074 43.6442 73.595 47.1733 73.595 51.5067C73.595 55.84 77.7074 59.3608 82.7628 59.3608C87.8182 59.3608 91.9306 55.84 91.9306 51.5067C91.9306 47.1733 87.8182 43.6442 82.7628 43.6442ZM82.7628 65.6108C73.6873 65.6108 66.3035 59.2858 66.3035 51.5067C66.3035 43.7275 73.6873 37.3942 82.7628 37.3942C91.8382 37.3942 99.222 43.7275 99.222 51.5067C99.222 59.2858 91.8382 65.6108 82.7628 65.6108Z" fill="#3B8E89"/>
<path d="M19.6157 116.68C18.4957 116.067 17.349 115.56 16.1757 115.16C15.029 114.76 13.949 114.56 12.9357 114.56C11.6824 114.56 10.6957 114.813 9.9757 115.32C9.2557 115.827 8.8957 116.587 8.8957 117.6C8.8957 118.293 9.16237 118.92 9.6957 119.48C10.2557 120.013 10.9624 120.493 11.8157 120.92C12.6957 121.347 13.6024 121.733 14.5357 122.08C15.389 122.4 16.229 122.787 17.0557 123.24C17.909 123.667 18.669 124.213 19.3357 124.88C20.0024 125.52 20.5357 126.333 20.9357 127.32C21.3357 128.28 21.5357 129.467 21.5357 130.88C21.5357 132.373 21.149 133.76 20.3757 135.04C19.6024 136.32 18.469 137.36 16.9757 138.16C15.4824 138.933 13.6424 139.32 11.4557 139.32C10.3357 139.32 9.18904 139.213 8.0157 139C6.86904 138.76 5.7357 138.413 4.6157 137.96C3.4957 137.48 2.4157 136.88 1.3757 136.16L3.9357 131.64C4.62904 132.147 5.3757 132.6 6.1757 133C7.00237 133.373 7.82904 133.667 8.6557 133.88C9.48237 134.093 10.2424 134.2 10.9357 134.2C11.629 134.2 12.3224 134.107 13.0157 133.92C13.7357 133.707 14.3224 133.36 14.7757 132.88C15.2557 132.4 15.4957 131.733 15.4957 130.88C15.4957 130.293 15.2957 129.76 14.8957 129.28C14.5224 128.8 14.0024 128.36 13.3357 127.96C12.6957 127.56 11.989 127.213 11.2157 126.92C10.309 126.573 9.3757 126.173 8.4157 125.72C7.4557 125.267 6.54904 124.72 5.6957 124.08C4.86904 123.413 4.18904 122.6 3.6557 121.64C3.14904 120.653 2.8957 119.453 2.8957 118.04C2.8957 116.333 3.26904 114.853 4.0157 113.6C4.78904 112.347 5.86904 111.36 7.2557 110.64C8.64237 109.893 10.2424 109.48 12.0557 109.4C14.429 109.4 16.349 109.68 17.8157 110.24C19.309 110.8 20.6424 111.467 21.8157 112.24L19.6157 116.68ZM35.096 139.48C32.9627 139.48 31.1494 139.08 29.656 138.28C28.1893 137.48 27.0693 136.373 26.296 134.96C25.5227 133.547 25.136 131.92 25.136 130.08C25.136 128.32 25.5893 126.733 26.496 125.32C27.4027 123.907 28.616 122.787 30.136 121.96C31.656 121.107 33.3494 120.68 35.216 120.68C37.7227 120.68 39.776 121.413 41.376 122.88C43.0027 124.32 44.056 126.413 44.536 129.16L30.936 133.48L29.696 130.44L39.536 127.12L38.376 127.64C38.1627 126.947 37.776 126.347 37.216 125.84C36.6827 125.307 35.8694 125.04 34.776 125.04C33.9494 125.04 33.216 125.24 32.576 125.64C31.9627 126.013 31.4827 126.56 31.136 127.28C30.816 127.973 30.656 128.8 30.656 129.76C30.656 130.853 30.856 131.773 31.256 132.52C31.656 133.24 32.2027 133.787 32.896 134.16C33.5894 134.533 34.3627 134.72 35.216 134.72C35.8294 134.72 36.416 134.613 36.976 134.4C37.5627 134.187 38.136 133.907 38.696 133.56L41.176 137.72C40.2427 138.253 39.2294 138.68 38.136 139C37.0694 139.32 36.056 139.48 35.096 139.48ZM50.4454 113.84H56.0454V121.44H60.2854V125.8H56.0454V139H50.4454V125.8H47.7254V121.44H50.4454V113.84ZM66.3876 113.84H71.9876V121.44H76.2276V125.8H71.9876V139H66.3876V125.8H63.6676V121.44H66.3876V113.84ZM80.6898 121.52H86.2898V139H80.6898V121.52ZM80.5698 115.32C80.5698 114.493 80.8898 113.813 81.5298 113.28C82.1964 112.747 82.9031 112.48 83.6498 112.48C84.3964 112.48 85.0764 112.747 85.6898 113.28C86.3298 113.813 86.6498 114.493 86.6498 115.32C86.6498 116.147 86.3298 116.827 85.6898 117.36C85.0764 117.867 84.3964 118.12 83.6498 118.12C82.9031 118.12 82.1964 117.867 81.5298 117.36C80.8898 116.827 80.5698 116.147 80.5698 115.32ZM97.337 121.52L97.777 124.64L97.697 124.36C98.3103 123.267 99.177 122.387 100.297 121.72C101.417 121.027 102.79 120.68 104.417 120.68C106.07 120.68 107.444 121.173 108.537 122.16C109.657 123.12 110.23 124.373 110.257 125.92V139H104.657V128C104.63 127.227 104.417 126.613 104.017 126.16C103.644 125.68 103.004 125.44 102.097 125.44C101.244 125.44 100.497 125.72 99.857 126.28C99.217 126.84 98.7236 127.6 98.377 128.56C98.0303 129.52 97.857 130.627 97.857 131.88V139H92.257V121.52H97.337ZM125.247 147.8C123.674 147.8 122.34 147.613 121.247 147.24C120.18 146.867 119.274 146.413 118.527 145.88C117.78 145.347 117.114 144.84 116.527 144.36L119.807 140.52C120.42 141.08 121.127 141.613 121.927 142.12C122.754 142.653 123.834 142.92 125.167 142.92C126.047 142.92 126.86 142.76 127.607 142.44C128.38 142.147 128.994 141.707 129.447 141.12C129.927 140.533 130.167 139.8 130.167 138.92V135.08L130.367 136.08C129.94 136.987 129.167 137.787 128.047 138.48C126.927 139.147 125.46 139.48 123.647 139.48C122.074 139.48 120.607 139.08 119.247 138.28C117.914 137.453 116.847 136.347 116.047 134.96C115.247 133.547 114.847 131.947 114.847 130.16C114.847 128.32 115.274 126.693 116.127 125.28C116.98 123.84 118.087 122.707 119.447 121.88C120.807 121.053 122.247 120.64 123.767 120.64C125.287 120.64 126.594 120.867 127.687 121.32C128.807 121.747 129.647 122.28 130.207 122.92L130.007 123.44L130.607 121.52H135.767V139C135.767 140.707 135.287 142.213 134.327 143.52C133.367 144.853 132.087 145.893 130.487 146.64C128.914 147.413 127.167 147.8 125.247 147.8ZM120.487 130C120.487 130.933 120.7 131.773 121.127 132.52C121.554 133.267 122.127 133.853 122.847 134.28C123.594 134.707 124.42 134.92 125.327 134.92C126.1 134.92 126.78 134.827 127.367 134.64C127.98 134.427 128.514 134.133 128.967 133.76C129.447 133.36 129.847 132.867 130.167 132.28V128C129.927 127.413 129.567 126.92 129.087 126.52C128.607 126.093 128.047 125.773 127.407 125.56C126.794 125.32 126.1 125.2 125.327 125.2C124.42 125.2 123.594 125.413 122.847 125.84C122.127 126.24 121.554 126.8 121.127 127.52C120.7 128.24 120.487 129.067 120.487 130ZM147.399 139.36C145.959 139.36 144.613 139.107 143.359 138.6C142.133 138.093 141.093 137.387 140.239 136.48L142.559 133.4C143.413 134.173 144.199 134.733 144.919 135.08C145.666 135.4 146.333 135.56 146.919 135.56C147.373 135.56 147.773 135.52 148.119 135.44C148.493 135.333 148.786 135.187 148.999 135C149.213 134.787 149.319 134.52 149.319 134.2C149.319 133.747 149.133 133.387 148.759 133.12C148.413 132.853 147.959 132.64 147.399 132.48C146.839 132.293 146.239 132.107 145.599 131.92C143.999 131.413 142.839 130.68 142.119 129.72C141.426 128.733 141.079 127.667 141.079 126.52C141.079 125.64 141.306 124.76 141.759 123.88C142.239 122.973 142.986 122.227 143.999 121.64C145.039 121.027 146.373 120.72 147.999 120.72C149.466 120.72 150.706 120.867 151.719 121.16C152.733 121.453 153.693 121.933 154.599 122.6L152.479 125.88C151.973 125.48 151.399 125.147 150.759 124.88C150.146 124.587 149.573 124.427 149.039 124.4C148.559 124.373 148.146 124.427 147.799 124.56C147.479 124.693 147.226 124.867 147.039 125.08C146.853 125.293 146.759 125.52 146.759 125.76C146.733 126.267 146.919 126.667 147.319 126.96C147.746 127.253 148.279 127.48 148.919 127.64C149.559 127.8 150.186 127.987 150.799 128.2C151.653 128.467 152.386 128.827 152.999 129.28C153.613 129.733 154.079 130.28 154.399 130.92C154.746 131.533 154.919 132.28 154.919 133.16C154.919 134.227 154.639 135.24 154.079 136.2C153.546 137.133 152.719 137.893 151.599 138.48C150.506 139.067 149.106 139.36 147.399 139.36Z" fill="#3B8E89"/>
</g>
</svg>
