<svg width="119" height="144" viewBox="0 0 119 144" fill="none" xmlns="http://www.w3.org/2000/svg">
<g opacity="0.6">
<path fill-rule="evenodd" clip-rule="evenodd" d="M28.3654 34.7808L30.8779 64.6642C31.0613 66.9642 32.9404 68.6892 35.2363 68.6892H35.2529H80.7154H80.7238C82.8946 68.6892 84.7488 67.0725 85.0571 64.9267L89.0154 37.5975C89.1071 36.9475 88.9446 36.2975 88.5488 35.7725C88.1571 35.2433 87.5821 34.9017 86.9321 34.81C86.0613 34.8433 49.9238 34.7933 28.3654 34.7808V34.7808ZM35.2279 74.9392C29.7404 74.9392 25.0946 70.6558 24.6488 65.1767L20.8321 19.785L14.5529 18.7017C12.8488 18.4017 11.7113 16.7892 12.0029 15.085C12.3029 13.3808 13.9488 12.2725 15.6154 12.5392L24.2821 14.0392C25.6779 14.285 26.7404 15.4433 26.8612 16.86L27.8404 28.5308C87.3237 28.5558 87.5154 28.585 87.8029 28.6183C90.1237 28.9558 92.1654 30.1683 93.5571 32.035C94.9487 33.8975 95.5321 36.1933 95.1987 38.4933L91.2446 65.8183C90.4988 71.0183 85.9821 74.9392 80.7321 74.9392H80.7112H35.2612H35.2279Z" fill="#3B8E89"/>
<path fill-rule="evenodd" clip-rule="evenodd" d="M74.0317 50.1821H62.4817C60.7525 50.1821 59.3567 48.7821 59.3567 47.0571C59.3567 45.3321 60.7525 43.9321 62.4817 43.9321H74.0317C75.7567 43.9321 77.1567 45.3321 77.1567 47.0571C77.1567 48.7821 75.7567 50.1821 74.0317 50.1821" fill="#3B8E89"/>
<path fill-rule="evenodd" clip-rule="evenodd" d="M33.4354 86.2579C34.6896 86.2579 35.7021 87.2704 35.7021 88.5246C35.7021 89.7788 34.6896 90.7954 33.4354 90.7954C32.1771 90.7954 31.1646 89.7788 31.1646 88.5246C31.1646 87.2704 32.1771 86.2579 33.4354 86.2579" fill="#3B8E89"/>
<mask id="mask0_138_5910" style="mask-type:alpha" maskUnits="userSpaceOnUse" x="31" y="86" width="5" height="5">
<path fill-rule="evenodd" clip-rule="evenodd" d="M31.1625 88.5229C31.1625 89.7812 32.175 90.7979 33.4375 90.7979V90.7979C34.6917 90.7979 35.7042 89.7812 35.7042 88.5229V88.5229C35.7042 87.2687 34.6917 86.2562 33.4375 86.2562V86.2562C32.175 86.2562 31.1625 87.2687 31.1625 88.5229V88.5229Z" fill="white"/>
</mask>
<g mask="url(#mask0_138_5910)">
<path fill-rule="evenodd" clip-rule="evenodd" d="M10.3333 111.627H56.5375V65.4229H10.3333V111.627Z" fill="#3B8E89"/>
</g>
<path fill-rule="evenodd" clip-rule="evenodd" d="M33.4313 87.67C32.9604 87.67 32.5771 88.0533 32.5771 88.5242C32.5771 89.47 34.2896 89.47 34.2896 88.5242C34.2896 88.0533 33.9021 87.67 33.4313 87.67M33.4312 93.92C30.4563 93.92 28.0396 91.4992 28.0396 88.5242C28.0396 85.5492 30.4563 83.1325 33.4312 83.1325C36.4062 83.1325 38.8271 85.5492 38.8271 88.5242C38.8271 91.4992 36.4062 93.92 33.4312 93.92" fill="#3B8E89"/>
<path fill-rule="evenodd" clip-rule="evenodd" d="M80.4367 86.2579C81.6908 86.2579 82.7075 87.2704 82.7075 88.5246C82.7075 89.7788 81.6908 90.7954 80.4367 90.7954C79.1783 90.7954 78.1658 89.7788 78.1658 88.5246C78.1658 87.2704 79.1783 86.2579 80.4367 86.2579" fill="#3B8E89"/>
<mask id="mask1_138_5910" style="mask-type:alpha" maskUnits="userSpaceOnUse" x="78" y="86" width="5" height="5">
<path fill-rule="evenodd" clip-rule="evenodd" d="M78.1667 88.5229C78.1667 89.7812 79.1792 90.7979 80.4375 90.7979V90.7979C81.6875 90.7979 82.7083 89.7812 82.7083 88.5229V88.5229C82.7083 87.2687 81.6875 86.2562 80.4375 86.2562V86.2562C79.1792 86.2562 78.1667 87.2687 78.1667 88.5229V88.5229Z" fill="white"/>
</mask>
<g mask="url(#mask1_138_5910)">
<path fill-rule="evenodd" clip-rule="evenodd" d="M57.3333 111.627H103.542V65.4229H57.3333V111.627Z" fill="#3B8E89"/>
</g>
<path fill-rule="evenodd" clip-rule="evenodd" d="M80.4325 87.67C79.9658 87.67 79.5825 88.0533 79.5825 88.5242C79.5867 89.4783 81.295 89.47 81.2908 88.5242C81.2908 88.0533 80.9033 87.67 80.4325 87.67M80.4325 93.92C77.4575 93.92 75.0408 91.4992 75.0408 88.5242C75.0408 85.5492 77.4575 83.1325 80.4325 83.1325C83.4117 83.1325 85.8325 85.5492 85.8325 88.5242C85.8325 91.4992 83.4117 93.92 80.4325 93.92" fill="#3B8E89"/>
<path d="M19.52 111.68C18.4 111.067 17.2533 110.56 16.08 110.16C14.9333 109.76 13.8533 109.56 12.84 109.56C11.5867 109.56 10.6 109.813 9.88 110.32C9.16 110.827 8.8 111.587 8.8 112.6C8.8 113.293 9.06667 113.92 9.6 114.48C10.16 115.013 10.8667 115.493 11.72 115.92C12.6 116.347 13.5067 116.733 14.44 117.08C15.2933 117.4 16.1333 117.787 16.96 118.24C17.8133 118.667 18.5733 119.213 19.24 119.88C19.9067 120.52 20.44 121.333 20.84 122.32C21.24 123.28 21.44 124.467 21.44 125.88C21.44 127.373 21.0533 128.76 20.28 130.04C19.5067 131.32 18.3733 132.36 16.88 133.16C15.3867 133.933 13.5467 134.32 11.36 134.32C10.24 134.32 9.09333 134.213 7.92 134C6.77333 133.76 5.64 133.413 4.52 132.96C3.4 132.48 2.32 131.88 1.28 131.16L3.84 126.64C4.53333 127.147 5.28 127.6 6.08 128C6.90667 128.373 7.73333 128.667 8.56 128.88C9.38667 129.093 10.1467 129.2 10.84 129.2C11.5333 129.2 12.2267 129.107 12.92 128.92C13.64 128.707 14.2267 128.36 14.68 127.88C15.16 127.4 15.4 126.733 15.4 125.88C15.4 125.293 15.2 124.76 14.8 124.28C14.4267 123.8 13.9067 123.36 13.24 122.96C12.6 122.56 11.8933 122.213 11.12 121.92C10.2133 121.573 9.28 121.173 8.32 120.72C7.36 120.267 6.45333 119.72 5.6 119.08C4.77333 118.413 4.09333 117.6 3.56 116.64C3.05333 115.653 2.8 114.453 2.8 113.04C2.8 111.333 3.17333 109.853 3.92 108.6C4.69333 107.347 5.77333 106.36 7.16 105.64C8.54667 104.893 10.1467 104.48 11.96 104.4C14.3333 104.4 16.2533 104.68 17.72 105.24C19.2133 105.8 20.5467 106.467 21.72 107.24L19.52 111.68ZM28.0403 108.84H33.6403V116.44H37.8803V120.8H33.6403V134H28.0403V120.8H25.3203V116.44H28.0403V108.84ZM40.9825 125.04C40.9825 123.253 41.3958 121.653 42.2225 120.24C43.0758 118.827 44.2625 117.72 45.7825 116.92C47.3025 116.093 49.0492 115.68 51.0225 115.68C53.0225 115.68 54.7558 116.093 56.2225 116.92C57.6892 117.72 58.8092 118.827 59.5825 120.24C60.3825 121.653 60.7825 123.253 60.7825 125.04C60.7825 126.827 60.3825 128.44 59.5825 129.88C58.8092 131.293 57.6892 132.413 56.2225 133.24C54.7558 134.067 52.9958 134.48 50.9425 134.48C49.0225 134.48 47.3025 134.107 45.7825 133.36C44.2892 132.613 43.1158 131.533 42.2625 130.12C41.4092 128.707 40.9825 127.013 40.9825 125.04ZM46.6225 125.08C46.6225 125.987 46.8092 126.813 47.1825 127.56C47.5558 128.28 48.0625 128.853 48.7025 129.28C49.3425 129.707 50.0625 129.92 50.8625 129.92C51.7425 129.92 52.5025 129.707 53.1425 129.28C53.7825 128.853 54.2758 128.28 54.6225 127.56C54.9692 126.813 55.1425 125.987 55.1425 125.08C55.1425 124.147 54.9692 123.32 54.6225 122.6C54.2758 121.88 53.7825 121.307 53.1425 120.88C52.5025 120.453 51.7425 120.24 50.8625 120.24C50.0625 120.24 49.3425 120.453 48.7025 120.88C48.0625 121.307 47.5558 121.88 47.1825 122.6C46.8092 123.32 46.6225 124.147 46.6225 125.08ZM70.4341 116.52L70.9541 121.32L70.8341 120.6C71.3407 119.56 72.0341 118.68 72.9141 117.96C73.7941 117.213 74.6607 116.64 75.5141 116.24C76.3941 115.84 77.0607 115.64 77.5141 115.64L77.2341 121.24C75.9274 121.08 74.8074 121.293 73.8741 121.88C72.9407 122.467 72.2207 123.24 71.7141 124.2C71.2074 125.16 70.9541 126.147 70.9541 127.16V134H65.3941V116.52H70.4341ZM89.8191 134.48C87.6857 134.48 85.8724 134.08 84.3791 133.28C82.9124 132.48 81.7924 131.373 81.0191 129.96C80.2457 128.547 79.8591 126.92 79.8591 125.08C79.8591 123.32 80.3124 121.733 81.2191 120.32C82.1257 118.907 83.3391 117.787 84.8591 116.96C86.3791 116.107 88.0724 115.68 89.9391 115.68C92.4457 115.68 94.4991 116.413 96.0991 117.88C97.7257 119.32 98.7791 121.413 99.2591 124.16L85.6591 128.48L84.4191 125.44L94.2591 122.12L93.0991 122.64C92.8857 121.947 92.4991 121.347 91.9391 120.84C91.4057 120.307 90.5924 120.04 89.4991 120.04C88.6724 120.04 87.9391 120.24 87.2991 120.64C86.6857 121.013 86.2057 121.56 85.8591 122.28C85.5391 122.973 85.3791 123.8 85.3791 124.76C85.3791 125.853 85.5791 126.773 85.9791 127.52C86.3791 128.24 86.9257 128.787 87.6191 129.16C88.3124 129.533 89.0857 129.72 89.9391 129.72C90.5524 129.72 91.1391 129.613 91.6991 129.4C92.2857 129.187 92.8591 128.907 93.4191 128.56L95.8991 132.72C94.9657 133.253 93.9524 133.68 92.8591 134C91.7924 134.32 90.7791 134.48 89.8191 134.48Z" fill="#235C59"/>
</g>
</svg>
