<svg width="196" height="46" viewBox="0 0 196 46" fill="none" xmlns="http://www.w3.org/2000/svg">
<path d="M0 15C0 6.71573 6.71573 0 15 0H181C189.284 0 196 6.71573 196 15V31C196 39.2843 189.284 46 181 46H15C6.71573 46 0 39.2843 0 31V15Z" fill="#FCFFFF"/>
<path d="M28.28 13.28V28H25.38V22.02H18.8V28H15.9V13.28H18.8V19.22H25.38V13.28H28.28ZM35.4919 28.24C34.6785 28.24 33.9385 28.08 33.2719 27.76C32.6185 27.4267 32.0985 26.92 31.7119 26.24C31.3252 25.56 31.1319 24.6933 31.1319 23.64C31.1319 22.6533 31.3319 21.8 31.7319 21.08C32.1319 20.36 32.6585 19.8067 33.3119 19.42C33.9652 19.02 34.6585 18.82 35.3919 18.82C36.2585 18.82 36.9119 18.9667 37.3519 19.26C37.8052 19.54 38.1785 19.8533 38.4719 20.2L38.3519 20.54L38.6119 19.26H41.2119V28H38.4119V26.1L38.6319 26.7C38.6052 26.7 38.5252 26.78 38.3919 26.94C38.2585 27.0867 38.0585 27.2667 37.7919 27.48C37.5385 27.68 37.2185 27.8533 36.8319 28C36.4585 28.16 36.0119 28.24 35.4919 28.24ZM36.2919 25.96C36.6252 25.96 36.9252 25.9133 37.1919 25.82C37.4585 25.7133 37.6919 25.5667 37.8919 25.38C38.0919 25.18 38.2652 24.9333 38.4119 24.64V22.5C38.3052 22.2067 38.1452 21.96 37.9319 21.76C37.7185 21.5467 37.4652 21.3867 37.1719 21.28C36.8785 21.16 36.5519 21.1 36.1919 21.1C35.7919 21.1 35.4185 21.2067 35.0719 21.42C34.7385 21.62 34.4719 21.9 34.2719 22.26C34.0719 22.62 33.9719 23.0333 33.9719 23.5C33.9719 23.9667 34.0785 24.3867 34.2919 24.76C34.5052 25.1333 34.7852 25.4267 35.1319 25.64C35.4919 25.8533 35.8785 25.96 36.2919 25.96ZM47.117 28.42C46.3304 28.42 45.6704 28.18 45.137 27.7C44.6037 27.2067 44.3237 26.5733 44.297 25.8V19.26H47.097V24.76C47.1237 25.1467 47.2237 25.46 47.397 25.7C47.5704 25.9267 47.8637 26.04 48.277 26.04C48.6904 26.04 49.0437 25.9 49.337 25.62C49.6437 25.34 49.877 24.96 50.037 24.48C50.2104 23.9867 50.297 23.4333 50.297 22.82V19.26H53.097V28H50.557L50.337 26.4L50.377 26.58C50.177 26.94 49.9237 27.26 49.617 27.54C49.3104 27.82 48.9437 28.0333 48.517 28.18C48.1037 28.34 47.637 28.42 47.117 28.42ZM59.0167 28.18C58.2967 28.18 57.6234 28.0533 56.9967 27.8C56.3834 27.5467 55.8634 27.1933 55.4367 26.74L56.5967 25.2C57.0234 25.5867 57.4167 25.8667 57.7767 26.04C58.1501 26.2 58.4834 26.28 58.7767 26.28C59.0034 26.28 59.2034 26.26 59.3767 26.22C59.5634 26.1667 59.7101 26.0933 59.8167 26C59.9234 25.8933 59.9767 25.76 59.9767 25.6C59.9767 25.3733 59.8834 25.1933 59.6967 25.06C59.5234 24.9267 59.2967 24.82 59.0167 24.74C58.7367 24.6467 58.4367 24.5533 58.1167 24.46C57.3167 24.2067 56.7367 23.84 56.3767 23.36C56.0301 22.8667 55.8567 22.3333 55.8567 21.76C55.8567 21.32 55.9701 20.88 56.1967 20.44C56.4367 19.9867 56.8101 19.6133 57.3167 19.32C57.8367 19.0133 58.5034 18.86 59.3167 18.86C60.0501 18.86 60.6701 18.9333 61.1767 19.08C61.6834 19.2267 62.1634 19.4667 62.6167 19.8L61.5567 21.44C61.3034 21.24 61.0167 21.0733 60.6967 20.94C60.3901 20.7933 60.1034 20.7133 59.8367 20.7C59.5967 20.6867 59.3901 20.7133 59.2167 20.78C59.0567 20.8467 58.9301 20.9333 58.8367 21.04C58.7434 21.1467 58.6967 21.26 58.6967 21.38C58.6834 21.6333 58.7767 21.8333 58.9767 21.98C59.1901 22.1267 59.4567 22.24 59.7767 22.32C60.0967 22.4 60.4101 22.4933 60.7167 22.6C61.1434 22.7333 61.5101 22.9133 61.8167 23.14C62.1234 23.3667 62.3567 23.64 62.5167 23.96C62.6901 24.2667 62.7767 24.64 62.7767 25.08C62.7767 25.6133 62.6367 26.12 62.3567 26.6C62.0901 27.0667 61.6767 27.4467 61.1167 27.74C60.5701 28.0333 59.8701 28.18 59.0167 28.18ZM69.002 28.24C68.1887 28.24 67.4487 28.08 66.782 27.76C66.1287 27.4267 65.6087 26.92 65.222 26.24C64.8354 25.56 64.642 24.6933 64.642 23.64C64.642 22.6533 64.842 21.8 65.242 21.08C65.642 20.36 66.1687 19.8067 66.822 19.42C67.4754 19.02 68.1687 18.82 68.902 18.82C69.7687 18.82 70.422 18.9667 70.862 19.26C71.3154 19.54 71.6887 19.8533 71.982 20.2L71.862 20.54L72.122 19.26H74.722V28H71.922V26.1L72.142 26.7C72.1154 26.7 72.0354 26.78 71.902 26.94C71.7687 27.0867 71.5687 27.2667 71.302 27.48C71.0487 27.68 70.7287 27.8533 70.342 28C69.9687 28.16 69.522 28.24 69.002 28.24ZM69.802 25.96C70.1354 25.96 70.4354 25.9133 70.702 25.82C70.9687 25.7133 71.202 25.5667 71.402 25.38C71.602 25.18 71.7754 24.9333 71.922 24.64V22.5C71.8154 22.2067 71.6554 21.96 71.442 21.76C71.2287 21.5467 70.9754 21.3867 70.682 21.28C70.3887 21.16 70.062 21.1 69.702 21.1C69.302 21.1 68.9287 21.2067 68.582 21.42C68.2487 21.62 67.982 21.9 67.782 22.26C67.582 22.62 67.482 23.0333 67.482 23.5C67.482 23.9667 67.5887 24.3867 67.802 24.76C68.0154 25.1333 68.2954 25.4267 68.642 25.64C69.002 25.8533 69.3887 25.96 69.802 25.96ZM84.9711 13.28H87.8711V25.2H94.7911V28H84.9711V13.28ZM101.204 28.24C100.39 28.24 99.6503 28.08 98.9836 27.76C98.3303 27.4267 97.8103 26.92 97.4236 26.24C97.0369 25.56 96.8436 24.6933 96.8436 23.64C96.8436 22.6533 97.0436 21.8 97.4436 21.08C97.8436 20.36 98.3703 19.8067 99.0236 19.42C99.6769 19.02 100.37 18.82 101.104 18.82C101.97 18.82 102.624 18.9667 103.064 19.26C103.517 19.54 103.89 19.8533 104.184 20.2L104.064 20.54L104.324 19.26H106.924V28H104.124V26.1L104.344 26.7C104.317 26.7 104.237 26.78 104.104 26.94C103.97 27.0867 103.77 27.2667 103.504 27.48C103.25 27.68 102.93 27.8533 102.544 28C102.17 28.16 101.724 28.24 101.204 28.24ZM102.004 25.96C102.337 25.96 102.637 25.9133 102.904 25.82C103.17 25.7133 103.404 25.5667 103.604 25.38C103.804 25.18 103.977 24.9333 104.124 24.64V22.5C104.017 22.2067 103.857 21.96 103.644 21.76C103.43 21.5467 103.177 21.3867 102.884 21.28C102.59 21.16 102.264 21.1 101.904 21.1C101.504 21.1 101.13 21.2067 100.784 21.42C100.45 21.62 100.184 21.9 99.9836 22.26C99.7836 22.62 99.6836 23.0333 99.6836 23.5C99.6836 23.9667 99.7903 24.3867 100.004 24.76C100.217 25.1333 100.497 25.4267 100.844 25.64C101.204 25.8533 101.59 25.96 102.004 25.96ZM112.549 19.26L112.769 20.82L112.729 20.68C113.035 20.1333 113.469 19.6933 114.029 19.36C114.589 19.0133 115.275 18.84 116.089 18.84C116.915 18.84 117.602 19.0867 118.149 19.58C118.709 20.06 118.995 20.6867 119.009 21.46V28H116.209V22.5C116.195 22.1133 116.089 21.8067 115.889 21.58C115.702 21.34 115.382 21.22 114.929 21.22C114.502 21.22 114.129 21.36 113.809 21.64C113.489 21.92 113.242 22.3 113.069 22.78C112.895 23.26 112.809 23.8133 112.809 24.44V28H110.009V19.26H112.549ZM126.604 32.4C125.817 32.4 125.15 32.3067 124.604 32.12C124.07 31.9333 123.617 31.7067 123.244 31.44C122.87 31.1733 122.537 30.92 122.244 30.68L123.884 28.76C124.19 29.04 124.544 29.3067 124.944 29.56C125.357 29.8267 125.897 29.96 126.564 29.96C127.004 29.96 127.41 29.88 127.784 29.72C128.17 29.5733 128.477 29.3533 128.704 29.06C128.944 28.7667 129.064 28.4 129.064 27.96V26.04L129.164 26.54C128.95 26.9933 128.564 27.3933 128.004 27.74C127.444 28.0733 126.71 28.24 125.804 28.24C125.017 28.24 124.284 28.04 123.604 27.64C122.937 27.2267 122.404 26.6733 122.004 25.98C121.604 25.2733 121.404 24.4733 121.404 23.58C121.404 22.66 121.617 21.8467 122.044 21.14C122.47 20.42 123.024 19.8533 123.704 19.44C124.384 19.0267 125.104 18.82 125.864 18.82C126.624 18.82 127.277 18.9333 127.824 19.16C128.384 19.3733 128.804 19.64 129.084 19.96L128.984 20.22L129.284 19.26H131.864V28C131.864 28.8533 131.624 29.6067 131.144 30.26C130.664 30.9267 130.024 31.4467 129.224 31.82C128.437 32.2067 127.564 32.4 126.604 32.4ZM124.224 23.5C124.224 23.9667 124.33 24.3867 124.544 24.76C124.757 25.1333 125.044 25.4267 125.404 25.64C125.777 25.8533 126.19 25.96 126.644 25.96C127.03 25.96 127.37 25.9133 127.664 25.82C127.97 25.7133 128.237 25.5667 128.464 25.38C128.704 25.18 128.904 24.9333 129.064 24.64V22.5C128.944 22.2067 128.764 21.96 128.524 21.76C128.284 21.5467 128.004 21.3867 127.684 21.28C127.377 21.16 127.03 21.1 126.644 21.1C126.19 21.1 125.777 21.2067 125.404 21.42C125.044 21.62 124.757 21.9 124.544 22.26C124.33 22.62 124.224 23.0333 124.224 23.5ZM137.76 28.42C136.973 28.42 136.313 28.18 135.78 27.7C135.247 27.2067 134.967 26.5733 134.94 25.8V19.26H137.74V24.76C137.767 25.1467 137.867 25.46 138.04 25.7C138.213 25.9267 138.507 26.04 138.92 26.04C139.333 26.04 139.687 25.9 139.98 25.62C140.287 25.34 140.52 24.96 140.68 24.48C140.853 23.9867 140.94 23.4333 140.94 22.82V19.26H143.74V28H141.2L140.98 26.4L141.02 26.58C140.82 26.94 140.567 27.26 140.26 27.54C139.953 27.82 139.587 28.0333 139.16 28.18C138.747 28.34 138.28 28.42 137.76 28.42ZM150.5 28.24C149.686 28.24 148.946 28.08 148.28 27.76C147.626 27.4267 147.106 26.92 146.72 26.24C146.333 25.56 146.14 24.6933 146.14 23.64C146.14 22.6533 146.34 21.8 146.74 21.08C147.14 20.36 147.666 19.8067 148.32 19.42C148.973 19.02 149.666 18.82 150.4 18.82C151.266 18.82 151.92 18.9667 152.36 19.26C152.813 19.54 153.186 19.8533 153.48 20.2L153.36 20.54L153.62 19.26H156.22V28H153.42V26.1L153.64 26.7C153.613 26.7 153.533 26.78 153.4 26.94C153.266 27.0867 153.066 27.2667 152.8 27.48C152.546 27.68 152.226 27.8533 151.84 28C151.466 28.16 151.02 28.24 150.5 28.24ZM151.3 25.96C151.633 25.96 151.933 25.9133 152.2 25.82C152.466 25.7133 152.7 25.5667 152.9 25.38C153.1 25.18 153.273 24.9333 153.42 24.64V22.5C153.313 22.2067 153.153 21.96 152.94 21.76C152.726 21.5467 152.473 21.3867 152.18 21.28C151.886 21.16 151.56 21.1 151.2 21.1C150.8 21.1 150.426 21.2067 150.08 21.42C149.746 21.62 149.48 21.9 149.28 22.26C149.08 22.62 148.98 23.0333 148.98 23.5C148.98 23.9667 149.086 24.3867 149.3 24.76C149.513 25.1333 149.793 25.4267 150.14 25.64C150.5 25.8533 150.886 25.96 151.3 25.96ZM163.825 32.4C163.038 32.4 162.372 32.3067 161.825 32.12C161.292 31.9333 160.838 31.7067 160.465 31.44C160.092 31.1733 159.758 30.92 159.465 30.68L161.105 28.76C161.412 29.04 161.765 29.3067 162.165 29.56C162.578 29.8267 163.118 29.96 163.785 29.96C164.225 29.96 164.632 29.88 165.005 29.72C165.392 29.5733 165.698 29.3533 165.925 29.06C166.165 28.7667 166.285 28.4 166.285 27.96V26.04L166.385 26.54C166.172 26.9933 165.785 27.3933 165.225 27.74C164.665 28.0733 163.932 28.24 163.025 28.24C162.238 28.24 161.505 28.04 160.825 27.64C160.158 27.2267 159.625 26.6733 159.225 25.98C158.825 25.2733 158.625 24.4733 158.625 23.58C158.625 22.66 158.838 21.8467 159.265 21.14C159.692 20.42 160.245 19.8533 160.925 19.44C161.605 19.0267 162.325 18.82 163.085 18.82C163.845 18.82 164.498 18.9333 165.045 19.16C165.605 19.3733 166.025 19.64 166.305 19.96L166.205 20.22L166.505 19.26H169.085V28C169.085 28.8533 168.845 29.6067 168.365 30.26C167.885 30.9267 167.245 31.4467 166.445 31.82C165.658 32.2067 164.785 32.4 163.825 32.4ZM161.445 23.5C161.445 23.9667 161.552 24.3867 161.765 24.76C161.978 25.1333 162.265 25.4267 162.625 25.64C162.998 25.8533 163.412 25.96 163.865 25.96C164.252 25.96 164.592 25.9133 164.885 25.82C165.192 25.7133 165.458 25.5667 165.685 25.38C165.925 25.18 166.125 24.9333 166.285 24.64V22.5C166.165 22.2067 165.985 21.96 165.745 21.76C165.505 21.5467 165.225 21.3867 164.905 21.28C164.598 21.16 164.252 21.1 163.865 21.1C163.412 21.1 162.998 21.2067 162.625 21.42C162.265 21.62 161.978 21.9 161.765 22.26C161.552 22.62 161.445 23.0333 161.445 23.5ZM176.461 28.24C175.394 28.24 174.488 28.04 173.741 27.64C173.008 27.24 172.448 26.6867 172.061 25.98C171.674 25.2733 171.481 24.46 171.481 23.54C171.481 22.66 171.708 21.8667 172.161 21.16C172.614 20.4533 173.221 19.8933 173.981 19.48C174.741 19.0533 175.588 18.84 176.521 18.84C177.774 18.84 178.801 19.2067 179.601 19.94C180.414 20.66 180.941 21.7067 181.181 23.08L174.381 25.24L173.761 23.72L178.681 22.06L178.101 22.32C177.994 21.9733 177.801 21.6733 177.521 21.42C177.254 21.1533 176.848 21.02 176.301 21.02C175.888 21.02 175.521 21.12 175.201 21.32C174.894 21.5067 174.654 21.78 174.481 22.14C174.321 22.4867 174.241 22.9 174.241 23.38C174.241 23.9267 174.341 24.3867 174.541 24.76C174.741 25.12 175.014 25.3933 175.361 25.58C175.708 25.7667 176.094 25.86 176.521 25.86C176.828 25.86 177.121 25.8067 177.401 25.7C177.694 25.5933 177.981 25.4533 178.261 25.28L179.501 27.36C179.034 27.6267 178.528 27.84 177.981 28C177.448 28.16 176.941 28.24 176.461 28.24Z" fill="#3B8E89"/>
</svg>
