<svg width="118" height="138" viewBox="0 0 118 138" fill="none" xmlns="http://www.w3.org/2000/svg">
<g opacity="0.6">
<path d="M3.93281 98.56H9.73281V122.4H23.5728V128H3.93281V98.56ZM37.4378 128.48C35.3045 128.48 33.4911 128.08 31.9978 127.28C30.5311 126.48 29.4111 125.373 28.6378 123.96C27.8645 122.547 27.4778 120.92 27.4778 119.08C27.4778 117.32 27.9311 115.733 28.8378 114.32C29.7445 112.907 30.9578 111.787 32.4778 110.96C33.9978 110.107 35.6911 109.68 37.5578 109.68C40.0645 109.68 42.1178 110.413 43.7178 111.88C45.3445 113.32 46.3978 115.413 46.8778 118.16L33.2778 122.48L32.0378 119.44L41.8778 116.12L40.7178 116.64C40.5045 115.947 40.1178 115.347 39.5578 114.84C39.0245 114.307 38.2111 114.04 37.1178 114.04C36.2911 114.04 35.5578 114.24 34.9178 114.64C34.3045 115.013 33.8245 115.56 33.4778 116.28C33.1578 116.973 32.9978 117.8 32.9978 118.76C32.9978 119.853 33.1978 120.773 33.5978 121.52C33.9978 122.24 34.5445 122.787 35.2378 123.16C35.9311 123.533 36.7045 123.72 37.5578 123.72C38.1711 123.72 38.7578 123.613 39.3178 123.4C39.9045 123.187 40.4778 122.907 41.0378 122.56L43.5178 126.72C42.5845 127.253 41.5711 127.68 40.4778 128C39.4111 128.32 38.3978 128.48 37.4378 128.48ZM58.5072 128.48C56.8805 128.48 55.4005 128.16 54.0672 127.52C52.7605 126.853 51.7205 125.84 50.9472 124.48C50.1739 123.12 49.7872 121.387 49.7872 119.28C49.7872 117.307 50.1872 115.6 50.9872 114.16C51.7872 112.72 52.8405 111.613 54.1472 110.84C55.4539 110.04 56.8405 109.64 58.3072 109.64C60.0405 109.64 61.3472 109.933 62.2272 110.52C63.1339 111.08 63.8805 111.707 64.4672 112.4L64.2272 113.08L64.7472 110.52H69.9472V128H64.3472V124.2L64.7872 125.4C64.7339 125.4 64.5739 125.56 64.3072 125.88C64.0405 126.173 63.6405 126.533 63.1072 126.96C62.6005 127.36 61.9605 127.707 61.1872 128C60.4405 128.32 59.5472 128.48 58.5072 128.48ZM60.1072 123.92C60.7739 123.92 61.3739 123.827 61.9072 123.64C62.4405 123.427 62.9072 123.133 63.3072 122.76C63.7072 122.36 64.0539 121.867 64.3472 121.28V117C64.1339 116.413 63.8139 115.92 63.3872 115.52C62.9605 115.093 62.4539 114.773 61.8672 114.56C61.2805 114.32 60.6272 114.2 59.9072 114.2C59.1072 114.2 58.3605 114.413 57.6672 114.84C57.0005 115.24 56.4672 115.8 56.0672 116.52C55.6672 117.24 55.4672 118.067 55.4672 119C55.4672 119.933 55.6805 120.773 56.1072 121.52C56.5339 122.267 57.0939 122.853 57.7872 123.28C58.5072 123.707 59.2805 123.92 60.1072 123.92ZM80.9575 110.52L81.4775 115.32L81.3575 114.6C81.8642 113.56 82.5575 112.68 83.4375 111.96C84.3175 111.213 85.1842 110.64 86.0375 110.24C86.9175 109.84 87.5842 109.64 88.0375 109.64L87.7575 115.24C86.4508 115.08 85.3308 115.293 84.3975 115.88C83.4642 116.467 82.7442 117.24 82.2375 118.2C81.7308 119.16 81.4775 120.147 81.4775 121.16V128H75.9175V110.52H80.9575ZM97.6038 110.52L98.0438 113.64L97.9638 113.36C98.5771 112.267 99.4438 111.387 100.564 110.72C101.684 110.027 103.057 109.68 104.684 109.68C106.337 109.68 107.71 110.173 108.804 111.16C109.924 112.12 110.497 113.373 110.524 114.92V128H104.924V117C104.897 116.227 104.684 115.613 104.284 115.16C103.91 114.68 103.27 114.44 102.364 114.44C101.51 114.44 100.764 114.72 100.124 115.28C99.4838 115.84 98.9904 116.6 98.6438 117.56C98.2971 118.52 98.1238 119.627 98.1238 120.88V128H92.5238V110.52H97.6038Z" fill="#3B8E89"/>
<path fill-rule="evenodd" clip-rule="evenodd" d="M71.6153 70.7238H41.532C39.807 70.7238 38.407 69.3238 38.407 67.5988C38.407 65.8738 39.807 64.4738 41.532 64.4738H71.6153C73.3403 64.4738 74.7403 65.8738 74.7403 67.5988C74.7403 69.3238 73.3403 70.7238 71.6153 70.7238Z" fill="#3B8E89"/>
<path fill-rule="evenodd" clip-rule="evenodd" d="M71.6153 53.28H41.532C39.807 53.28 38.407 51.88 38.407 50.155C38.407 48.43 39.807 47.03 41.532 47.03H71.6153C73.3403 47.03 74.7403 48.43 74.7403 50.155C74.7403 51.88 73.3403 53.28 71.6153 53.28Z" fill="#3B8E89"/>
<path fill-rule="evenodd" clip-rule="evenodd" d="M53.0099 35.8766H41.5307C39.8057 35.8766 38.4057 34.4766 38.4057 32.7516C38.4057 31.0266 39.8057 29.6266 41.5307 29.6266H53.0099C54.7349 29.6266 56.1349 31.0266 56.1349 32.7516C56.1349 34.4766 54.7349 35.8766 53.0099 35.8766Z" fill="#3B8E89"/>
<mask id="mask0_138_5914" style="mask-type:alpha" maskUnits="userSpaceOnUse" x="18" y="8" width="77" height="84">
<path fill-rule="evenodd" clip-rule="evenodd" d="M18.6328 8.33417H94.3191V91.2917H18.6328V8.33417Z" fill="white"/>
</mask>
<g mask="url(#mask0_138_5914)">
<path fill-rule="evenodd" clip-rule="evenodd" d="M72.4191 14.5833L40.3816 14.6C30.6816 14.6583 24.8816 20.6583 24.8816 30.6541V68.9708C24.8816 79.0333 30.7357 85.0416 40.5316 85.0416L72.5691 85.0291C82.2691 84.9708 88.0691 78.9625 88.0691 68.9708V30.6541C88.0691 20.5916 82.2191 14.5833 72.4191 14.5833ZM40.5357 91.2916C27.4357 91.2916 18.6316 82.3208 18.6316 68.9708V30.6541C18.6316 17.1833 27.1607 8.42915 40.3607 8.34998L72.4149 8.33331H72.4191C85.5191 8.33331 94.3191 17.3041 94.3191 30.6541V68.9708C94.3191 82.4375 85.7899 91.1958 72.5899 91.2791L40.5357 91.2916Z" fill="#3B8E89"/>
</g>
</g>
</svg>
