<svg width="165" height="165" viewBox="0 0 165 165" fill="none" xmlns="http://www.w3.org/2000/svg">
<rect width="165" height="165" rx="82.5" fill="#E0F4F3"/>
<path d="M62.9737 68.4603L74.5523 63.5059L64.9649 63.4681C64.8916 63.4681 59.5443 63.0113 57.6264 64.8395C57.4315 65.0156 57.2749 65.2323 57.167 65.4754C57.059 65.7185 57.0021 65.9825 57 66.2499C57.1477 66.631 57.8107 70.0991 62.9737 68.4603Z" fill="#3B8E89" stroke="black" stroke-linecap="round" stroke-linejoin="round"/>
<path d="M100.474 69.2585C101.665 69.2677 102.815 69.7134 103.719 70.5163C103.764 68.9116 103.59 67.3082 103.202 65.7536C102.968 65.01 102.499 64.3692 101.87 63.9341C101.241 63.499 100.489 63.2946 99.7342 63.3538H95.4219L97.0811 68.9934L100.474 69.2585Z" fill="#3B8E89" stroke="black" stroke-linecap="round" stroke-linejoin="round"/>
<path d="M96.9341 68.9948L95.1272 63.2784C95.0906 63.2026 95.0539 63.1669 95.0539 63.0878L92.915 56L75.5104 63.431L62.5303 68.9948H96.9341Z" fill="#46958F" stroke="black" stroke-linecap="round" stroke-linejoin="round"/>
<path d="M93.3953 67.2794L91.0721 59.5822L83.2915 62.9734L68.4678 69.2614L93.9107 68.9951L93.3953 67.2794Z" fill="#F7F7F7"/>
<path d="M85.5039 60.3437C86.4338 61.7286 87.7012 62.835 89.1778 63.5511C90.6545 64.2671 92.288 64.5673 93.913 64.4212L91.9574 58.1333L85.5039 60.3437Z" fill="#46958F"/>
<path d="M84.9133 70.3273C85.5444 70.3273 86.056 69.7985 86.056 69.1463C86.056 68.4941 85.5444 67.9654 84.9133 67.9654C84.2821 67.9654 83.7705 68.4941 83.7705 69.1463C83.7705 69.7985 84.2821 70.3273 84.9133 70.3273Z" fill="#46958F"/>
<path d="M89.487 88.3141C89.4191 87.3753 89.5481 86.4325 89.8651 85.5499C90.1822 84.6674 90.6797 83.8659 91.3239 83.2002C91.968 82.5346 92.7436 82.0204 93.5976 81.6928C94.4516 81.3652 95.364 81.2319 96.2724 81.302H104.789V73.2237C104.789 70.8607 102.172 68.9178 99.8851 68.9178H61.4201C60.6136 68.9778 59.8037 68.863 59.0426 68.5808C58.2814 68.2986 57.5857 67.8552 57 67.2789V103.022C57 104.359 57.5897 106.757 58.5492 107.479C59.3294 108.119 60.2831 108.492 61.2778 108.546H99.9217C102.208 108.546 104.826 106.641 104.826 104.24V95.6615H96.3091C92.1045 95.7061 89.487 92.581 89.487 88.3141Z" fill="#3B8E89" stroke="black" stroke-linecap="round" stroke-linejoin="round"/>
<path d="M60.1342 72.6893H60.0264C59.6368 72.6085 59.2545 72.4937 58.8837 72.3461C58.8159 72.3161 58.7544 72.2726 58.7029 72.2181C58.6513 72.1636 58.6107 72.0991 58.5832 72.0283C58.5558 71.9576 58.5421 71.8819 58.543 71.8057C58.5439 71.7295 58.5593 71.6542 58.5883 71.5841C58.6173 71.514 58.6594 71.4505 58.7122 71.3972C58.7649 71.344 58.8273 71.302 58.8958 71.2736C58.9643 71.2453 59.0375 71.2311 59.1112 71.232C59.185 71.2329 59.2579 71.2488 59.3257 71.2788C59.6388 71.4015 59.9588 71.5041 60.2841 71.5863C60.3543 71.6038 60.4205 71.6355 60.4789 71.6795C60.5373 71.7234 60.5868 71.7789 60.6244 71.8426C60.6621 71.9064 60.6872 71.9771 60.6983 72.0509C60.7095 72.1247 60.7065 72.2 60.6894 72.2726C60.6493 72.3924 60.5745 72.4966 60.4752 72.5712C60.3759 72.6457 60.2569 72.6869 60.1342 72.6893Z" fill="black"/>
<path d="M101.692 76.5385C101.551 76.5424 101.413 76.4887 101.31 76.3888C101.206 76.2889 101.145 76.151 101.139 76.0048C101.105 75.369 100.887 74.7585 100.513 74.2524C100.425 74.1311 100.387 73.9786 100.408 73.8285C100.428 73.6784 100.506 73.5429 100.623 73.4519C100.741 73.3609 100.888 73.3218 101.034 73.3432C101.179 73.3646 101.31 73.4448 101.398 73.5661C101.915 74.2559 102.212 75.095 102.246 75.967C102.237 76.1154 102.176 76.2552 102.074 76.3603C101.972 76.4655 101.837 76.5288 101.693 76.5385H101.692ZM99.2214 73.1472C99.1577 73.1532 99.0936 73.14 99.037 73.1093C98.717 72.9909 98.3806 72.9266 98.0408 72.9188H97.0824C96.9358 72.9188 96.7951 72.8586 96.6914 72.7514C96.5876 72.6442 96.5294 72.4988 96.5294 72.3473C96.5294 72.1957 96.5876 72.0503 96.6914 71.9431C96.7951 71.8359 96.9358 71.7757 97.0824 71.7757H98.0408C98.5048 71.774 98.9659 71.8512 99.4057 72.0041C99.4743 72.028 99.5375 72.066 99.5915 72.1157C99.6456 72.1654 99.6894 72.2258 99.7204 72.2934C99.7514 72.361 99.7689 72.4343 99.7719 72.509C99.7749 72.5837 99.7633 72.6583 99.7378 72.7283C99.7083 72.8471 99.6418 72.9526 99.5484 73.0283C99.455 73.1041 99.34 73.1459 99.2214 73.1472ZM94.909 72.9567H92.7313C92.5846 72.9567 92.4439 72.8965 92.3402 72.7893C92.2365 72.6821 92.1782 72.5367 92.1782 72.3851C92.1782 72.2336 92.2365 72.0882 92.3402 71.981C92.4439 71.8738 92.5846 71.8136 92.7313 71.8136H94.9069C95.0535 71.8136 95.1942 71.8738 95.2979 71.981C95.4016 72.0882 95.4599 72.2336 95.4599 72.3851C95.4599 72.5367 95.4016 72.6821 95.2979 72.7893C95.1942 72.8965 95.0535 72.9567 94.9069 72.9567H94.909ZM90.5579 72.9567H88.3855C88.2388 72.9567 88.0982 72.8965 87.9945 72.7893C87.8907 72.6821 87.8325 72.5367 87.8325 72.3851C87.8325 72.2336 87.8907 72.0882 87.9945 71.981C88.0982 71.8738 88.2388 71.8136 88.3855 71.8136H90.5611C90.7078 71.8136 90.8484 71.8738 90.9522 71.981C91.0559 72.0882 91.1142 72.2336 91.1142 72.3851C91.1142 72.5367 91.0559 72.6821 90.9522 72.7893C90.8484 72.8965 90.7078 72.9567 90.5611 72.9567H90.5579ZM86.2067 72.9567H84.029C83.8823 72.9567 83.7416 72.8965 83.6379 72.7893C83.5342 72.6821 83.4759 72.5367 83.4759 72.3851C83.4759 72.2336 83.5342 72.0882 83.6379 71.981C83.7416 71.8738 83.8823 71.8136 84.029 71.8136H86.2046C86.3512 71.8136 86.4919 71.8738 86.5956 71.981C86.6994 72.0882 86.7576 72.2336 86.7576 72.3851C86.7576 72.5367 86.6994 72.6821 86.5956 72.7893C86.4919 72.8965 86.3512 72.9567 86.2046 72.9567H86.2067ZM81.8556 72.9567H79.6778C79.5312 72.9567 79.3905 72.8965 79.2868 72.7893C79.183 72.6821 79.1248 72.5367 79.1248 72.3851C79.1248 72.2336 79.183 72.0882 79.2868 71.981C79.3905 71.8738 79.5312 71.8136 79.6778 71.8136H81.8534C81.999 71.8173 82.1376 71.8787 82.2405 71.9851C82.3435 72.0915 82.4029 72.2347 82.4065 72.3851C82.4084 72.4607 82.3954 72.5359 82.3683 72.6062C82.3412 72.6764 82.3005 72.7402 82.2488 72.7937C82.197 72.8472 82.1353 72.8892 82.0673 72.9172C81.9993 72.9452 81.9266 72.9587 81.8534 72.9567H81.8556ZM77.5044 72.9567H75.3267C75.18 72.9567 75.0393 72.8965 74.9356 72.7893C74.8319 72.6821 74.7736 72.5367 74.7736 72.3851C74.7736 72.2336 74.8319 72.0882 74.9356 71.981C75.0393 71.8738 75.18 71.8136 75.3267 71.8136H77.5023C77.6478 71.8173 77.7864 71.8787 77.8894 71.9851C77.9924 72.0915 78.0518 72.2347 78.0553 72.3851C78.0572 72.4607 78.0443 72.5359 78.0171 72.6062C77.99 72.6764 77.9494 72.7402 77.8976 72.7937C77.8459 72.8472 77.7841 72.8892 77.7162 72.9172C77.6482 72.9452 77.5754 72.9587 77.5023 72.9567H77.5044ZM73.1533 72.9567H70.9755C70.8289 72.9567 70.6882 72.8965 70.5845 72.7893C70.4807 72.6821 70.4225 72.5367 70.4225 72.3851C70.4225 72.2336 70.4807 72.0882 70.5845 71.981C70.6882 71.8738 70.8289 71.8136 70.9755 71.8136H73.1511C73.2967 71.8173 73.4353 71.8787 73.5382 71.9851C73.6412 72.0915 73.7006 72.2347 73.7042 72.3851C73.7061 72.4607 73.6931 72.5359 73.666 72.6062C73.6389 72.6764 73.5982 72.7402 73.5465 72.7937C73.4947 72.8472 73.433 72.8892 73.365 72.9172C73.297 72.9452 73.2243 72.9587 73.1511 72.9567H73.1533ZM68.8409 72.9567H66.661C66.5144 72.9567 66.3737 72.8965 66.27 72.7893C66.1663 72.6821 66.108 72.5367 66.108 72.3851C66.108 72.2336 66.1663 72.0882 66.27 71.981C66.3737 71.8738 66.5144 71.8136 66.661 71.8136H68.8366C68.9833 71.8136 69.124 71.8738 69.2277 71.981C69.3314 72.0882 69.3897 72.2336 69.3897 72.3851C69.3897 72.5367 69.3314 72.6821 69.2277 72.7893C69.124 72.8965 68.9833 72.9567 68.8366 72.9567H68.8409ZM64.4898 72.9567H62.3099C62.1632 72.9567 62.0225 72.8965 61.9188 72.7893C61.8151 72.6821 61.7568 72.5367 61.7568 72.3851C61.7568 72.2336 61.8151 72.0882 61.9188 71.981C62.0225 71.8738 62.1632 71.8136 62.3099 71.8136H64.4855C64.6321 71.8136 64.7728 71.8738 64.8765 71.981C64.9803 72.0882 65.0385 72.2336 65.0385 72.3851C65.0385 72.5367 64.9803 72.6821 64.8765 72.7893C64.7728 72.8965 64.6321 72.9567 64.4855 72.9567H64.4898Z" fill="black"/>
<path d="M101.691 79.9296C101.545 79.926 101.407 79.8646 101.304 79.7582C101.201 79.6518 101.141 79.5085 101.138 79.3581V78.2151C101.138 78.14 101.152 78.0657 101.18 77.9964C101.208 77.927 101.248 77.864 101.3 77.8109C101.351 77.7579 101.412 77.7158 101.479 77.6871C101.546 77.6583 101.618 77.6436 101.691 77.6436C101.763 77.6436 101.835 77.6583 101.902 77.6871C101.969 77.7158 102.03 77.7579 102.082 77.8109C102.133 77.864 102.174 77.927 102.202 77.9964C102.229 78.0657 102.244 78.14 102.244 78.2151V79.3581C102.24 79.5085 102.181 79.6518 102.078 79.7582C101.975 79.8646 101.836 79.926 101.691 79.9296Z" fill="black"/>
<path d="M72.9582 105.99H70.7449C70.5982 105.99 70.4575 105.929 70.3538 105.822C70.2501 105.715 70.1918 105.57 70.1918 105.418C70.1918 105.267 70.2501 105.121 70.3538 105.014C70.4575 104.907 70.5982 104.847 70.7449 104.847H72.9571C73.1027 104.85 73.2413 104.912 73.3443 105.018C73.4472 105.124 73.5066 105.268 73.5102 105.418C73.5121 105.494 73.4992 105.569 73.4721 105.639C73.4451 105.709 73.4045 105.773 73.3529 105.826C73.3012 105.88 73.2396 105.922 73.1718 105.95C73.1039 105.978 73.0313 105.991 72.9582 105.99ZM75.1704 105.99C75.0238 105.99 74.8831 105.929 74.7794 105.822C74.6757 105.715 74.6174 105.57 74.6174 105.418C74.6174 105.267 74.6757 105.121 74.7794 105.014C74.8831 104.907 75.0238 104.847 75.1704 104.847H77.3827C77.5294 104.847 77.67 104.907 77.7738 105.014C77.8775 105.121 77.9357 105.267 77.9357 105.418C77.9357 105.57 77.8775 105.715 77.7738 105.822C77.67 105.929 77.5294 105.99 77.3827 105.99H75.1704ZM68.5327 105.99H66.3204C66.1737 105.99 66.0331 105.929 65.9294 105.822C65.8256 105.715 65.7674 105.57 65.7674 105.418C65.7674 105.267 65.8256 105.121 65.9294 105.014C66.0331 104.907 66.1737 104.847 66.3204 104.847H68.5327C68.6793 104.847 68.82 104.907 68.9237 105.014C69.0275 105.121 69.0857 105.267 69.0857 105.418C69.0857 105.57 69.0275 105.715 68.9237 105.822C68.82 105.929 68.6793 105.99 68.5327 105.99ZM79.5949 105.99C79.4482 105.99 79.3076 105.929 79.2038 105.822C79.1001 105.715 79.0419 105.57 79.0419 105.418C79.0419 105.267 79.1001 105.121 79.2038 105.014C79.3076 104.907 79.4482 104.847 79.5949 104.847H81.8072C81.9538 104.847 82.0945 104.907 82.1982 105.014C82.3019 105.121 82.3602 105.267 82.3602 105.418C82.3602 105.57 82.3019 105.715 82.1982 105.822C82.0945 105.929 81.9538 105.99 81.8072 105.99H79.5949ZM84.0151 105.99C83.8684 105.99 83.7277 105.929 83.624 105.822C83.5203 105.715 83.462 105.57 83.462 105.418C83.462 105.267 83.5203 105.121 83.624 105.014C83.7277 104.907 83.8684 104.847 84.0151 104.847H86.2327C86.3794 104.847 86.5201 104.907 86.6238 105.014C86.7275 105.121 86.7858 105.267 86.7858 105.418C86.7858 105.57 86.7275 105.715 86.6238 105.822C86.5201 105.929 86.3794 105.99 86.2327 105.99H84.0151ZM64.1028 105.99C63.181 105.99 62.4436 105.99 61.8906 105.952C61.8179 105.952 61.746 105.937 61.6789 105.908C61.6118 105.88 61.5509 105.837 61.4995 105.784C61.4481 105.731 61.4074 105.668 61.3796 105.599C61.3518 105.53 61.3375 105.455 61.3375 105.38C61.3375 105.305 61.3518 105.231 61.3796 105.162C61.4074 105.092 61.4481 105.029 61.4995 104.976C61.5509 104.923 61.6118 104.881 61.6789 104.852C61.746 104.823 61.8179 104.809 61.8906 104.809C62.4436 104.809 63.1843 104.809 64.1028 104.847C64.2495 104.847 64.3902 104.907 64.4939 105.014C64.5976 105.121 64.6559 105.267 64.6559 105.418C64.6559 105.57 64.5976 105.715 64.4939 105.822C64.3902 105.929 64.2495 105.99 64.1028 105.99ZM88.4406 105.99C88.2939 105.99 88.1533 105.929 88.0496 105.822C87.9458 105.715 87.8876 105.57 87.8876 105.418C87.8876 105.267 87.9458 105.121 88.0496 105.014C88.1533 104.907 88.2939 104.847 88.4406 104.847H90.6529C90.7995 104.847 90.9402 104.907 91.0439 105.014C91.1477 105.121 91.2059 105.267 91.2059 105.418C91.2059 105.57 91.1477 105.715 91.0439 105.822C90.9402 105.929 90.7995 105.99 90.6529 105.99H88.4406ZM92.8608 105.952C92.7141 105.952 92.5734 105.892 92.4697 105.784C92.366 105.677 92.3077 105.532 92.3077 105.38C92.3077 105.229 92.366 105.083 92.4697 104.976C92.5734 104.869 92.7141 104.809 92.8608 104.809H95.073C95.2197 104.809 95.3604 104.869 95.4641 104.976C95.5678 105.083 95.6261 105.229 95.6261 105.38C95.6261 105.532 95.5678 105.677 95.4641 105.784C95.3604 105.892 95.2197 105.952 95.073 105.952H92.8608ZM97.323 105.952C97.2504 105.952 97.1784 105.937 97.1113 105.908C97.0442 105.88 96.9833 105.837 96.9319 105.784C96.8806 105.731 96.8398 105.668 96.812 105.599C96.7842 105.53 96.7699 105.455 96.7699 105.38C96.7699 105.305 96.7842 105.231 96.812 105.162C96.8398 105.092 96.8806 105.029 96.9319 104.976C96.9833 104.923 97.0442 104.881 97.1113 104.852C97.1784 104.823 97.2504 104.809 97.323 104.809H97.6917C98.1941 104.815 98.6854 104.655 99.0932 104.352C99.2106 104.261 99.3581 104.222 99.5034 104.243C99.6487 104.265 99.7798 104.345 99.8678 104.466C99.9559 104.587 99.9937 104.74 99.973 104.89C99.9523 105.04 99.8747 105.176 99.7573 105.267C99.1721 105.718 98.4598 105.959 97.7294 105.953L97.323 105.952ZM59.674 105.723C59.622 105.729 59.5697 105.716 59.5263 105.685C59.0661 105.6 58.6348 105.394 58.2734 105.087C57.912 104.78 57.6326 104.383 57.4618 103.933C57.4448 103.86 57.4417 103.785 57.4529 103.711C57.464 103.638 57.4892 103.567 57.5268 103.503C57.5645 103.439 57.6139 103.384 57.6723 103.34C57.7307 103.296 57.7969 103.264 57.8671 103.247C57.9349 103.225 58.0062 103.218 58.0768 103.226C58.1473 103.233 58.2156 103.256 58.2776 103.291C58.3396 103.327 58.394 103.375 58.4376 103.433C58.4812 103.491 58.513 103.557 58.5312 103.628C58.5312 103.666 58.7523 104.275 59.825 104.618C59.8968 104.638 59.9639 104.673 60.022 104.721C60.0801 104.769 60.128 104.829 60.1626 104.897C60.1972 104.965 60.2179 105.04 60.2232 105.116C60.2286 105.193 60.2185 105.27 60.1937 105.342C60.1647 105.457 60.0978 105.558 60.0044 105.627C59.9111 105.696 59.7972 105.73 59.6826 105.721L59.674 105.723ZM100.568 103.475H100.46C100.39 103.463 100.323 103.437 100.262 103.397C100.202 103.358 100.15 103.307 100.108 103.247C100.067 103.187 100.038 103.119 100.023 103.047C100.007 102.975 100.006 102.9 100.018 102.828C100.049 102.678 100.061 102.524 100.055 102.371V100.653C100.055 100.502 100.113 100.356 100.217 100.249C100.321 100.142 100.461 100.082 100.608 100.082C100.755 100.082 100.895 100.142 100.999 100.249C101.103 100.356 101.161 100.502 101.161 100.653V102.368C101.157 102.585 101.132 102.802 101.088 103.015C101.07 103.142 101.008 103.258 100.915 103.342C100.821 103.426 100.701 103.473 100.577 103.473L100.568 103.475ZM100.605 98.9074C100.459 98.9037 100.321 98.8423 100.218 98.7359C100.115 98.6295 100.055 98.4863 100.052 98.3359V97.8791C100.052 97.7275 100.11 97.5821 100.214 97.475C100.317 97.3678 100.458 97.3076 100.605 97.3076C100.751 97.3076 100.892 97.3678 100.996 97.475C101.099 97.5821 101.158 97.7275 101.158 97.8791V98.3359C101.153 98.4834 101.094 98.6236 100.993 98.7283C100.892 98.8331 100.757 98.8946 100.614 98.9007L100.605 98.9074Z" fill="black"/>
<path d="M104.53 80.2555H95.0145C93.0052 80.2573 91.0786 81.0829 89.6576 82.551C88.2367 84.0192 87.4375 86.01 87.4355 88.0865C87.4355 92.4314 90.8132 96.7697 95.0145 96.7697H104.53C105.169 96.7199 105.77 96.4348 106.223 95.9663C106.677 95.4978 106.952 94.8769 107.001 94.2162V81.9612C107.002 81.0209 105.763 80.0851 104.53 80.2555Z" fill="#F7F7F7" stroke="black"/>
<path d="M98.2265 85.8368C97.716 85.8368 97.217 85.9932 96.7926 86.2863C96.3681 86.5793 96.0373 86.9959 95.842 87.4832C95.6466 87.9706 95.5955 88.5069 95.6951 89.0242C95.7947 89.5416 96.0405 90.0168 96.4015 90.3898C96.7624 90.7628 97.2223 91.0169 97.723 91.1198C98.2236 91.2227 98.7426 91.1699 99.2142 90.968C99.6858 90.7661 100.089 90.4243 100.372 89.9857C100.656 89.5471 100.807 89.0314 100.807 88.5039C100.806 87.7971 100.533 87.1197 100.05 86.6199C99.566 86.1201 98.9105 85.8386 98.2265 85.8368Z" fill="#46958F" stroke="black"/>
</svg>
