<svg width="52" height="66" viewBox="0 0 52 66" fill="none" xmlns="http://www.w3.org/2000/svg">
<mask id="mask0_188_345" style="mask-type:alpha" maskUnits="userSpaceOnUse" x="0" y="41" width="52" height="25">
<path fill-rule="evenodd" clip-rule="evenodd" d="M0 41.1123H51.4797V65.0778H0V41.1123Z" fill="white"/>
</mask>
<g mask="url(#mask0_188_345)">
<path fill-rule="evenodd" clip-rule="evenodd" d="M25.7429 45.9873C11.8947 45.9873 4.8747 48.3663 4.8747 53.0626C4.8747 57.8011 11.8947 60.2028 25.7429 60.2028C39.5879 60.2028 46.6047 57.8238 46.6047 53.1276C46.6047 48.3891 39.5879 45.9873 25.7429 45.9873M25.7429 65.0778C19.3762 65.0778 -0.000305176 65.0778 -0.000305176 53.0626C-0.000305176 42.3506 14.6929 41.1123 25.7429 41.1123C32.1097 41.1123 51.4797 41.1123 51.4797 53.1276C51.4797 63.8396 36.7897 65.0778 25.7429 65.0778" fill="#E0F4F3"/>
</g>
<mask id="mask1_188_345" style="mask-type:alpha" maskUnits="userSpaceOnUse" x="8" y="0" width="35" height="36">
<path fill-rule="evenodd" clip-rule="evenodd" d="M8.48206 0.500336H42.9972V35.0108H8.48206V0.500336Z" fill="white"/>
</mask>
<g mask="url(#mask1_188_345)">
<path fill-rule="evenodd" clip-rule="evenodd" d="M25.7429 5.14002C18.7847 5.14002 13.1232 10.7983 13.1232 17.7565C13.1004 24.692 18.7197 30.347 25.6487 30.373L25.7429 32.6935V30.373C32.6979 30.373 38.3562 24.7115 38.3562 17.7565C38.3562 10.7983 32.6979 5.14002 25.7429 5.14002M25.7429 35.0108H25.6389C16.1424 34.9815 8.44966 27.2368 8.48216 17.7468C8.48216 8.24052 16.2237 0.499023 25.7429 0.499023C35.2589 0.499023 42.9972 8.24052 42.9972 17.7565C42.9972 27.2725 35.2589 35.0108 25.7429 35.0108" fill="#E0F4F3"/>
</g>
</svg>