<svg width="128" height="128" viewBox="0 0 128 128" fill="none" xmlns="http://www.w3.org/2000/svg">
<rect width="128" height="128" rx="64" fill="#46958F"/>
<mask id="mask0_188_7890" style="mask-type:alpha" maskUnits="userSpaceOnUse" x="38" y="72" width="52" height="25">
<path fill-rule="evenodd" clip-rule="evenodd" d="M38 72.1123H89.4797V96.0778H38V72.1123Z" fill="white"/>
</mask>
<g mask="url(#mask0_188_7890)">
<path fill-rule="evenodd" clip-rule="evenodd" d="M63.7429 76.9873C49.8947 76.9873 42.8747 79.3663 42.8747 84.0626C42.8747 88.8011 49.8947 91.2028 63.7429 91.2028C77.5879 91.2028 84.6047 88.8238 84.6047 84.1276C84.6047 79.3891 77.5879 76.9873 63.7429 76.9873M63.7429 96.0778C57.3762 96.0778 37.9997 96.0778 37.9997 84.0626C37.9997 73.3506 52.6929 72.1123 63.7429 72.1123C70.1097 72.1123 89.4797 72.1123 89.4797 84.1276C89.4797 94.8396 74.7897 96.0778 63.7429 96.0778" fill="#E0F4F3"/>
</g>
<mask id="mask1_188_7890" style="mask-type:alpha" maskUnits="userSpaceOnUse" x="46" y="31" width="35" height="36">
<path fill-rule="evenodd" clip-rule="evenodd" d="M46.4821 31.5003H80.9972V66.0108H46.4821V31.5003Z" fill="white"/>
</mask>
<g mask="url(#mask1_188_7890)">
<path fill-rule="evenodd" clip-rule="evenodd" d="M63.7429 36.14C56.7847 36.14 51.1232 41.7983 51.1232 48.7565C51.1004 55.692 56.7197 61.347 63.6487 61.373L63.7429 63.6935V61.373C70.6979 61.373 76.3562 55.7115 76.3562 48.7565C76.3562 41.7983 70.6979 36.14 63.7429 36.14M63.7429 66.0108H63.6389C54.1424 65.9815 46.4497 58.2368 46.4822 48.7468C46.4822 39.2405 54.2237 31.499 63.7429 31.499C73.2589 31.499 80.9972 39.2405 80.9972 48.7565C80.9972 58.2725 73.2589 66.0108 63.7429 66.0108" fill="#E0F4F3"/>
</g>
</svg>
