<svg width="269" height="163" viewBox="0 0 269 163" fill="none" xmlns="http://www.w3.org/2000/svg">
<g filter="url(#filter0_i_138_5931)">
<rect x="10" y="10" width="249" height="143" rx="20" fill="#46958F"/>
<path d="M166.747 52.8979H102.213C101.517 52.8979 101.24 52.2199 101.796 52.0256L133.089 38.9431C133.528 38.7528 134.034 38.6519 134.55 38.6519C135.066 38.6519 135.572 38.7528 136.01 38.9431L167.303 52.0256C167.722 52.2199 167.443 52.8979 166.747 52.8979Z" fill="#E0F4F3" stroke="black" stroke-linecap="round" stroke-linejoin="round"/>
<path d="M162.291 52.8983H106.664V54.8362C106.652 54.9655 106.681 55.0951 106.747 55.2162C106.813 55.3374 106.915 55.4474 107.046 55.539C107.178 55.6306 107.336 55.7018 107.509 55.7477C107.683 55.7937 107.869 55.8134 108.055 55.8056H160.906C161.091 55.8128 161.276 55.7925 161.449 55.7463C161.623 55.7 161.78 55.6288 161.91 55.5372C162.041 55.4457 162.143 55.3359 162.208 55.2151C162.274 55.0943 162.302 54.9651 162.291 54.8362V52.8983Z" fill="#F7F7F7" stroke="black" stroke-linecap="round" stroke-linejoin="round"/>
<path d="M160.906 74.2172H108.055C107.869 74.2094 107.683 74.2292 107.509 74.2751C107.336 74.3211 107.178 74.3922 107.046 74.4839C106.915 74.5755 106.813 74.6855 106.747 74.8066C106.681 74.9278 106.652 75.0573 106.664 75.1866V77.1246H162.291V75.1866C162.302 75.0577 162.274 74.9286 162.208 74.8078C162.143 74.6869 162.041 74.5772 161.91 74.4856C161.78 74.3941 161.623 74.3228 161.449 74.2766C161.276 74.2303 161.091 74.2101 160.906 74.2172V74.2172Z" fill="#F7F7F7" stroke="black" stroke-linecap="round" stroke-linejoin="round"/>
<path d="M165.079 77.1239H103.882C103.696 77.1161 103.51 77.1359 103.337 77.1818C103.163 77.2278 103.005 77.2989 102.873 77.3906C102.742 77.4822 102.64 77.5922 102.574 77.7133C102.508 77.8345 102.479 77.964 102.491 78.0934V80.9998H166.469V78.0934C166.48 77.9641 166.451 77.8347 166.386 77.7136C166.32 77.5925 166.218 77.4825 166.086 77.3909C165.955 77.2993 165.797 77.2281 165.624 77.1821C165.45 77.1361 165.264 77.1163 165.079 77.1239V77.1239Z" fill="#E0F4F3" stroke="black"/>
<path d="M140.042 57.7435V55.8056H128.917V57.7435C128.905 57.8728 128.934 58.0024 129 58.1235C129.066 58.2446 129.168 58.3547 129.299 58.4463C129.431 58.5379 129.589 58.6091 129.762 58.655C129.936 58.701 130.122 58.7207 130.308 58.7129V71.309C130.122 71.3012 129.936 71.3209 129.762 71.3669C129.588 71.4129 129.43 71.4841 129.299 71.5759C129.167 71.6676 129.065 71.7777 128.999 71.899C128.933 72.0202 128.905 72.1498 128.917 72.2793V74.2172H140.042V72.2793C140.053 72.1499 140.025 72.0204 139.959 71.8992C139.894 71.778 139.792 71.6679 139.66 71.5762C139.529 71.4845 139.371 71.4133 139.197 71.3672C139.023 71.3211 138.838 71.3013 138.652 71.309V58.7129C138.837 58.7206 139.023 58.7007 139.197 58.6547C139.371 58.6087 139.528 58.5375 139.66 58.4459C139.791 58.3543 139.893 58.2444 139.959 58.1233C140.025 58.0022 140.053 57.8728 140.042 57.7435V57.7435Z" fill="#E0F4F3" stroke="black" stroke-linecap="round" stroke-linejoin="round"/>
<path d="M121.962 57.7435V55.8056H110.836V57.7435C110.825 57.8728 110.854 58.0024 110.92 58.1235C110.985 58.2446 111.088 58.3547 111.219 58.4463C111.351 58.5379 111.508 58.6091 111.682 58.655C111.856 58.701 112.042 58.7207 112.228 58.7129V71.309C112.042 71.3012 111.856 71.3209 111.682 71.3669C111.508 71.4129 111.35 71.4841 111.219 71.5759C111.087 71.6676 110.985 71.7777 110.919 71.899C110.853 72.0202 110.825 72.1498 110.836 72.2793V74.2172H121.962V72.2793C121.973 72.1499 121.945 72.0204 121.879 71.8992C121.814 71.778 121.712 71.6679 121.58 71.5762C121.449 71.4845 121.291 71.4133 121.117 71.3672C120.943 71.3211 120.758 71.3013 120.572 71.309V58.7129C120.757 58.7206 120.943 58.7007 121.117 58.6547C121.291 58.6087 121.448 58.5375 121.58 58.4459C121.711 58.3543 121.813 58.2444 121.879 58.1233C121.945 58.0022 121.973 57.8728 121.962 57.7435V57.7435Z" fill="#E0F4F3" stroke="black" stroke-linecap="round" stroke-linejoin="round"/>
<path d="M158.122 57.7435V55.8056H146.997V57.7435C146.985 57.8728 147.014 58.0024 147.08 58.1235C147.146 58.2446 147.248 58.3547 147.379 58.4463C147.511 58.5379 147.669 58.6091 147.843 58.655C148.016 58.701 148.202 58.7207 148.388 58.7129V71.309C148.202 71.3012 148.016 71.3209 147.842 71.3669C147.668 71.4129 147.51 71.4841 147.379 71.5759C147.247 71.6676 147.145 71.7777 147.079 71.899C147.013 72.0202 146.985 72.1498 146.997 72.2793V74.2172H158.122V72.2793C158.133 72.1499 158.105 72.0204 158.039 71.8992C157.974 71.778 157.872 71.6679 157.74 71.5762C157.609 71.4845 157.451 71.4133 157.277 71.3672C157.104 71.3211 156.918 71.3013 156.732 71.309V58.7129C156.918 58.7206 157.103 58.7007 157.277 58.6547C157.451 58.6087 157.609 58.5375 157.74 58.4459C157.871 58.3543 157.973 58.2444 158.039 58.1233C158.105 58.0022 158.133 57.8728 158.122 57.7435V57.7435Z" fill="#E0F4F3" stroke="black" stroke-linecap="round" stroke-linejoin="round"/>
<path d="M123.354 48.053H145.608" stroke="black" stroke-width="4" stroke-miterlimit="10" stroke-linecap="round" stroke-linejoin="round"/>
<path d="M120.706 40.4935C120.498 41.8526 120.7 43.227 121.299 44.5285C121.898 45.8301 122.88 47.0302 124.183 48.0518H144.912C146.769 46.5886 147.946 44.7675 148.286 42.8288C148.627 40.8901 148.116 38.925 146.82 37.1929C145.524 35.4609 143.505 34.0434 141.029 33.1275C138.553 32.2116 135.737 31.8404 132.952 32.0629C129.83 32.2717 126.907 33.2244 124.676 34.7602C122.445 36.2961 121.043 38.321 120.706 40.4935V40.4935Z" fill="#E0F4F3" stroke="black"/>
<path d="M129.545 39.9017L127 39.9017V42.0783H129.545C129.616 44.5783 129.545 44.8484 129.616 45.9684H131.545C131.5 45.0341 131.593 43.3178 131.545 41.9017C131.477 39.9017 131.56 39.9017 132.045 39.9017C132.716 40.4017 133.11 41.1608 133.545 41.9017C135.051 44.4681 134.96 45.9516 136.051 45.9681C136.782 45.9792 137.805 46.0341 138.805 45.9678C138.805 44.9678 138.787 43.1271 138.805 42.0783L141.051 42.0744V39.9017H138.805C138.805 38.5341 138.805 37.9677 138.813 36.2368H136.805C136.805 37.5407 136.785 39.8786 136.805 41.0341C136.805 42.1467 137.08 42.7675 136.499 42.7675C136.051 42.2368 135.474 41.0341 135.045 40.4017C133.254 37.7609 134.7 39.8532 132.045 36.2368C131.334 36.2804 131.045 36.2368 129.545 36.2368C129.545 37.7368 129.474 38.9502 129.545 39.9017Z" fill="#3B8E89"/>
<path d="M85.16 92.0798H89.04V117.28H103.72V121H85.16V92.0798ZM116.803 121.4C114.909 121.4 113.283 121.026 111.923 120.28C110.563 119.506 109.509 118.466 108.763 117.16C108.043 115.826 107.683 114.306 107.683 112.6C107.683 110.973 108.096 109.493 108.923 108.16C109.749 106.826 110.856 105.76 112.243 104.96C113.629 104.16 115.176 103.76 116.883 103.76C119.069 103.76 120.883 104.4 122.323 105.68C123.763 106.96 124.736 108.72 125.243 110.96L111.603 115.76L110.723 113.56L121.923 109.48L121.123 110C120.803 109.12 120.269 108.36 119.523 107.72C118.776 107.053 117.803 106.72 116.603 106.72C115.589 106.72 114.683 106.973 113.883 107.48C113.083 107.96 112.456 108.626 112.003 109.48C111.549 110.333 111.323 111.306 111.323 112.4C111.323 113.546 111.563 114.56 112.043 115.44C112.523 116.293 113.176 116.973 114.003 117.48C114.856 117.96 115.816 118.2 116.883 118.2C117.603 118.2 118.296 118.066 118.963 117.8C119.656 117.533 120.296 117.186 120.883 116.76L122.603 119.52C121.776 120.08 120.843 120.533 119.803 120.88C118.789 121.226 117.789 121.4 116.803 121.4ZM136.784 121.4C135.237 121.4 133.824 121.066 132.544 120.4C131.291 119.733 130.291 118.76 129.544 117.48C128.824 116.173 128.464 114.586 128.464 112.72C128.464 110.88 128.851 109.293 129.624 107.96C130.397 106.6 131.424 105.56 132.704 104.84C134.011 104.12 135.437 103.76 136.984 103.76C138.531 103.76 139.837 104.12 140.904 104.84C141.971 105.533 142.784 106.36 143.344 107.32L143.104 107.96L143.464 104.44H146.904V121H143.184V116.68L143.584 117.64C143.477 117.906 143.237 118.253 142.864 118.68C142.517 119.08 142.037 119.493 141.424 119.92C140.837 120.346 140.157 120.706 139.384 121C138.611 121.266 137.744 121.4 136.784 121.4ZM137.784 118.32C138.717 118.32 139.557 118.146 140.304 117.8C141.051 117.453 141.664 116.973 142.144 116.36C142.651 115.72 142.997 114.96 143.184 114.08V110.84C142.971 110.04 142.597 109.346 142.064 108.76C141.531 108.146 140.891 107.68 140.144 107.36C139.397 107.013 138.571 106.84 137.664 106.84C136.677 106.84 135.771 107.08 134.944 107.56C134.117 108.04 133.451 108.706 132.944 109.56C132.464 110.413 132.224 111.413 132.224 112.56C132.224 113.626 132.477 114.6 132.984 115.48C133.491 116.36 134.171 117.053 135.024 117.56C135.877 118.066 136.797 118.32 137.784 118.32ZM156.662 104.44L157.022 109.24L156.822 108.6C157.248 107.586 157.862 106.733 158.662 106.04C159.488 105.32 160.342 104.773 161.222 104.4C162.128 104 162.915 103.8 163.582 103.8L163.382 107.48C162.128 107.4 161.022 107.64 160.062 108.2C159.128 108.76 158.382 109.506 157.822 110.44C157.288 111.373 157.022 112.373 157.022 113.44V121H153.342V104.44H156.662ZM171.701 104.44L172.021 108.48L171.861 107.84C172.394 106.613 173.261 105.64 174.461 104.92C175.661 104.173 177.047 103.8 178.621 103.8C180.194 103.8 181.474 104.266 182.461 105.2C183.474 106.106 183.994 107.293 184.021 108.76V121H180.261V110.08C180.234 109.173 179.967 108.44 179.461 107.88C178.981 107.293 178.221 107 177.181 107C176.221 107 175.354 107.266 174.581 107.8C173.807 108.333 173.194 109.066 172.741 110C172.314 110.933 172.101 112.013 172.101 113.24V121H168.381V104.44H171.701Z" fill="white"/>
</g>
<defs>
<filter id="filter0_i_138_5931" x="4" y="4" width="255" height="149" filterUnits="userSpaceOnUse" color-interpolation-filters="sRGB">
<feFlood flood-opacity="0" result="BackgroundImageFix"/>
<feBlend mode="normal" in="SourceGraphic" in2="BackgroundImageFix" result="shape"/>
<feColorMatrix in="SourceAlpha" type="matrix" values="0 0 0 0 0 0 0 0 0 0 0 0 0 0 0 0 0 0 127 0" result="hardAlpha"/>
<feOffset dx="-6" dy="-6"/>
<feGaussianBlur stdDeviation="10"/>
<feComposite in2="hardAlpha" operator="arithmetic" k2="-1" k3="1"/>
<feColorMatrix type="matrix" values="0 0 0 0 0 0 0 0 0 0 0 0 0 0 0 0 0 0 0.29 0"/>
<feBlend mode="normal" in2="shape" result="effect1_innerShadow_138_5931"/>
</filter>
</defs>
</svg>
