<svg width="256" height="163" viewBox="0 0 256 163" fill="none" xmlns="http://www.w3.org/2000/svg">
<g filter="url(#filter0_i_138_5929)">
<rect x="10" y="10" width="232" height="143" rx="20" fill="#46958F"/>
<path d="M159 52.1017H107.4V80.9998H159V52.1017Z" fill="#E0F4F3" stroke="black" stroke-linecap="round" stroke-linejoin="round"/>
<path d="M155.622 72.6027V58.8849C154.629 58.8849 153.677 58.472 152.975 57.7371C152.273 57.0022 151.879 56.0054 151.879 54.9661H114.447C114.447 56.0054 114.053 57.0022 113.351 57.7371C112.649 58.472 111.697 58.8849 110.704 58.8849V72.6027C111.697 72.6027 112.649 73.0156 113.351 73.7506C114.053 74.4855 114.447 75.4822 114.447 76.5216H151.879C151.879 75.4822 152.273 74.4855 152.975 73.7506C153.677 73.0156 154.629 72.6027 155.622 72.6027V72.6027Z" fill="#F7F7F7" stroke="black" stroke-linecap="round" stroke-linejoin="round"/>
<path d="M133.163 76.5216C137.426 76.5216 140.882 71.6962 140.882 65.7438C140.882 59.7914 137.426 54.9661 133.163 54.9661C128.899 54.9661 125.443 59.7914 125.443 65.7438C125.443 71.6962 128.899 76.5216 133.163 76.5216Z" fill="#E0F4F3" stroke="black"/>
<path d="M147.6 67.179C148.594 67.179 149.4 66.3352 149.4 65.2943C149.4 64.2534 148.594 63.4096 147.6 63.4096C146.606 63.4096 145.8 64.2534 145.8 65.2943C145.8 66.3352 146.606 67.179 147.6 67.179Z" fill="#E0F4F3" stroke="black"/>
<path d="M118.8 67.179C119.794 67.179 120.6 66.3352 120.6 65.2943C120.6 64.2534 119.794 63.4096 118.8 63.4096C117.806 63.4096 117 64.2534 117 65.2943C117 66.3352 117.806 67.179 118.8 67.179Z" fill="#E0F4F3" stroke="black"/>
<path d="M138.766 73.142C137.839 72.2243 136.697 71.5797 135.456 71.2736C135.35 71.2556 135.253 71.1977 135.185 71.1107C135.117 71.0236 135.082 70.9136 135.086 70.8012C135.097 70.5499 135.097 70.2785 135.096 69.9983C135.096 69.355 135.835 68.5798 135.876 67.6777C136.103 67.2198 136.234 66.7166 136.262 66.2014C136.271 66.0998 136.26 65.9975 136.23 65.9005C136.2 65.8035 136.151 65.714 136.087 65.6372C136.147 65.3005 136.198 64.9449 136.262 64.5793C136.444 63.9781 136.391 63.3261 136.115 62.7656C135.839 62.2051 135.363 61.7817 134.79 61.5877C133.733 61.3826 132.722 60.9759 131.806 60.3878C131.557 60.1365 131.728 61.5588 131.502 61.6656C130.948 61.8611 130.488 62.2742 130.219 62.8178C129.951 63.3614 129.894 63.9929 130.062 64.5793C130.124 64.9449 130.182 65.3005 130.237 65.6372C130.173 65.714 130.124 65.8035 130.094 65.9005C130.064 65.9975 130.053 66.0998 130.062 66.2014C130.089 66.7166 130.221 67.2198 130.448 67.6777C130.489 68.5811 131.228 69.3111 131.228 69.9983C131.228 70.2785 131.228 70.5474 131.238 70.8012C131.242 70.9136 131.206 71.0236 131.138 71.1107C131.07 71.1977 130.974 71.2556 130.868 71.2736C129.626 71.5797 128.484 72.2243 127.557 73.142C128.161 74.1375 128.986 74.965 129.962 75.5536C130.938 76.1423 132.036 76.4745 133.161 76.5218C134.287 76.4745 135.384 76.1423 136.36 75.5536C137.336 74.965 138.161 74.1375 138.765 73.142H138.766Z" fill="#F7F7F7" stroke="black" stroke-linecap="round" stroke-linejoin="round"/>
<path d="M101.142 35.5849C101.142 35.5849 122.961 32.0606 124.522 32.9326C126.083 33.8045 141.153 40.0729 141.153 40.0729C141.153 40.0729 151.347 46.2295 151.394 47.3955C151.44 48.5614 152.214 51.9048 148.842 51.4399C145.47 50.9751 139.122 45.7068 139.122 45.7068H124.523C124.523 45.7068 122.679 46.9142 123.956 48.5149C125.232 50.1156 131.223 54.0559 130.939 55.0258C130.656 55.9958 130.873 60.818 126.285 59.1218C121.696 57.4256 111.709 51.4412 111.709 51.4412L106.826 47.3967L101.142 48.5149V35.5849" fill="#F7F7F7"/>
<path d="M101.142 35.5849C101.142 35.5849 122.961 32.0606 124.522 32.9326C126.083 33.8045 141.153 40.0729 141.153 40.0729C141.153 40.0729 151.347 46.2295 151.394 47.3955C151.44 48.5614 152.214 51.9048 148.842 51.4399C145.47 50.9751 139.122 45.7068 139.122 45.7068H124.523C124.523 45.7068 122.679 46.9142 123.956 48.5149C125.232 50.1156 131.223 54.0559 130.939 55.0258C130.656 55.9958 130.873 60.818 126.285 59.1218C121.696 57.4256 111.709 51.4412 111.709 51.4412L106.826 47.3967L101.142 48.5149V35.5849" stroke="black" stroke-linecap="round" stroke-linejoin="round"/>
<path d="M101.4 32H94.2002C93.5374 32 93.0002 32.5625 93.0002 33.2564V52.1031C93.0002 52.797 93.5374 53.3595 94.2002 53.3595H101.4C102.063 53.3595 102.6 52.797 102.6 52.1031V33.2564C102.6 32.5625 102.063 32 101.4 32Z" fill="#E0F4F3"/>
<path d="M101.4 32.6282H94.2002C93.8688 32.6282 93.6002 32.9095 93.6002 33.2565V52.1031C93.6002 52.4501 93.8688 52.7313 94.2002 52.7313H101.4C101.732 52.7313 102 52.4501 102 52.1031V33.2565C102 32.9095 101.732 32.6282 101.4 32.6282Z" stroke="black" stroke-linecap="round" stroke-linejoin="round"/>
<path d="M100.12 97.2398C99.1333 96.7332 98.0533 96.2932 96.88 95.9198C95.7067 95.5465 94.56 95.3598 93.44 95.3598C91.8933 95.3598 90.6533 95.7198 89.72 96.4398C88.8133 97.1598 88.36 98.1198 88.36 99.3198C88.36 100.226 88.6533 101 89.24 101.64C89.8267 102.253 90.6 102.786 91.56 103.24C92.52 103.693 93.52 104.12 94.56 104.52C95.4667 104.866 96.36 105.253 97.24 105.68C98.12 106.106 98.9067 106.64 99.6 107.28C100.32 107.92 100.88 108.706 101.28 109.64C101.707 110.573 101.92 111.733 101.92 113.12C101.92 114.64 101.533 116.026 100.76 117.28C100.013 118.533 98.9333 119.52 97.52 120.24C96.1067 120.96 94.4267 121.32 92.48 121.32C91.2 121.32 89.9733 121.173 88.8 120.88C87.6533 120.586 86.5867 120.213 85.6 119.76C84.6133 119.28 83.7333 118.786 82.96 118.28L84.68 115.24C85.32 115.693 86.0533 116.133 86.88 116.56C87.7067 116.96 88.5733 117.293 89.48 117.56C90.3867 117.8 91.2667 117.92 92.12 117.92C93.0267 117.92 93.92 117.76 94.8 117.44C95.7067 117.093 96.4533 116.573 97.04 115.88C97.6267 115.186 97.92 114.266 97.92 113.12C97.92 112.133 97.6533 111.32 97.12 110.68C96.6133 110.013 95.9333 109.453 95.08 109C94.2267 108.52 93.32 108.093 92.36 107.72C91.4533 107.373 90.5333 107 89.6 106.6C88.6667 106.173 87.8 105.666 87 105.08C86.2 104.466 85.56 103.72 85.08 102.84C84.6 101.96 84.36 100.893 84.36 99.6398C84.36 98.1198 84.72 96.7998 85.44 95.6798C86.1867 94.5332 87.2 93.6398 88.48 92.9998C89.76 92.3332 91.2267 91.9732 92.88 91.9198C94.7467 91.9198 96.3867 92.1465 97.8 92.5998C99.24 93.0532 100.507 93.6132 101.6 94.2798L100.12 97.2398ZM115.201 121.4C113.308 121.4 111.681 121.026 110.321 120.28C108.961 119.506 107.908 118.466 107.161 117.16C106.441 115.826 106.081 114.306 106.081 112.6C106.081 110.973 106.495 109.493 107.321 108.16C108.148 106.826 109.255 105.76 110.641 104.96C112.028 104.16 113.575 103.76 115.281 103.76C117.468 103.76 119.281 104.4 120.721 105.68C122.161 106.96 123.135 108.72 123.641 110.96L110.001 115.76L109.121 113.56L120.321 109.48L119.521 110C119.201 109.12 118.668 108.36 117.921 107.72C117.175 107.053 116.201 106.72 115.001 106.72C113.988 106.72 113.081 106.973 112.281 107.48C111.481 107.96 110.855 108.626 110.401 109.48C109.948 110.333 109.721 111.306 109.721 112.4C109.721 113.546 109.961 114.56 110.441 115.44C110.921 116.293 111.575 116.973 112.401 117.48C113.255 117.96 114.215 118.2 115.281 118.2C116.001 118.2 116.695 118.066 117.361 117.8C118.055 117.533 118.695 117.186 119.281 116.76L121.001 119.52C120.175 120.08 119.241 120.533 118.201 120.88C117.188 121.226 116.188 121.4 115.201 121.4ZM131.623 104.44L131.943 108.48L131.783 107.84C132.316 106.613 133.183 105.64 134.383 104.92C135.583 104.173 136.969 103.8 138.543 103.8C140.116 103.8 141.396 104.266 142.383 105.2C143.396 106.106 143.916 107.293 143.943 108.76V121H140.183V110.08C140.156 109.173 139.889 108.44 139.383 107.88C138.903 107.293 138.143 107 137.103 107C136.143 107 135.276 107.266 134.503 107.8C133.729 108.333 133.116 109.066 132.663 110C132.236 110.933 132.023 112.013 132.023 113.24V121H128.303V104.44H131.623ZM157.132 121.4C155.612 121.4 154.225 121.04 152.972 120.32C151.745 119.573 150.772 118.533 150.052 117.2C149.332 115.84 148.972 114.28 148.972 112.52C148.972 110.68 149.345 109.106 150.092 107.8C150.865 106.493 151.905 105.493 153.212 104.8C154.519 104.106 155.985 103.76 157.612 103.76C158.919 103.76 160.159 104.04 161.332 104.6C162.532 105.16 163.465 105.933 164.132 106.92L163.972 108.24V90.0398H167.652V121H163.932V116.88L164.332 117.92C163.559 118.933 162.559 119.773 161.332 120.44C160.105 121.08 158.705 121.4 157.132 121.4ZM158.292 118.24C159.279 118.24 160.159 118.066 160.932 117.72C161.705 117.346 162.345 116.84 162.852 116.2C163.359 115.56 163.719 114.8 163.932 113.92V110.8C163.719 110 163.332 109.306 162.772 108.72C162.239 108.106 161.585 107.626 160.812 107.28C160.065 106.906 159.225 106.72 158.292 106.72C157.279 106.72 156.345 106.973 155.492 107.48C154.665 107.96 153.999 108.626 153.492 109.48C152.985 110.333 152.732 111.32 152.732 112.44C152.732 113.533 152.985 114.52 153.492 115.4C153.999 116.253 154.679 116.946 155.532 117.48C156.385 117.986 157.305 118.24 158.292 118.24Z" fill="white"/>
</g>
<defs>
<filter id="filter0_i_138_5929" x="4" y="4" width="238" height="149" filterUnits="userSpaceOnUse" color-interpolation-filters="sRGB">
<feFlood flood-opacity="0" result="BackgroundImageFix"/>
<feBlend mode="normal" in="SourceGraphic" in2="BackgroundImageFix" result="shape"/>
<feColorMatrix in="SourceAlpha" type="matrix" values="0 0 0 0 0 0 0 0 0 0 0 0 0 0 0 0 0 0 127 0" result="hardAlpha"/>
<feOffset dx="-6" dy="-6"/>
<feGaussianBlur stdDeviation="10"/>
<feComposite in2="hardAlpha" operator="arithmetic" k2="-1" k3="1"/>
<feColorMatrix type="matrix" values="0 0 0 0 0 0 0 0 0 0 0 0 0 0 0 0 0 0 0.29 0"/>
<feBlend mode="normal" in2="shape" result="effect1_innerShadow_138_5929"/>
</filter>
</defs>
</svg>
