<svg width="119" height="142" viewBox="0 0 119 142" fill="none" xmlns="http://www.w3.org/2000/svg">
<mask id="mask0_138_5908" style="mask-type:alpha" maskUnits="userSpaceOnUse" x="10" y="4" width="100" height="90">
<path fill-rule="evenodd" clip-rule="evenodd" d="M10.2532 4.16748H109.902V93.7716H10.2532V4.16748Z" fill="white"/>
</mask>
<g mask="url(#mask0_138_5908)">
<path fill-rule="evenodd" clip-rule="evenodd" d="M67.2082 63.7137C73.0608 63.7137 77.8246 67.7679 77.8246 72.7512V85.5679C77.8246 86.6387 78.8259 87.4971 80.1092 87.5221H89.3743C96.6754 87.5221 102.611 82.4971 102.611 76.3221V39.9721C102.577 37.8471 101.395 35.8471 99.3684 34.5179L67.32 12.6096C63.0181 9.68875 57.0002 9.68875 52.6836 12.6179L20.854 34.5096C18.7492 35.8804 17.568 37.8804 17.5437 40.0429V76.3221C17.5437 82.4971 23.4789 87.5221 30.7801 87.5221H40.1326C41.4499 87.5221 42.5193 86.6262 42.5193 85.5262C42.5193 85.2846 42.5534 85.0429 42.6117 84.8137V72.7512C42.6117 67.7971 47.3463 63.7471 53.1551 63.7137H67.2082ZM89.3743 93.7721H80.0217C74.6649 93.6637 70.5331 90.0596 70.5331 85.5679V72.7512C70.5331 71.2137 69.0408 69.9637 67.2082 69.9637H53.1795C51.3857 69.9721 49.9032 71.2262 49.9032 72.7512V85.5262C49.9032 85.8387 49.8545 86.1387 49.7525 86.4221C49.2275 90.5471 45.1151 93.7721 40.1326 93.7721H30.7801C19.4589 93.7721 10.2522 85.9429 10.2522 76.3221V40.0137C10.3008 35.8721 12.5271 32.0804 16.3722 29.5846L48.1386 7.73041C55.1336 2.98041 64.8798 2.98041 71.8602 7.72208L103.855 29.5971C107.613 32.0512 109.839 35.8346 109.902 39.9262V76.3221C109.902 85.9429 100.695 93.7721 89.3743 93.7721Z" fill="#3B8E89"/>
</g>
<path d="M28.8989 102.56V132H23.0989V120.04H9.93887V132H4.13887V102.56H9.93887V114.44H23.0989V102.56H28.8989ZM34.4026 123.04C34.4026 121.253 34.816 119.653 35.6426 118.24C36.496 116.827 37.6826 115.72 39.2026 114.92C40.7226 114.093 42.4693 113.68 44.4426 113.68C46.4426 113.68 48.176 114.093 49.6426 114.92C51.1093 115.72 52.2293 116.827 53.0026 118.24C53.8026 119.653 54.2026 121.253 54.2026 123.04C54.2026 124.827 53.8026 126.44 53.0026 127.88C52.2293 129.293 51.1093 130.413 49.6426 131.24C48.176 132.067 46.416 132.48 44.3626 132.48C42.4426 132.48 40.7226 132.107 39.2026 131.36C37.7093 130.613 36.536 129.533 35.6826 128.12C34.8293 126.707 34.4026 125.013 34.4026 123.04ZM40.0426 123.08C40.0426 123.987 40.2293 124.813 40.6026 125.56C40.976 126.28 41.4826 126.853 42.1226 127.28C42.7626 127.707 43.4826 127.92 44.2826 127.92C45.1626 127.92 45.9226 127.707 46.5626 127.28C47.2026 126.853 47.696 126.28 48.0426 125.56C48.3893 124.813 48.5626 123.987 48.5626 123.08C48.5626 122.147 48.3893 121.32 48.0426 120.6C47.696 119.88 47.2026 119.307 46.5626 118.88C45.9226 118.453 45.1626 118.24 44.2826 118.24C43.4826 118.24 42.7626 118.453 42.1226 118.88C41.4826 119.307 40.976 119.88 40.6026 120.6C40.2293 121.32 40.0426 122.147 40.0426 123.08ZM63.8942 114.52L64.3342 117.6L64.2542 117.36C64.9475 116.187 65.8142 115.28 66.8542 114.64C67.8942 113.973 69.1475 113.64 70.6142 113.64C71.5742 113.64 72.4142 113.773 73.1342 114.04C73.8808 114.307 74.5075 114.707 75.0142 115.24C75.5208 115.747 75.8675 116.413 76.0542 117.24L75.8542 117.28C76.6008 116.187 77.4942 115.307 78.5342 114.64C79.6008 113.973 80.7075 113.64 81.8542 113.64C83.5875 113.64 84.9609 114.133 85.9742 115.12C87.0142 116.08 87.5475 117.333 87.5742 118.88V132H82.0142V121.2C81.9875 120.427 81.8675 119.8 81.6542 119.32C81.4408 118.813 80.9475 118.533 80.1742 118.48C79.2675 118.48 78.4942 118.8 77.8542 119.44C77.2408 120.053 76.7742 120.853 76.4542 121.84C76.1608 122.8 76.0142 123.8 76.0142 124.84V132H70.4142V121.2C70.3875 120.427 70.2408 119.8 69.9742 119.32C69.7342 118.813 69.2275 118.533 68.4542 118.48C67.5742 118.48 66.8275 118.8 66.2142 119.44C65.6275 120.053 65.1742 120.84 64.8542 121.8C64.5608 122.76 64.4142 123.747 64.4142 124.76V132H58.8142V114.52H63.8942ZM102.145 132.48C100.012 132.48 98.1988 132.08 96.7054 131.28C95.2388 130.48 94.1188 129.373 93.3454 127.96C92.5721 126.547 92.1854 124.92 92.1854 123.08C92.1854 121.32 92.6388 119.733 93.5454 118.32C94.4521 116.907 95.6654 115.787 97.1854 114.96C98.7054 114.107 100.399 113.68 102.265 113.68C104.772 113.68 106.825 114.413 108.425 115.88C110.052 117.32 111.105 119.413 111.585 122.16L97.9854 126.48L96.7454 123.44L106.585 120.12L105.425 120.64C105.212 119.947 104.825 119.347 104.265 118.84C103.732 118.307 102.919 118.04 101.825 118.04C100.999 118.04 100.265 118.24 99.6254 118.64C99.0121 119.013 98.5321 119.56 98.1854 120.28C97.8654 120.973 97.7054 121.8 97.7054 122.76C97.7054 123.853 97.9054 124.773 98.3054 125.52C98.7054 126.24 99.2521 126.787 99.9454 127.16C100.639 127.533 101.412 127.72 102.265 127.72C102.879 127.72 103.465 127.613 104.025 127.4C104.612 127.187 105.185 126.907 105.745 126.56L108.225 130.72C107.292 131.253 106.279 131.68 105.185 132C104.119 132.32 103.105 132.48 102.145 132.48Z" fill="#3B8E89"/>
</svg>
