<svg width="82" height="80" viewBox="0 0 82 80" fill="none" xmlns="http://www.w3.org/2000/svg">
<path d="M1.9 60.28H4.8V72.2H11.72V75H1.9V60.28ZM13.7725 70.52C13.7725 69.6267 13.9792 68.8267 14.3925 68.12C14.8192 67.4133 15.4125 66.86 16.1725 66.46C16.9325 66.0467 17.8058 65.84 18.7925 65.84C19.7925 65.84 20.6592 66.0467 21.3925 66.46C22.1258 66.86 22.6858 67.4133 23.0725 68.12C23.4725 68.8267 23.6725 69.6267 23.6725 70.52C23.6725 71.4133 23.4725 72.22 23.0725 72.94C22.6858 73.6467 22.1258 74.2067 21.3925 74.62C20.6592 75.0333 19.7792 75.24 18.7525 75.24C17.7925 75.24 16.9325 75.0533 16.1725 74.68C15.4258 74.3067 14.8392 73.7667 14.4125 73.06C13.9858 72.3533 13.7725 71.5067 13.7725 70.52ZM16.5925 70.54C16.5925 70.9933 16.6858 71.4067 16.8725 71.78C17.0592 72.14 17.3125 72.4267 17.6325 72.64C17.9525 72.8533 18.3125 72.96 18.7125 72.96C19.1525 72.96 19.5325 72.8533 19.8525 72.64C20.1725 72.4267 20.4192 72.14 20.5925 71.78C20.7658 71.4067 20.8525 70.9933 20.8525 70.54C20.8525 70.0733 20.7658 69.66 20.5925 69.3C20.4192 68.94 20.1725 68.6533 19.8525 68.44C19.5325 68.2267 19.1525 68.12 18.7125 68.12C18.3125 68.12 17.9525 68.2267 17.6325 68.44C17.3125 68.6533 17.0592 68.94 16.8725 69.3C16.6858 69.66 16.5925 70.0733 16.5925 70.54ZM30.5983 79.4C29.8116 79.4 29.1449 79.3067 28.5983 79.12C28.0649 78.9333 27.6116 78.7067 27.2383 78.44C26.8649 78.1733 26.5316 77.92 26.2383 77.68L27.8783 75.76C28.1849 76.04 28.5383 76.3067 28.9383 76.56C29.3516 76.8267 29.8916 76.96 30.5583 76.96C30.9983 76.96 31.4049 76.88 31.7783 76.72C32.1649 76.5733 32.4716 76.3533 32.6983 76.06C32.9383 75.7667 33.0583 75.4 33.0583 74.96V73.04L33.1583 73.54C32.9449 73.9933 32.5583 74.3933 31.9983 74.74C31.4383 75.0733 30.7049 75.24 29.7983 75.24C29.0116 75.24 28.2783 75.04 27.5983 74.64C26.9316 74.2267 26.3983 73.6733 25.9983 72.98C25.5983 72.2733 25.3983 71.4733 25.3983 70.58C25.3983 69.66 25.6116 68.8467 26.0383 68.14C26.4649 67.42 27.0183 66.8533 27.6983 66.44C28.3783 66.0267 29.0983 65.82 29.8583 65.82C30.6183 65.82 31.2716 65.9333 31.8183 66.16C32.3783 66.3733 32.7983 66.64 33.0783 66.96L32.9783 67.22L33.2783 66.26H35.8583V75C35.8583 75.8533 35.6183 76.6067 35.1383 77.26C34.6583 77.9267 34.0183 78.4467 33.2183 78.82C32.4316 79.2067 31.5583 79.4 30.5983 79.4ZM28.2183 70.5C28.2183 70.9667 28.3249 71.3867 28.5383 71.76C28.7516 72.1333 29.0383 72.4267 29.3983 72.64C29.7716 72.8533 30.1849 72.96 30.6383 72.96C31.0249 72.96 31.3649 72.9133 31.6583 72.82C31.9649 72.7133 32.2316 72.5667 32.4583 72.38C32.6983 72.18 32.8983 71.9333 33.0583 71.64V69.5C32.9383 69.2067 32.7583 68.96 32.5183 68.76C32.2783 68.5467 31.9983 68.3867 31.6783 68.28C31.3716 68.16 31.0249 68.1 30.6383 68.1C30.1849 68.1 29.7716 68.2067 29.3983 68.42C29.0383 68.62 28.7516 68.9 28.5383 69.26C28.3249 69.62 28.2183 70.0333 28.2183 70.5ZM45.1984 67.66C45.1984 66.6467 45.3918 65.6867 45.7784 64.78C46.1651 63.8733 46.6984 63.0733 47.3784 62.38C48.0718 61.6733 48.8718 61.12 49.7784 60.72C50.6851 60.32 51.6584 60.12 52.6984 60.12C53.7251 60.12 54.6918 60.32 55.5984 60.72C56.5051 61.12 57.3051 61.6733 57.9984 62.38C58.7051 63.0733 59.2518 63.8733 59.6384 64.78C60.0384 65.6867 60.2384 66.6467 60.2384 67.66C60.2384 68.7 60.0384 69.6733 59.6384 70.58C59.2518 71.4867 58.7051 72.2867 57.9984 72.98C57.3051 73.66 56.5051 74.1933 55.5984 74.58C54.6918 74.9667 53.7251 75.16 52.6984 75.16C51.6584 75.16 50.6851 74.9667 49.7784 74.58C48.8718 74.1933 48.0718 73.66 47.3784 72.98C46.6984 72.2867 46.1651 71.4867 45.7784 70.58C45.3918 69.6733 45.1984 68.7 45.1984 67.66ZM48.1984 67.66C48.1984 68.3133 48.3118 68.9267 48.5384 69.5C48.7784 70.06 49.1051 70.56 49.5184 71C49.9451 71.4267 50.4318 71.76 50.9784 72C51.5384 72.24 52.1451 72.36 52.7984 72.36C53.4251 72.36 54.0051 72.24 54.5384 72C55.0851 71.76 55.5584 71.4267 55.9584 71C56.3584 70.56 56.6718 70.06 56.8984 69.5C57.1251 68.9267 57.2384 68.3133 57.2384 67.66C57.2384 66.9933 57.1184 66.3733 56.8784 65.8C56.6518 65.2267 56.3318 64.7267 55.9184 64.3C55.5184 63.86 55.0451 63.52 54.4984 63.28C53.9518 63.04 53.3584 62.92 52.7184 62.92C52.0784 62.92 51.4851 63.04 50.9384 63.28C50.3918 63.52 49.9118 63.86 49.4984 64.3C49.0851 64.7267 48.7651 65.2267 48.5384 65.8C48.3118 66.3733 48.1984 66.9933 48.1984 67.66ZM65.6897 75.42C64.903 75.42 64.243 75.18 63.7097 74.7C63.1764 74.2067 62.8964 73.5733 62.8697 72.8V66.26H65.6697V71.76C65.6964 72.1467 65.7964 72.46 65.9697 72.7C66.143 72.9267 66.4364 73.04 66.8497 73.04C67.263 73.04 67.6164 72.9 67.9097 72.62C68.2164 72.34 68.4497 71.96 68.6097 71.48C68.783 70.9867 68.8697 70.4333 68.8697 69.82V66.26H71.6697V75H69.1297L68.9097 73.4L68.9497 73.58C68.7497 73.94 68.4964 74.26 68.1897 74.54C67.883 74.82 67.5164 75.0333 67.0897 75.18C66.6764 75.34 66.2097 75.42 65.6897 75.42ZM75.5694 62.42H78.3694V66.22H80.4894V68.4H78.3694V75H75.5694V68.4H74.2094V66.22H75.5694V62.42Z" fill="#3B8E89"/>
<path fill-rule="evenodd" clip-rule="evenodd" d="M40.5819 45.8334H30.4027C25.311 45.8334 21.1673 41.6896 21.1673 36.5938V13.4084C21.1673 8.31252 25.311 4.16669 30.4027 4.16669H40.559C45.6548 4.16669 49.8006 8.31252 49.8006 13.4084V15.35C49.8006 16.2125 49.1006 16.9125 48.2381 16.9125C47.3756 16.9125 46.6756 16.2125 46.6756 15.35V13.4084C46.6756 10.0334 43.9319 7.29169 40.559 7.29169H30.4027C27.034 7.29169 24.2923 10.0334 24.2923 13.4084V36.5938C24.2923 39.9667 27.034 42.7084 30.4027 42.7084H40.5819C43.9402 42.7084 46.6756 39.975 46.6756 36.6167V34.6521C46.6756 33.7896 47.3756 33.0896 48.2381 33.0896C49.1006 33.0896 49.8006 33.7896 49.8006 34.6521V36.6167C49.8006 41.7 45.6631 45.8334 40.5819 45.8334Z" fill="#3B8E89"/>
<mask id="mask0_138_5917" style="mask-type:alpha" maskUnits="userSpaceOnUse" x="35" y="23" width="29" height="4">
<path fill-rule="evenodd" clip-rule="evenodd" d="M35.7419 23.4375H63.9521V26.5625H35.7419V23.4375Z" fill="white"/>
</mask>
<g mask="url(#mask0_138_5917)">
<path fill-rule="evenodd" clip-rule="evenodd" d="M62.3898 26.5625H37.3044C36.4419 26.5625 35.7419 25.8625 35.7419 25C35.7419 24.1375 36.4419 23.4375 37.3044 23.4375H62.3898C63.2523 23.4375 63.9523 24.1375 63.9523 25C63.9523 25.8625 63.2523 26.5625 62.3898 26.5625Z" fill="#3B8E89"/>
</g>
<mask id="mask1_138_5917" style="mask-type:alpha" maskUnits="userSpaceOnUse" x="54" y="17" width="10" height="16">
<path fill-rule="evenodd" clip-rule="evenodd" d="M54.7285 17.3651H63.9521V32.6375H54.7285V17.3651Z" fill="white"/>
</mask>
<g mask="url(#mask1_138_5917)">
<path fill-rule="evenodd" clip-rule="evenodd" d="M56.2904 32.6375C55.8904 32.6375 55.4884 32.4854 55.1842 32.1771C54.5759 31.5646 54.5779 30.5771 55.1884 29.9688L60.1759 25L55.1884 20.0333C54.5779 19.425 54.5738 18.4375 55.1842 17.825C55.7925 17.2125 56.78 17.2125 57.3925 17.8208L63.4925 23.8938C63.7884 24.1854 63.9529 24.5854 63.9529 25C63.9529 25.4146 63.7884 25.8146 63.4925 26.1063L57.3925 32.1813C57.0884 32.4854 56.6884 32.6375 56.2904 32.6375Z" fill="#3B8E89"/>
</g>
</svg>
