<svg width="178" height="146" viewBox="0 0 178 146" fill="none" xmlns="http://www.w3.org/2000/svg">
<g opacity="0.6">
<path fill-rule="evenodd" clip-rule="evenodd" d="M118.104 50.6104C116.315 50.6104 114.754 49.4813 114.497 47.9188C114.22 46.2063 115.605 44.6271 117.603 44.3896C122.658 43.7813 126.474 40.0229 126.484 35.6396C126.484 31.2938 122.848 27.6188 117.836 26.9146C115.853 26.6354 114.506 25.0271 114.832 23.3229C115.163 21.6188 117.024 20.4771 119.022 20.7479C127.568 21.9521 133.775 28.2188 133.775 35.6479C133.756 43.1271 127.237 49.5438 118.609 50.5813C118.439 50.6021 118.269 50.6104 118.104 50.6104Z" fill="#3B8E89"/>
<mask id="mask0_138_5910" style="mask-type:alpha" maskUnits="userSpaceOnUse" x="123" y="58" width="19" height="20">
<path fill-rule="evenodd" clip-rule="evenodd" d="M123.408 58.3401H141.851V77.2133H123.408V58.3401Z" fill="white"/>
</mask>
<g mask="url(#mask0_138_5910)">
<path fill-rule="evenodd" clip-rule="evenodd" d="M132.563 77.2133C131.095 77.2133 129.71 76.4467 129.155 75.2008C128.436 73.5883 129.384 71.78 131.265 71.1675C134.561 70.0925 134.561 68.905 134.561 68.3342C134.561 66.5092 131.853 65.2342 126.516 64.5508C124.528 64.2925 123.152 62.705 123.449 60.9925C123.745 59.2842 125.592 58.1467 127.6 58.3675C139.378 59.88 141.852 64.6217 141.852 68.3342C141.852 70.6008 140.812 74.7383 133.861 77.0092C133.433 77.1467 132.996 77.2133 132.563 77.2133Z" fill="#3B8E89"/>
</g>
<path fill-rule="evenodd" clip-rule="evenodd" d="M88.9372 66.3084C77.3875 66.3084 63.6164 67.525 63.6164 73.3167C63.6164 79.1542 77.3875 80.3792 88.9372 80.3792C100.487 80.3792 114.253 79.1667 114.253 73.3875C114.253 67.5375 100.487 66.3084 88.9372 66.3084ZM88.9372 86.6292C80.8729 86.6292 56.3249 86.6292 56.3249 73.3167C56.3249 60.0583 80.8729 60.0583 88.9372 60.0583C97.0016 60.0583 121.545 60.0583 121.545 73.3875C121.545 86.6292 97.8571 86.6292 88.9372 86.6292Z" fill="#3B8E89"/>
<path fill-rule="evenodd" clip-rule="evenodd" d="M88.9372 22.9167C80.7124 22.9167 74.0237 28.6542 74.0237 35.7042C74.0092 39.1209 75.5355 42.3167 78.3306 44.7292C81.1256 47.1417 84.8491 48.4792 88.8157 48.4917L88.9372 51.6167V48.4917C97.162 48.4917 103.856 42.7584 103.856 35.7042C103.856 28.6542 97.162 22.9167 88.9372 22.9167ZM88.9372 54.7417H88.806C82.8756 54.725 77.3195 52.7333 73.1585 49.1333C68.9878 45.5375 66.708 40.7625 66.7323 35.6917C66.7323 25.2084 76.6924 16.6667 88.9372 16.6667C101.187 16.6667 111.147 25.2084 111.147 35.7042C111.147 46.2 101.187 54.7417 88.9372 54.7417Z" fill="#3B8E89"/>
<path fill-rule="evenodd" clip-rule="evenodd" d="M59.7665 50.6104C59.6012 50.6104 59.4311 50.6021 59.261 50.5812C50.6327 49.5437 44.119 43.1271 44.0996 35.6562C44.0996 28.2187 50.307 21.9521 58.8526 20.7479C60.8991 20.4729 62.7123 21.6271 63.0428 23.3229C63.3685 25.0271 62.022 26.6354 60.0387 26.9146C55.027 27.6187 51.391 31.2937 51.391 35.6479C51.4008 40.0229 55.2166 43.7854 60.2672 44.3896C62.265 44.6271 63.6504 46.2062 63.3733 47.9187C63.1157 49.4812 61.5553 50.6104 59.7665 50.6104Z" fill="#3B8E89"/>
<path fill-rule="evenodd" clip-rule="evenodd" d="M45.3119 77.2133C44.8793 77.2133 44.4418 77.1467 44.014 77.0092C37.058 74.7342 36.0177 70.5967 36.0177 68.3342C36.0177 64.6258 38.4919 59.88 50.275 58.3675C52.2825 58.1508 54.12 59.2842 54.4214 60.9925C54.7179 62.705 53.3422 64.2925 51.3541 64.5508C46.0167 65.2342 43.3092 66.5092 43.3092 68.3342C43.3092 68.905 43.3092 70.0883 46.6098 71.1675C48.491 71.78 49.4389 73.5883 48.7194 75.2008C48.1653 76.4467 46.7799 77.2133 45.3119 77.2133Z" fill="#3B8E89"/>
<path d="M26.8068 133.56C26.4868 133.827 25.8868 134.187 25.0068 134.64C24.1534 135.093 23.1001 135.493 21.8468 135.84C20.5934 136.187 19.2068 136.347 17.6868 136.32C15.3668 136.267 13.2868 135.853 11.4468 135.08C9.63342 134.28 8.08676 133.2 6.80676 131.84C5.55342 130.48 4.59342 128.92 3.92676 127.16C3.26009 125.4 2.92676 123.52 2.92676 121.52C2.92676 119.28 3.26009 117.227 3.92676 115.36C4.62009 113.493 5.59342 111.88 6.84676 110.52C8.12676 109.16 9.64676 108.107 11.4068 107.36C13.1668 106.613 15.1134 106.24 17.2468 106.24C19.2201 106.24 20.9668 106.507 22.4868 107.04C24.0068 107.573 25.2468 108.147 26.2068 108.76L23.9268 114.24C23.2601 113.733 22.3668 113.213 21.2468 112.68C20.1534 112.12 18.8868 111.84 17.4468 111.84C16.3268 111.84 15.2468 112.08 14.2068 112.56C13.1934 113.013 12.2868 113.667 11.4868 114.52C10.7134 115.373 10.1001 116.373 9.64676 117.52C9.19342 118.64 8.96676 119.867 8.96676 121.2C8.96676 122.613 9.16676 123.907 9.56676 125.08C9.99342 126.253 10.5934 127.267 11.3668 128.12C12.1401 128.947 13.0601 129.587 14.1268 130.04C15.2201 130.493 16.4468 130.72 17.8068 130.72C19.3801 130.72 20.7268 130.467 21.8468 129.96C22.9668 129.453 23.8201 128.92 24.4068 128.36L26.8068 133.56ZM30.5374 127.04C30.5374 125.253 30.9507 123.653 31.7774 122.24C32.6307 120.827 33.8174 119.72 35.3374 118.92C36.8574 118.093 38.6041 117.68 40.5774 117.68C42.5774 117.68 44.3107 118.093 45.7774 118.92C47.2441 119.72 48.3641 120.827 49.1374 122.24C49.9374 123.653 50.3374 125.253 50.3374 127.04C50.3374 128.827 49.9374 130.44 49.1374 131.88C48.3641 133.293 47.2441 134.413 45.7774 135.24C44.3107 136.067 42.5507 136.48 40.4974 136.48C38.5774 136.48 36.8574 136.107 35.3374 135.36C33.8441 134.613 32.6707 133.533 31.8174 132.12C30.9641 130.707 30.5374 129.013 30.5374 127.04ZM36.1774 127.08C36.1774 127.987 36.3641 128.813 36.7374 129.56C37.1107 130.28 37.6174 130.853 38.2574 131.28C38.8974 131.707 39.6174 131.92 40.4174 131.92C41.2974 131.92 42.0574 131.707 42.6974 131.28C43.3374 130.853 43.8307 130.28 44.1774 129.56C44.5241 128.813 44.6974 127.987 44.6974 127.08C44.6974 126.147 44.5241 125.32 44.1774 124.6C43.8307 123.88 43.3374 123.307 42.6974 122.88C42.0574 122.453 41.2974 122.24 40.4174 122.24C39.6174 122.24 38.8974 122.453 38.2574 122.88C37.6174 123.307 37.1107 123.88 36.7374 124.6C36.3641 125.32 36.1774 126.147 36.1774 127.08ZM60.0289 118.52L60.4689 121.64L60.3889 121.36C61.0023 120.267 61.8689 119.387 62.9889 118.72C64.1089 118.027 65.4823 117.68 67.1089 117.68C68.7623 117.68 70.1356 118.173 71.2289 119.16C72.3489 120.12 72.9223 121.373 72.9489 122.92V136H67.3489V125C67.3223 124.227 67.1089 123.613 66.7089 123.16C66.3356 122.68 65.6956 122.44 64.7889 122.44C63.9356 122.44 63.1889 122.72 62.5489 123.28C61.9089 123.84 61.4156 124.6 61.0689 125.56C60.7223 126.52 60.5489 127.627 60.5489 128.88V136H54.9489V118.52H60.0289ZM80.5389 110.84H86.1389V118.44H90.3789V122.8H86.1389V136H80.5389V122.8H77.8189V118.44H80.5389V110.84ZM102.201 136.48C100.574 136.48 99.0945 136.16 97.7611 135.52C96.4545 134.853 95.4145 133.84 94.6411 132.48C93.8678 131.12 93.4811 129.387 93.4811 127.28C93.4811 125.307 93.8811 123.6 94.6811 122.16C95.4811 120.72 96.5345 119.613 97.8411 118.84C99.1478 118.04 100.534 117.64 102.001 117.64C103.734 117.64 105.041 117.933 105.921 118.52C106.828 119.08 107.574 119.707 108.161 120.4L107.921 121.08L108.441 118.52H113.641V136H108.041V132.2L108.481 133.4C108.428 133.4 108.268 133.56 108.001 133.88C107.734 134.173 107.334 134.533 106.801 134.96C106.294 135.36 105.654 135.707 104.881 136C104.134 136.32 103.241 136.48 102.201 136.48ZM103.801 131.92C104.468 131.92 105.068 131.827 105.601 131.64C106.134 131.427 106.601 131.133 107.001 130.76C107.401 130.36 107.748 129.867 108.041 129.28V125C107.828 124.413 107.508 123.92 107.081 123.52C106.654 123.093 106.148 122.773 105.561 122.56C104.974 122.32 104.321 122.2 103.601 122.2C102.801 122.2 102.054 122.413 101.361 122.84C100.694 123.24 100.161 123.8 99.7611 124.52C99.3611 125.24 99.1611 126.067 99.1611 127C99.1611 127.933 99.3745 128.773 99.8011 129.52C100.228 130.267 100.788 130.853 101.481 131.28C102.201 131.707 102.974 131.92 103.801 131.92ZM134.451 134.44C133.678 135.053 132.705 135.547 131.531 135.92C130.385 136.293 129.251 136.48 128.131 136.48C126.131 136.48 124.385 136.12 122.891 135.4C121.425 134.653 120.278 133.6 119.451 132.24C118.651 130.853 118.251 129.187 118.251 127.24C118.251 125.293 118.691 123.64 119.571 122.28C120.451 120.893 121.598 119.84 123.011 119.12C124.451 118.4 125.958 118.04 127.531 118.04C129.105 118.04 130.465 118.253 131.611 118.68C132.785 119.107 133.785 119.667 134.611 120.36L131.891 123.96C131.518 123.667 130.998 123.373 130.331 123.08C129.691 122.76 128.931 122.6 128.051 122.6C127.278 122.6 126.571 122.8 125.931 123.2C125.291 123.6 124.785 124.147 124.411 124.84C124.038 125.533 123.851 126.333 123.851 127.24C123.851 128.093 124.051 128.88 124.451 129.6C124.851 130.32 125.398 130.893 126.091 131.32C126.811 131.72 127.651 131.92 128.611 131.92C129.225 131.92 129.785 131.84 130.291 131.68C130.825 131.493 131.278 131.24 131.651 130.92L134.451 134.44ZM140.592 110.84H146.192V118.44H150.432V122.8H146.192V136H140.592V122.8H137.872V118.44H140.592V110.84ZM160.574 136.36C159.134 136.36 157.788 136.107 156.534 135.6C155.308 135.093 154.268 134.387 153.414 133.48L155.734 130.4C156.588 131.173 157.374 131.733 158.094 132.08C158.841 132.4 159.508 132.56 160.094 132.56C160.548 132.56 160.948 132.52 161.294 132.44C161.668 132.333 161.961 132.187 162.174 132C162.388 131.787 162.494 131.52 162.494 131.2C162.494 130.747 162.308 130.387 161.934 130.12C161.588 129.853 161.134 129.64 160.574 129.48C160.014 129.293 159.414 129.107 158.774 128.92C157.174 128.413 156.014 127.68 155.294 126.72C154.601 125.733 154.254 124.667 154.254 123.52C154.254 122.64 154.481 121.76 154.934 120.88C155.414 119.973 156.161 119.227 157.174 118.64C158.214 118.027 159.548 117.72 161.174 117.72C162.641 117.72 163.881 117.867 164.894 118.16C165.908 118.453 166.868 118.933 167.774 119.6L165.654 122.88C165.148 122.48 164.574 122.147 163.934 121.88C163.321 121.587 162.748 121.427 162.214 121.4C161.734 121.373 161.321 121.427 160.974 121.56C160.654 121.693 160.401 121.867 160.214 122.08C160.028 122.293 159.934 122.52 159.934 122.76C159.908 123.267 160.094 123.667 160.494 123.96C160.921 124.253 161.454 124.48 162.094 124.64C162.734 124.8 163.361 124.987 163.974 125.2C164.828 125.467 165.561 125.827 166.174 126.28C166.788 126.733 167.254 127.28 167.574 127.92C167.921 128.533 168.094 129.28 168.094 130.16C168.094 131.227 167.814 132.24 167.254 133.2C166.721 134.133 165.894 134.893 164.774 135.48C163.681 136.067 162.281 136.36 160.574 136.36Z" fill="#3B8E89"/>
</g>
</svg>
